<svg xmlns="http://www.w3.org/2000/svg" viewBox="0 0 180 180">
  <rect width="180" height="180" rx="48" fill="#22d3ee" />
  <path
    d="M89.72 168.13c-1 0-2 0-3-.1L86 168a36.62 36.62 0 0 1-13-3.23h-.63-1.32-.17c-4-.26-10.56-1.64-19-6.7-20.71-12.32-25.88-30.26-23.97-41.88 1-6.23 6.54-20.36 10.14-29.13a9.38 9.38 0 0 1-.51-1.23 10.76 10.76 0 0 1-7-3.47c-3.06-3.16-3.2-7.71-.46-12.18a12.18 12.18 0 0 1-2-3.52l-.08-.14c-1.25-3.83-.46-7.84 2.32-12v-.32c-2.84-9.73-7.53-31.46 4.49-38.86l.23-.15.26-.12a11.63 11.63 0 0 1 5-1.11h.76c.22 0 .46 0 .69.06 2.37.18 8.44 1.13 15.65 5.93a48.49 48.49 0 0 1 10.68 9.74 11 11 0 0 1 1.08.31 11.54 11.54 0 0 1 5.43-1.37H75h.23A13.57 13.57 0 0 1 77 29a16 16 0 0 1 13.49-7.6h1.07a19.79 19.79 0 0 1 2.85.42 22.27 22.27 0 0 1 15.22 11.91h.27a12.57 12.57 0 0 1 7.18 2.85 15.69 15.69 0 0 1 3-.66 58.82 58.82 0 0 1 2.93-2c7.56-4.87 15.45-7.44 22.81-7.44.69 0 1.39 0 2.06.07a30.93 30.93 0 0 1 6.18 1 8.24 8.24 0 0 1 4.69 3.15c1.89 2.41 2.55 6 1.9 10.55A52.93 52.93 0 0 1 155 58.69a38.76 38.76 0 0 1-3.82 5.72 13.66 13.66 0 0 1-1.23 8.37 16.45 16.45 0 0 1 2.39 11.11 13.29 13.29 0 0 1-4.82 9.39 10.63 10.63 0 0 1-2.12 5.91 8.83 8.83 0 0 1-6.58 4l2.13 12.16c.39 2.31 4 20.12-8.35 33.62a48.34 48.34 0 0 1-15.45 11.83 57.18 57.18 0 0 1-13.55 4.08c-3.67 2.12-8.32 3.25-13.88 3.25z"
    fill="#fff" />
  <path
    d="M86.22 165a33 33 0 0 1-12.35-3.13l-.54-.11a18.75 18.75 0 0 1-2.12 0h-.15c-3.68-.25-9.75-1.53-17.72-6.29-19.34-11.53-24.19-28.11-22.47-38.81 1-6.37 7.3-22 10.55-29.89-.1-.11-.19-.24-.28-.36a6.18 6.18 0 0 1-1-2.53 5.44 5.44 0 0 1-1.1-1 9.43 9.43 0 0 1-1.19 0 7.69 7.69 0 0 1-5.13-2.51c-2.46-2.53-2.06-6.38 1-10.18v-.51a9.21 9.21 0 0 1-2.91-4v-.07c-1-3-.19-6.38 2.39-9.94a14.43 14.43 0 0 1 .23-1.67c-1.79-6-8-29.36 3-36.11l.1-.07.11-.05a8.56 8.56 0 0 1 4.23-.8l.59.06c2.13.15 7.61 1 14.28 5.43a45.6 45.6 0 0 1 10.7 10 8.67 8.67 0 0 1 3 .93 8.57 8.57 0 0 1 5.5-1.73h.14a10.1 10.1 0 0 1 3.29.93c2.8-5.54 7.52-8.56 13-8.2a15.44 15.44 0 0 1 2.4.35 19.6 19.6 0 0 1 14 12 13.19 13.19 0 0 1 1.89 0h.11a9.46 9.46 0 0 1 6.64 3.37 12.68 12.68 0 0 1 4.84-1.27c1.17-.87 2.3-1.66 3.45-2.39 7.77-5 15.74-7.39 23.06-6.91a28.65 28.65 0 0 1 5.58.93 5.41 5.41 0 0 1 3.06 2c1.41 1.81 1.88 4.64 1.35 8.36a50.14 50.14 0 0 1-5.41 16.39 35.58 35.58 0 0 1-4.45 6.36 10.82 10.82 0 0 1-1.57 9.42c1.8 1.91 3.56 5.18 3 10.53-.47 4.57-2.8 7-4.9 8.18a7.63 7.63 0 0 1-1.51 5.71 5.84 5.84 0 0 1-5.17 2.71h0a6.14 6.14 0 0 1-2.7-.85l2.94 16.56c.49 2.16 3.76 18.53-7.63 31A45.48 45.48 0 0 1 115.84 158a56.57 56.57 0 0 1-13.42 4c-3.76 2.44-9 3.46-15.54 3z"
    fill="#3e2e2e" />
  <path
    d="M127.5 144.43c-8.59 9.41-15.74 11.82-23.72 13.52a18 18 0 0 0 1.63-2.26c.2-.31.37-.58.53-.8a.79.79 0 0 0-.15-1.1h0a.82.82 0 0 0-1.11.17l-.33.49c-.11.18-.17.26-.26.4a12.91 12.91 0 0 1-3.2 3.7h0a11.29 11.29 0 0 1-1.94 1.18 18.64 18.64 0 0 1-7 1.7 44.44 44.44 0 0 1-4 0l-1.56-.1a32.76 32.76 0 0 1-8.37-1.64 17.57 17.57 0 0 1-2.94-1.31 9.06 9.06 0 0 1-3.54-3.16 1.3 1.3 0 0 1-.14-.26.79.79 0 0 0-1.47.55 7.13 7.13 0 0 0 2 2.6l-.72-.05c-2.9-.19-8.48-1.27-16.07-5.78-18.79-11.21-22-26.66-20.69-35 0-.25.1-.52.15-.79l.09-.44a2.89 2.89 0 0 1 .11-.47c.11-.46.25-.95.39-1.48 0-.19.1-.38.17-.57a18.58 18.58 0 0 1 .32-1.09l.38-1.25c.13-.43.25-.78.39-1.18l.52-1.53.31-.92a1.11 1.11 0 0 1 .07-.16c.07-.22.15-.46.24-.7a94.25 94.25 0 0 1 1.31-3.61c.13-.38.28-.76.42-1.14l.21-.57.63-1.65.67-1.72.41-1 1.3-3.28.39-1 .35-.87 1-2.35c.14-.32.26-.63.38-.91l.57-1.4c.1-.23.19-.46.27-.67a3.48 3.48 0 0 0 .72 0h.15l.16-.06c3.33-1.34 4.23-3.79 4.23-5.65a4.5 4.5 0 0 0 2-1.8 11.1 11.1 0 0 0 4.68 1.49 8.61 8.61 0 0 0 6.29-2.22 6.32 6.32 0 0 0 4.27 2.1 6.08 6.08 0 0 0 2-.2 4.31 4.31 0 0 0 3.22 2.06 3.63 3.63 0 0 0 1.6-.25c1 2.22 3.24 5.33 8.56 7.23a14.43 14.43 0 0 0 3.83.79c6 .4 10.84-3.08 13.28-5.26 1.12 1.85 2.51 2.84 4.12 3a5.72 5.72 0 0 0 4-1.56 4.78 4.78 0 0 0 3.34 2A4.45 4.45 0 0 0 115 87c3.19 4.79 6.47 7.33 9.76 7.55a6.79 6.79 0 0 0 4-1 4.79 4.79 0 0 0 1.51 1.32h0l1.07 5.52c0 .18.06.35.1.52l.88 4.89c0 .25.09.5.13.73l.57 3.14c0 .23.07.46.11.72l.78 4.48a1.34 1.34 0 0 0 0 .3.41.41 0 0 1 0 .11 1.42 1.42 0 0 0 .06.31.77.77 0 0 0 0 .15.76.76 0 0 0 0 .27l.1.58a.2.2 0 0 0 0 .07s4.1 16.07-6.57 27.77zM154 40.32c-.59 4.09-2.85 14.18-9.53 21.38a9.36 9.36 0 0 0-1.68-1.93h0a7.83 7.83 0 0 0-4.72-1.93 9.29 9.29 0 0 0-2.52.18 1.94 1.94 0 0 0-.21-.34 3.35 3.35 0 0 0-1.45-1.1 2.77 2.77 0 0 0-.43-1.53 2.6 2.6 0 0 0-2.08-1.13 5.57 5.57 0 0 0-1.29.09c.17-2.57.2-6.34-1.16-8.72l-.06-.11a5.07 5.07 0 0 0-.49-.72 9.34 9.34 0 0 0-4.3-3.15c5.51-4 14.07-8.71 23.38-8.09a23.88 23.88 0 0 1 5 .83s2.43.32 1.54 6.27zM41.13 20.75a5.31 5.31 0 0 0-2.76.35c-7.12 4.38-4.5 20.78-1.78 30.51a5.76 5.76 0 0 1 .84-1.06 4.61 4.61 0 0 1 1.5-1h0a5.83 5.83 0 0 1 2.54-.44 9.06 9.06 0 0 1 .91-5.34 7 7 0 0 1 4.9-3.34 5 5 0 0 1 1.39-.1 7.23 7.23 0 0 1 4.67 2.58 3.1 3.1 0 0 1 1.24-.23 3.56 3.56 0 0 1 .83-1.68 3 3 0 0 1 2.41-.87 2.69 2.69 0 0 1 .4 0 9.16 9.16 0 0 1 .68-1.76 8.44 8.44 0 0 1 .91-1.37 6.59 6.59 0 0 1 3.62-2.26c-8.17-10.41-17.58-13.67-22.3-13.99z"
    fill="#e8dccd" />
  <path
    d="M59.81 37a8.44 8.44 0 0 0-.91 1.38 9.86 9.86 0 0 0-.68 1.76 2.69 2.69 0 0 0-.4 0 3 3 0 0 0-2.41.87 3.56 3.56 0 0 0-.83 1.64 3.07 3.07 0 0 0-1.24.23 7.23 7.23 0 0 0-4.67-2.58 5.43 5.43 0 0 0-1.39.1 7 7 0 0 0-4.9 3.34 9.06 9.06 0 0 0-.91 5.34 5.66 5.66 0 0 0-2.54.44c-2.64-8.79-4.67-19.7 1.42-23.46 1.88-1.14 10.57.85 19.46 10.94zm90.9 6.46c-.94 3.28-3 10.39-7.89 16.33a7.88 7.88 0 0 0-4.73-1.93 9.29 9.29 0 0 0-2.52.18 1.94 1.94 0 0 0-.21-.34 3.27 3.27 0 0 0-1.45-1.1 2.77 2.77 0 0 0-.43-1.53 2.6 2.6 0 0 0-2.08-1.13 5.57 5.57 0 0 0-1.29.09c.17-2.57.14-6.45-1.22-8.83 6.11-5.63 13.51-9.89 21.11-7.78-.07 0 2.09 1.23.71 6.04z"
    fill="#e38569" />
  <path
    d="M140.41 73.8s4.72-3.28 4.05-8a.4.4 0 0 0 0-.24 4.37 4.37 0 0 1-.12-.51 4.31 4.31 0 0 0-.21-.67 4.78 4.78 0 0 0-.19-.48l-.11-.23v-.07l-.18-.33-.22-.38-.42-.63c-.14-.2-.2-.27-.31-.39l-.32-.37-.32-.32a.8.8 0 0 0-.17-.15h0a7 7 0 0 0-1.3-.89l-.33-.15a6.09 6.09 0 0 0-1.32-.4h-.33-.1-.43a8.26 8.26 0 0 0-3.7.65c.49-2-1.53-2.26-2.07-2.29h-.13c.6-1.69 0-2.24-.81-2.29a7.66 7.66 0 0 0-3 .81s.21-1.43.28-3.21v-.48a6.53 6.53 0 0 0 0-1v-.52a9.29 9.29 0 0 0-.05-1.06 3.05 3.05 0 0 0-.06-.6 12.13 12.13 0 0 0-.23-1.45 3.06 3.06 0 0 0-.1-.41 2.44 2.44 0 0 0-.13-.44 5.26 5.26 0 0 0-.32-.83 4.67 4.67 0 0 0-.27-.49 2 2 0 0 0-.24-.33c-.19-.24-.39-.46-.58-.66l-.29-.29c-.09-.09-.2-.19-.3-.27l-.26-.23-.17-.12a2.18 2.18 0 0 0-.31-.22 2.7 2.7 0 0 0-.33-.22l-.32-.19-.3-.15a6.8 6.8 0 0 0-1-.37 1.63 1.63 0 0 0-.3-.07c-.19-.05-.39-.08-.58-.11h0-.39-.41-.41 0a2.56 2.56 0 0 0-.39 0h-.3-.21l-.63.14a9 9 0 0 0-1.59.62l-.47.23-.52.31-.23.14-.65.45-.34.26a3.54 3.54 0 0 0-.42.35l-.12.09-.33.31c-1.11-3.86-3.5-5-5.64-5.11a9.47 9.47 0 0 0-4.18.75s-1.85-10.54-12.32-12.88a10.27 10.27 0 0 0-1.82-.28c-8.92-.59-11 10.68-11 10.68a13.37 13.37 0 0 0-2.34-2.23l.05 3.42a.78.78 0 0 1-.75.81H77a.8.8 0 0 1-.74-.77l-.15-4.36a4.65 4.65 0 0 0-1.42-.32 4.7 4.7 0 0 0-.65 0l.17 4.43a.77.77 0 0 1-.74.81h-.07a.78.78 0 0 1-.73-.76l-.15-4a7 7 0 0 0-2.71 2.8 5.31 5.31 0 0 0-3.33-2.37 4.21 4.21 0 0 0-.71-.12h-.32a5.94 5.94 0 0 0-.94.06 5 5 0 0 0-3.64 2.06 8.21 8.21 0 0 0-1.42 4.09 4.24 4.24 0 0 0-1.72-.62c-2.14-.14-1.78 3.2-1.78 3.2a1.8 1.8 0 0 0-2.54-.3A1.77 1.77 0 0 0 53 45s-1.87-3-4.46-3.16a3.72 3.72 0 0 0-.94.06c-6.75 1.45-4.12 9.15-4.12 9.15a7.38 7.38 0 0 0-2-.42 4 4 0 0 0-2.13.39 4.42 4.42 0 0 0-2.1 2.9 10.15 10.15 0 0 0-.36 3c-.07.08-.12.17-.19.24-6.74 8.6 1.88 10.9 1.88 10.9a3.17 3.17 0 0 0-1 3.38s-4.22 4.24-2.17 6.32a4.07 4.07 0 0 0 2.69 1.35 5.09 5.09 0 0 0 3.55-1.43c-.57 2.83.68 3.39 1.59 3.45a2.45 2.45 0 0 0 .81-.07c-.61 2.25-.11 3.2.53 3.63a1.81 1.81 0 0 0 .88.26 1.55 1.55 0 0 0 .48 0l.3-.13c3.9-1.76 2.77-5.19 2.77-5.19a3.24 3.24 0 0 0 2.88-3.09 10.7 10.7 0 0 0 5.64 2.33 7.42 7.42 0 0 0 6.37-3.1c1.41 2.3 3 3 4.26 3.08a4.5 4.5 0 0 0 2.51-.6c.9 1.79 1.83 2.4 2.66 2.45a3.26 3.26 0 0 0 2.42-1.38s.28 5.6 8.2 8.44a12.71 12.71 0 0 0 3.4.71c7.7.48 13.56-6.39 13.56-6.39 1.16 3 2.53 4 3.8 4 2.2.14 4.12-2.49 4.12-2.49 1.12 2.07 2.24 2.8 3.22 2.86 1.84.13 3.2-2.09 3.2-2.09 3.88 6.53 7.21 8.37 9.63 8.53a5.34 5.34 0 0 0 4.29-1.79 6.5 6.5 0 0 0 .5.94 3.09 3.09 0 0 0 2 1.57h.32a3.27 3.27 0 0 0 2.16-.82s1.74 3.43 3.71 3.55a2.2 2.2 0 0 0 1.93-1.14 3.87 3.87 0 0 0-1.06-5.81 6.52 6.52 0 0 0 6.84-6.33c.79-8.06-5.16-9.26-5.16-9.26zM52.3 66.45h0c-.4 0-4.69-.36-6.62-2.76a3.48 3.48 0 0 1-.34-.51h0a3.32 3.32 0 0 1-.52-2.18 2.62 2.62 0 0 1 .19-.78 4.47 4.47 0 0 1 .33-.7 3.85 3.85 0 0 1 .73-.88.79.79 0 0 1 1 1.18 1.92 1.92 0 0 0-.38.43 2 2 0 0 0-.32 1.61 2.44 2.44 0 0 0 .48.86 5.33 5.33 0 0 0 2.53 1.6h0a11.37 11.37 0 0 0 2.95.6.8.8 0 0 1 .81.76.79.79 0 0 1-.77.81.38.38 0 0 1-.15 0zm9.51 7.31a1.19 1.19 0 0 1-.08.16c-.63 1.09-2.52 1.19-4.21.21a4.58 4.58 0 0 1-1.06-.79 3.47 3.47 0 0 1-1-1.66 1.78 1.78 0 0 1 .15-1.28c.64-1.1 2.52-1.19 4.21-.21a4.46 4.46 0 0 1 1.91 2 2 2 0 0 1 .08 1.57zm2.64-2.21c-.32.54-1.26.58-2.11.1s-1.27-1.33-1-1.87 1.26-.64 2.11-.11 1.28 1.31 1 1.86zm2.19-18.65a7.63 7.63 0 0 1-4 1.09h-.33a3.67 3.67 0 0 1-1.4-.46 3.72 3.72 0 0 1-1.14-1 4.83 4.83 0 0 1-.44-.67 7 7 0 0 1-.34-.74 8.56 8.56 0 0 1-.5-2.4.79.79 0 1 1 1.57-.05 6.62 6.62 0 0 0 .22 1.32 4.75 4.75 0 0 0 .28.8 3.68 3.68 0 0 0 .39.7 2.54 2.54 0 0 0 .76.7 3.33 3.33 0 0 0 2.81 0h0a11.15 11.15 0 0 0 1.33-.58.78.78 0 1 1 .73 1.38h0zm18.91 16.8a.79.79 0 0 1-.67.3.73.73 0 0 1-.43-.16L82.05 68a9.68 9.68 0 0 1-3.16 1.19L77.26 72a.76.76 0 0 1-.74.39 1 1 0 0 1-.34-.09.8.8 0 0 1-.29-1.08L77 69.33h-.41a11 11 0 0 1-2.2-.38C70.3 67.8 68.66 65.7 68 64.1a6 6 0 0 1-.41-3.31.78.78 0 0 1 .93-.6.77.77 0 0 1 .61.9h0c0 .21-.78 4.51 5.7 6.32A8.43 8.43 0 0 0 84 64.26a.78.78 0 0 1 1.1-.15.79.79 0 0 1 .21 1 9.67 9.67 0 0 1-1.86 1.92l2 1.53a.77.77 0 0 1 .14 1.1h0zM119 58.9a.84.84 0 0 1-.4.34 1.64 1.64 0 0 1-.79.12 2 2 0 0 1-.59-.11.73.73 0 0 1-.25-.08 3.76 3.76 0 0 1-.62-.27c-1.09-.64-1.68-1.66-1.28-2.29a1.34 1.34 0 0 1 1.41-.43 2.58 2.58 0 0 1 .81.23h0a2 2 0 0 1 .42.2 3.64 3.64 0 0 1 .46.3 3.69 3.69 0 0 1 .41.38 1.43 1.43 0 0 1 .42 1.59zm1.1-5.33a2.26 2.26 0 0 1-2.26.84 4.54 4.54 0 0 1-.82-.14 5.41 5.41 0 0 1-.8-.28 6 6 0 0 1-.81-.39c-1.94-1.11-3-2.93-2.32-4.07.46-.8 1.66-1 3-.71h0a5.28 5.28 0 0 1 .77.24 5.74 5.74 0 0 1 .79.38l.12.06c1.93 1.11 3 2.92 2.32 4.06zm13.48 31a7.62 7.62 0 0 1-3.46.61 7.74 7.74 0 0 1-4.53-1.9.78.78 0 0 1 0-1.11.79.79 0 0 1 1 0 6 6 0 0 0 6.31 1c3.48-1.44 2.86-5.2 2.84-5.36a.78.78 0 0 1 1.54-.29 6.4 6.4 0 0 1-3.78 7.09z"
    fill="#d6ba9b" />
  <path
    d="M61.81 73.76a1.19 1.19 0 0 1-.08.16c-.63 1.09-2.52 1.19-4.21.21a4.58 4.58 0 0 1-1.06-.79 3.47 3.47 0 0 1-1-1.66 1.78 1.78 0 0 1 .15-1.28c.64-1.1 2.52-1.19 4.21-.21a4.46 4.46 0 0 1 1.91 2 2 2 0 0 1 .08 1.57zm58.32-20.2a2.28 2.28 0 0 1-2.26.84 5.64 5.64 0 0 1-.82-.15 5.79 5.79 0 0 1-.8-.27 7.55 7.55 0 0 1-.81-.39c-1.94-1.12-3-2.94-2.32-4.07.46-.8 1.66-1 3-.72h0a6.91 6.91 0 0 1 .77.25 5.19 5.19 0 0 1 .79.37l.12.07c1.94 1.12 2.96 2.93 2.33 4.07zM119 58.88a.74.74 0 0 1-.4.34 1.53 1.53 0 0 1-.79.12 1.71 1.71 0 0 1-.59-.11.72.72 0 0 1-.25-.07 2.8 2.8 0 0 1-.61-.28c-1.1-.63-1.68-1.65-1.29-2.28a1.33 1.33 0 0 1 1.41-.44 3.26 3.26 0 0 1 .81.23h0a2.71 2.71 0 0 1 .42.2 2.85 2.85 0 0 1 .46.31 2.46 2.46 0 0 1 .41.38 1.41 1.41 0 0 1 .42 1.6zM64.45 71.53c-.32.54-1.26.59-2.1.1s-1.28-1.33-1-1.86 1.26-.64 2.11-.11 1.31 1.34.99 1.87z"
    fill="#e8dccd" />
  <path
    d="M66.64 52.89a7.62 7.62 0 0 1-4 1.08h-.33a3.69 3.69 0 0 1-1.4-.47 3.6 3.6 0 0 1-1.14-1 4.3 4.3 0 0 1-.44-.67 5.56 5.56 0 0 1-.34-.74 8.14 8.14 0 0 1-.49-2.39.781.781 0 0 1 1.56-.06 7.28 7.28 0 0 0 .22 1.32 4.2 4.2 0 0 0 .28.8 3.76 3.76 0 0 0 .39.71 2.39 2.39 0 0 0 .76.69 3.29 3.29 0 0 0 2.81 0h0a9.28 9.28 0 0 0 1.33-.59.79.79 0 0 1 .74 1.39h0zm66.97 31.64a7.53 7.53 0 0 1-8-1.29.79.79 0 0 1 1.08-1.14 6 6 0 0 0 6.31 1c3.48-1.44 2.86-5.2 2.84-5.36a.78.78 0 0 1 .67-.88.79.79 0 0 1 .88.6 6.43 6.43 0 0 1-3.78 7.07zM53.16 65.71a.8.8 0 0 1-.83.74h0c-.4 0-4.69-.36-6.62-2.76a3.54 3.54 0 0 1-.35-.51h0a3.37 3.37 0 0 1-.51-2.18 3 3 0 0 1 .18-.78 4.52 4.52 0 0 1 .34-.7 3.85 3.85 0 0 1 .73-.88.79.79 0 0 1 1.11.11.78.78 0 0 1-.07 1.08 1.86 1.86 0 0 0-.37.42 2 2 0 0 0-.32.7 1.87 1.87 0 0 0 0 .91 2.58 2.58 0 0 0 .47.86 5.41 5.41 0 0 0 2.54 1.6h0a11.39 11.39 0 0 0 2.94.6.78.78 0 0 1 .76.79zm32.39 3.97a.77.77 0 0 1-.67.31.74.74 0 0 1-.43-.17L82.06 68a9.49 9.49 0 0 1-3.17 1.18L77.26 72a.79.79 0 0 1-.74.39.83.83 0 0 1-.34-.1.81.81 0 0 1-.29-1.08L77 69.32h-.4a11 11 0 0 1-2.21-.38C70.3 67.8 68.66 65.69 68 64.1a6 6 0 0 1-.41-3.31.784.784 0 0 1 1.54.3h0c0 .21-.79 4.51 5.69 6.33A8.42 8.42 0 0 0 84 64.24a.79.79 0 0 1 1.31.88A9.85 9.85 0 0 1 83.43 67l2 1.54a.78.78 0 0 1 .15 1.09z"
    fill="#3e2e2e" />
  <path d="M78.94 97a14.59 14.59 0 1 0-1.44 11 14.6 14.6 0 0 0 1.44-11zm-11 5.57a3.67 3.67 0 0 1-3.41 1.81 3.73 3.73 0 0 1-1.59-.48 3.67 3.67 0 1 1 5-1.33z" fill="#fff" />
  <path
    d="M80.49 96.53a16.12 16.12 0 1 0-1.61 12.24 16.15 16.15 0 0 0 1.61-12.24zm-3 11.45a14.65 14.65 0 0 1-26.82-3.56 14.45 14.45 0 0 1 1.45-11A14.66 14.66 0 0 1 79 96.93 14.45 14.45 0 0 1 77.49 108zM68 102.52a3.67 3.67 0 0 1-3.41 1.81 3.73 3.73 0 0 1-1.59-.48 3.67 3.67 0 1 1 5-1.33zm55.9-1.93a16.13 16.13 0 1 0-1.61 12.25 16.14 16.14 0 0 0 1.61-12.25zm-3 11.45a14.6 14.6 0 1 1-5.32-19.91 14.66 14.66 0 0 1 5.34 19.87z"
    fill="#3e2e2e" />
  <path d="M122.38 101a14.6 14.6 0 1 0-1.46 11 14.4 14.4 0 0 0 1.46-11zm-10.93 5.58a3.66 3.66 0 0 1-6.71-.89 3.58 3.58 0 0 1 .36-2.77 3.67 3.67 0 0 1 6.35 3.66z" fill="#fff" />
  <path
    d="M111.45 106.58a3.66 3.66 0 0 1-6.71-.89 3.58 3.58 0 0 1 .36-2.77 3.67 3.67 0 0 1 6.35 3.66zm-11.22 25.61a9.26 9.26 0 0 1-8 5.73 8.9 8.9 0 0 1-1.55 0 6.17 6.17 0 0 1-5.3-3.51 6.16 6.16 0 0 1-5.86 3 8.57 8.57 0 0 1-1.32-.19 9.22 9.22 0 0 1-7.36-6.52.78.78 0 0 1 .58-.94h0a.79.79 0 0 1 .94.6 7.75 7.75 0 0 0 6.17 5.32 4.91 4.91 0 0 0 6.1-3.34.57.57 0 0 0 0-.14h0a.06.06 0 0 1 0 0l-.07-8.42a10.14 10.14 0 0 1-4-2.67c-2-2-4.67-5.55-4.25-7.33.69-2.58 3.82-3.78 8.69-3.36 1.44 0 8.18 0 8.67 3.13s-4 9.31-7.48 10.22h0l.07 8.32v.16a4.86 4.86 0 0 0 4.51 4.14 7.43 7.43 0 0 0 1.25 0 7.7 7.7 0 0 0 6.67-4.66.8.8 0 0 1 1-.51.79.79 0 0 1 .54.97z"
    fill="#3e2e2e" />
  <g fill="#e38569">
    <ellipse cx="112.91" cy="127.45" rx="8.32" ry="4.73" transform="matrix(.999484 -.032109 .032109 .999484 -4.04 3.7)" />
    <ellipse cx="57.68" cy="122.67" rx="4.72" ry="8.16" transform="matrix(.10852 -.994094 .994094 .10852 -70.52 166.69)" />
  </g>
</svg>