<svg xmlns="http://www.w3.org/2000/svg" viewBox="0 0 749.77 148.16" xmlns:v="https://vecta.io/nano"><path d="M56.16 148a33 33 0 0 1-12.36-3.1l-.54-.11a18.57 18.57 0 0 1-2.11 0H41c-3.67-.25-9.75-1.53-17.72-6.29C3.93 127-.92 110.39.8 99.69c1-6.37 7.3-22 10.55-29.89-.1-.11-.19-.24-.28-.36a6.32 6.32 0 0 1-1-2.53 6 6 0 0 1-1.1-1 9.29 9.29 0 0 1-1.18 0 7.73 7.73 0 0 1-5.14-2.51C.21 60.84.6 57 3.66 53.19a4.38 4.38 0 0 1 0-.51 9.05 9.05 0 0 1-2.91-4v-.07c-1-3-.18-6.38 2.39-9.94a14.43 14.43 0 0 1 .21-1.59c-1.79-5.95-8-29.36 3-36.11l.1-.07.1-.08A8.58 8.58 0 0 1 10.78 0a5.61 5.61 0 0 1 .59.06c2.13.15 7.61 1 14.29 5.43a45.36 45.36 0 0 1 10.69 10 8.66 8.66 0 0 1 3 .93 8.57 8.57 0 0 1 5.49-1.73H45a10.1 10.1 0 0 1 3.29.93c2.8-5.54 7.52-8.56 13-8.2a15.49 15.49 0 0 1 2.39.35 19.58 19.58 0 0 1 14 12 13.19 13.19 0 0 1 1.89 0h.11a9.46 9.46 0 0 1 6.64 3.37 12.78 12.78 0 0 1 4.85-1.27c1.16-.87 2.3-1.66 3.44-2.39 7.77-5 15.74-7.39 23.06-6.91a28.53 28.53 0 0 1 5.58.93 5.37 5.37 0 0 1 3.06 2c1.42 1.81 1.89 4.64 1.35 8.36a50.14 50.14 0 0 1-5.41 16.39 35.53 35.53 0 0 1-4.44 6.36 10.85 10.85 0 0 1-1.58 9.42c1.8 1.91 3.57 5.18 3 10.53-.48 4.57-2.81 7-4.9 8.18a7.68 7.68 0 0 1-1.52 5.71 5.83 5.83 0 0 1-5.16 2.71h0a6.1 6.1 0 0 1-2.69-.85l2.93 16.56c.5 2.16 3.77 18.53-7.62 31A45.4 45.4 0 0 1 85.77 141a56.63 56.63 0 0 1-13.41 4c-3.77 2.44-9 3.46-15.55 3z" fill="#3e2e2e"/><path d="M97.43 127.46c-8.58 9.41-15.73 11.82-23.72 13.54a19.13 19.13 0 0 0 1.64-2.26c.19-.31.37-.58.52-.8a.78.78 0 0 0-.15-1.1h0a.8.8 0 0 0-1.1.17l-.34.49-.25.4a13.1 13.1 0 0 1-3.21 3.7h0a11.2 11.2 0 0 1-1.93 1.18 18.69 18.69 0 0 1-7 1.7 44.44 44.44 0 0 1-4 0l-1.56-.1a33.27 33.27 0 0 1-8.33-1.65 17.57 17.57 0 0 1-2.94-1.31 9.06 9.06 0 0 1-3.54-3.16 1.26 1.26 0 0 1-.13-.26.79.79 0 0 0-1.48.55 7.35 7.35 0 0 0 2 2.6l-.71-.05c-2.91-.19-8.48-1.27-16.07-5.78-18.79-11.21-22-26.66-20.69-35a6 6 0 0 1 .14-.79l.1-.44a2.89 2.89 0 0 1 .11-.47c.11-.46.24-.95.38-1.48.05-.19.11-.38.17-.57a18.58 18.58 0 0 1 .32-1.09l.39-1.25.38-1.18A18.15 18.15 0 0 1 7 91.5c.11-.3.2-.61.32-.92a.52.52 0 0 1 .06-.16c.07-.22.15-.46.24-.7l1.31-3.61.38-1.11.21-.57.64-1.65.66-1.72.41-1 1.31-3.28.39-1 .35-.87a41.57 41.57 0 0 1 1-2.35l.37-.91.57-1.4c.1-.23.19-.46.27-.67a3.48 3.48 0 0 0 .72 0h.16l.15-.06c3.34-1.34 4.23-3.79 4.23-5.65a4.45 4.45 0 0 0 2-1.8 11.1 11.1 0 0 0 4.68 1.49 8.61 8.61 0 0 0 6.29-2.22A6.32 6.32 0 0 0 38 63.42a6.17 6.17 0 0 0 2-.2 4.31 4.31 0 0 0 3.21 2.06 3.63 3.63 0 0 0 1.54-.28c1 2.22 3.25 5.33 8.57 7.23a14.27 14.27 0 0 0 3.83.79c6 .4 10.83-3.08 13.27-5.26 1.12 1.85 2.51 2.84 4.12 3a5.75 5.75 0 0 0 4-1.56 4.78 4.78 0 0 0 3.34 2A4.47 4.47 0 0 0 85 70c3.19 4.79 6.47 7.33 9.76 7.55a6.78 6.78 0 0 0 4-1 4.9 4.9 0 0 0 1.51 1.32h0l1.07 5.52c0 .18.07.34.1.52l.88 4.89.14.73.56 3.14c0 .23.08.46.12.72l.77 4.48a2.34 2.34 0 0 0 0 .3v.11a1 1 0 0 0 .05.31.77.77 0 0 0 0 .15 1.86 1.86 0 0 0 0 .27c0 .29.08.49.1.58v.07s4.04 16.1-6.63 27.8zM124 23.35c-.59 4.09-2.85 14.18-9.53 21.38a9.62 9.62 0 0 0-1.67-1.93 7.88 7.88 0 0 0-4.8-1.91 9.26 9.26 0 0 0-2.52.18 2.84 2.84 0 0 0-.22-.34 3.35 3.35 0 0 0-1.45-1.1 2.77 2.77 0 0 0-.43-1.53 2.58 2.58 0 0 0-2.05-1.1 5.61 5.61 0 0 0-1.29.09c.17-2.57.2-6.34-1.16-8.72a.64.64 0 0 0-.06-.11 4.3 4.3 0 0 0-.48-.72A9.42 9.42 0 0 0 94 24.36c5.51-4 14.07-8.71 23.39-8.09a23.9 23.9 0 0 1 5 .83s2.43.3 1.61 6.25zM11.06 3.78a5.32 5.32 0 0 0-2.76.35C1.18 8.51 3.8 24.91 6.52 34.64a6.22 6.22 0 0 1 .84-1.06 4.55 4.55 0 0 1 1.51-1h0a5.79 5.79 0 0 1 2.53-.44 9.14 9.14 0 0 1 .91-5.34 7 7 0 0 1 4.91-3.34 5 5 0 0 1 1.38-.1 7.18 7.18 0 0 1 4.67 2.58 3.1 3.1 0 0 1 1.24-.23 3.66 3.66 0 0 1 .83-1.64 3 3 0 0 1 2.41-.87 2.6 2.6 0 0 1 .4 0 9.19 9.19 0 0 1 .69-1.76 7.84 7.84 0 0 1 .91-1.38 6.52 6.52 0 0 1 3.62-2.26C25.19 7.36 15.79 4.1 11.06 3.78z" fill="#e8dccd"/><path d="M29.75 20.07a7.32 7.32 0 0 0-.91 1.38 9.19 9.19 0 0 0-.69 1.76 2.6 2.6 0 0 0-.4 0 3 3 0 0 0-2.41.87 3.66 3.66 0 0 0-.83 1.64 3.1 3.1 0 0 0-1.24.23 7.23 7.23 0 0 0-4.67-2.58 5.32 5.32 0 0 0-1.38.1 7 7 0 0 0-4.91 3.34 9.22 9.22 0 0 0-.91 5.34 5.65 5.65 0 0 0-2.53.44C6.22 23.77 4.19 12.86 10.28 9.1c1.88-1.1 10.57.84 19.47 10.97zm90.89 6.42c-.93 3.28-3 10.39-7.89 16.33a7.88 7.88 0 0 0-4.75-1.93 8.85 8.85 0 0 0-2.52.18 2 2 0 0 0-.22-.34 3.22 3.22 0 0 0-1.45-1.1 2.77 2.77 0 0 0-.43-1.53 2.58 2.58 0 0 0-2.05-1.1 5.61 5.61 0 0 0-1.29.09c.17-2.57.14-6.45-1.22-8.83 6.08-5.64 13.51-9.89 21.06-7.78-.01-.03 2.12 1.2.76 6.01z" fill="#e38569"/><path d="M110.35 56.83s4.72-3.28 4-8a.34.34 0 0 0 0-.24c0-.09-.07-.33-.12-.51a5.67 5.67 0 0 0-.2-.67l-.2-.48-.11-.23v-.07l-.18-.33a3.72 3.72 0 0 0-.22-.38l-.42-.63-.3-.39-.33-.37-.32-.32a.8.8 0 0 0-.17-.15h0a7.67 7.67 0 0 0-1.3-.89l-.34-.15a6.09 6.09 0 0 0-1.32-.4h-.32-.1-.43a8.28 8.28 0 0 0-3.71.65c.49-2-1.52-2.26-2.07-2.29H102c.6-1.69 0-2.24-.8-2.29a7.61 7.61 0 0 0-3 .81s.2-1.43.27-3.21v-.48a5.45 5.45 0 0 0 0-1v-.52a6.23 6.23 0 0 0 0-1.06 4 4 0 0 0 0-.6l-.23-1.45c0-.14-.06-.27-.1-.41s-.14-.37-.14-.52a8.36 8.36 0 0 0-.32-.83 4.67 4.67 0 0 0-.27-.49 1.59 1.59 0 0 0-.25-.33 7.59 7.59 0 0 0-.58-.66 2.65 2.65 0 0 0-.29-.29 2.61 2.61 0 0 0-.3-.27l-.26-.23-.21-.15a2.1 2.1 0 0 0-.3-.22l-.34-.22-.31-.19-.31-.15a6.68 6.68 0 0 0-1-.37 1.55 1.55 0 0 0-.31-.07 5.4 5.4 0 0 0-.58-.11h0-.39-.41-.4 0a2.38 2.38 0 0 0-.39 0h-.31-.2l-.64.14a9 9 0 0 0-1.59.62l-.47.23-.51.31-.24.14-.64.45-.34.26a3.65 3.65 0 0 0-.43.35l-.11.09a4.33 4.33 0 0 0-.33.31c-1.11-3.86-3.5-5-5.65-5.12a9.67 9.67 0 0 0-4.18.76s-1.82-10.43-12.29-12.77a10 10 0 0 0-1.85-.28c-8.92-.59-11 10.68-11 10.68a14.11 14.11 0 0 0-2.34-2.23l.13 3.39a.79.79 0 0 1-.75.81h-.1a.78.78 0 0 1-.74-.76L46 18.7a4.43 4.43 0 0 0-2-.31l.16 4.43a.77.77 0 0 1-.74.81h-.07a.79.79 0 0 1-.73-.77l-.15-4a7 7 0 0 0-2.71 2.8 5.29 5.29 0 0 0-3.32-2.37 4.39 4.39 0 0 0-.71-.12h-.33a5.81 5.81 0 0 0-.93.06 5 5 0 0 0-3.64 2.06 8.22 8.22 0 0 0-1.43 4.09 4.2 4.2 0 0 0-1.71-.62c-2.15-.14-1.79 3.2-1.79 3.2a1.79 1.79 0 0 0-2.53-.3A1.81 1.81 0 0 0 23 28s-1.87-3-4.45-3.16a3.77 3.77 0 0 0-.95.06c-6.75 1.45-4.12 9.15-4.12 9.15a7.3 7.3 0 0 0-2-.42 4 4 0 0 0-2.13.39A4.44 4.44 0 0 0 7.25 37a9.83 9.83 0 0 0-.36 3l-.19.24C0 48.8 8.57 51.1 8.57 51.1a3.17 3.17 0 0 0-1 3.38s-4.26 4.24-2.21 6.32a4.09 4.09 0 0 0 2.7 1.35 5.13 5.13 0 0 0 3.55-1.43c-.58 2.83.67 3.39 1.58 3.45a2.85 2.85 0 0 0 .81-.07c-.62 2.25-.12 3.2.52 3.63a1.84 1.84 0 0 0 .88.26 1.55 1.55 0 0 0 .48 0l.31-.13c3.9-1.78 2.81-5.21 2.81-5.21a3.25 3.25 0 0 0 2.88-3.09 10.63 10.63 0 0 0 5.64 2.33 7.4 7.4 0 0 0 6.36-3.1c1.41 2.3 3 3 4.26 3.08a4.5 4.5 0 0 0 2.51-.6c.91 1.79 1.84 2.4 2.66 2.45a3.26 3.26 0 0 0 2.42-1.38s.28 5.6 8.2 8.44a12.8 12.8 0 0 0 3.4.71C65 72 70.86 65.1 70.86 65.1c1.16 3 2.54 4 3.8 4 2.21.14 4.12-2.49 4.12-2.49 1.13 2.07 2.24 2.8 3.22 2.86 1.84.13 3.2-2.09 3.2-2.09 3.88 6.62 7.21 8.41 9.64 8.62a5.33 5.33 0 0 0 4.28-1.79 6.5 6.5 0 0 0 .5.94 3.08 3.08 0 0 0 2 1.57h.31a3.25 3.25 0 0 0 2.16-.82s1.74 3.43 3.71 3.55a2.22 2.22 0 0 0 1.93-1.14 3.87 3.87 0 0 0-1.06-5.81 6.52 6.52 0 0 0 6.84-6.33c.79-8.17-5.16-9.34-5.16-9.34zm-88.12-7.35h0c-.39 0-4.69-.36-6.61-2.76a2.89 2.89 0 0 1-.35-.51h0a3.38 3.38 0 0 1-.52-2.21 3 3 0 0 1 .19-.78 4.09 4.09 0 0 1 .33-.7 3.89 3.89 0 0 1 .74-.88.79.79 0 0 1 1.11.1.8.8 0 0 1-.07 1.08 1.88 1.88 0 0 0-.37.43 2.25 2.25 0 0 0-.33.7 2 2 0 0 0 0 .91 2.6 2.6 0 0 0 .48.86 5.46 5.46 0 0 0 2.53 1.6h0a11.37 11.37 0 0 0 2.95.6.79.79 0 0 1 .05 1.57.38.38 0 0 1-.15 0zm9.51 7.31a1.19 1.19 0 0 1-.08.16c-.63 1.09-2.52 1.19-4.21.21a4.8 4.8 0 0 1-1.06-.79 3.55 3.55 0 0 1-1-1.66 1.78 1.78 0 0 1 .16-1.28c.63-1.1 2.51-1.19 4.21-.21a4.57 4.57 0 0 1 1.91 2 2 2 0 0 1 .07 1.57zm2.64-2.21c-.31.54-1.26.58-2.1.1s-1.28-1.33-1-1.87 1.25-.64 2.1-.11 1.28 1.31 1 1.86zm2.19-18.65a7.61 7.61 0 0 1-4 1.09 1.66 1.66 0 0 1-.32 0 3.66 3.66 0 0 1-1.41-.46 3.84 3.84 0 0 1-1.14-1 6 6 0 0 1-.44-.67 7 7 0 0 1-.26-.79 8.2 8.2 0 0 1-.49-2.4.78.78 0 1 1 1.49-.05 7.43 7.43 0 0 0 .24 1.35 5.84 5.84 0 0 0 .28.8 4.33 4.33 0 0 0 .39.7 2.54 2.54 0 0 0 .76.7 3.33 3.33 0 0 0 2.81 0h0a10.49 10.49 0 0 0 1.33-.58.78.78 0 1 1 .74 1.38h0zm18.91 16.8a.79.79 0 0 1-.67.3.73.73 0 0 1-.43-.16L52 51a9.73 9.73 0 0 1-3.17 1.19l-1.63 2.86a.76.76 0 0 1-.75.39 1.07 1.07 0 0 1-.34-.09.8.8 0 0 1-.28-1.08l1.1-1.91h-.4a10.77 10.77 0 0 1-2.2-.38c-4.1-1.15-5.74-3.25-6.4-4.85a6 6 0 0 1-.41-3.31.79.79 0 0 1 .93-.6.77.77 0 0 1 .61.9h0c0 .21-.79 4.51 5.7 6.32a8.41 8.41 0 0 0 9.14-3.15.79.79 0 0 1 1.31.87 9.9 9.9 0 0 1-1.85 1.92l2 1.53a.79.79 0 0 1 .14 1.1h0zM89 41.93a.86.86 0 0 1-.39.34 1.66 1.66 0 0 1-.79.12 2 2 0 0 1-.6-.11.73.73 0 0 1-.25-.08 3.33 3.33 0 0 1-.61-.27c-1.1-.64-1.68-1.66-1.29-2.29a1.34 1.34 0 0 1 1.41-.43 2.58 2.58 0 0 1 .81.23h0a2.39 2.39 0 0 1 .43.2 4.53 4.53 0 0 1 .46.3 3.59 3.59 0 0 1 .4.38 1.42 1.42 0 0 1 .42 1.59zm1.11-5.33a2.29 2.29 0 0 1-2.27.84 4.54 4.54 0 0 1-.84-.14 5.84 5.84 0 0 1-.8-.28 6 6 0 0 1-.81-.39c-1.94-1.11-3-2.93-2.32-4.07.47-.8 1.66-1 3-.71h0a5.81 5.81 0 0 1 .78.24 5.62 5.62 0 0 1 .78.38l.12.06c1.93 1.11 3 2.92 2.33 4.06zm13.47 31a7.6 7.6 0 0 1-3.46.61 7.8 7.8 0 0 1-4.53-1.9.79.79 0 0 1 0-1.11.78.78 0 0 1 1 0 6.05 6.05 0 0 0 6.31 1c3.49-1.44 2.86-5.2 2.84-5.36a.79.79 0 0 1 .67-.89.8.8 0 0 1 .88.6 6.41 6.41 0 0 1-3.79 7.09z" fill="#d6ba9b"/><path d="M31.74 56.79a1.19 1.19 0 0 1-.08.16c-.63 1.09-2.52 1.19-4.21.21a4.8 4.8 0 0 1-1.06-.79 3.55 3.55 0 0 1-1-1.66 1.78 1.78 0 0 1 .16-1.28c.63-1.1 2.51-1.19 4.21-.21a4.57 4.57 0 0 1 1.91 2 2 2 0 0 1 .07 1.57zm58.33-20.2a2.31 2.31 0 0 1-2.27.84 5.64 5.64 0 0 1-.82-.15 5.79 5.79 0 0 1-.8-.27 6.09 6.09 0 0 1-.81-.4c-1.93-1.11-3-2.93-2.31-4.06.46-.8 1.65-1 3-.72h0a7.08 7.08 0 0 1 .78.25 5.56 5.56 0 0 1 .78.37l.12.07c1.93 1.12 2.95 2.93 2.33 4.07zM89 41.91a.76.76 0 0 1-.39.34 1.53 1.53 0 0 1-.79.12 1.73 1.73 0 0 1-.6-.11.72.72 0 0 1-.25-.07 2.8 2.8 0 0 1-.61-.28c-1.09-.63-1.68-1.65-1.29-2.28a1.33 1.33 0 0 1 1.41-.44 3.26 3.26 0 0 1 .81.23h0a3.27 3.27 0 0 1 .89.51 2.86 2.86 0 0 1 .4.38 1.41 1.41 0 0 1 .42 1.6zM34.38 54.56c-.31.54-1.26.59-2.1.1s-1.28-1.33-1-1.87 1.25-.63 2.1-.1 1.32 1.31 1 1.87z" fill="#e8dccd"/><path d="M36.57 35.92a7.6 7.6 0 0 1-4 1.08h-.32a3.68 3.68 0 0 1-1.41-.47 3.83 3.83 0 0 1-1.14-1 5.16 5.16 0 0 1-.44-.67 4.5 4.5 0 0 1-.33-.74 7.84 7.84 0 0 1-.5-2.39.787.787 0 0 1 1.57-.1 7.28 7.28 0 0 0 .24 1.37 5 5 0 0 0 .28.8 4.43 4.43 0 0 0 .39.71 2.39 2.39 0 0 0 .76.69 3.29 3.29 0 0 0 2.81 0h0a9.28 9.28 0 0 0 1.33-.59.79.79 0 0 1 .74 1.39h0zm66.97 31.64a7.53 7.53 0 0 1-8-1.29.8.8 0 0 1 0-1.12.79.79 0 0 1 1 0 6 6 0 0 0 6.31 1c3.49-1.44 2.86-5.2 2.84-5.36a.79.79 0 0 1 1.55-.28 6.41 6.41 0 0 1-3.7 7.05zM23.09 48.74a.8.8 0 0 1-.83.74h0c-.39 0-4.69-.36-6.62-2.76a3.48 3.48 0 0 1-.34-.51h0a3.38 3.38 0 0 1-.52-2.21 3 3 0 0 1 .19-.78 4.47 4.47 0 0 1 .33-.7 4.12 4.12 0 0 1 .73-.88.79.79 0 0 1 1 1.19 1.9 1.9 0 0 0-.38.42 2 2 0 0 0-.32 1.61 2.44 2.44 0 0 0 .48.86 5.33 5.33 0 0 0 2.53 1.6h0a11.37 11.37 0 0 0 2.95.6.78.78 0 0 1 .8.82zm32.39 3.97a.76.76 0 0 1-.67.31.77.77 0 0 1-.43-.17L52 51a9.71 9.71 0 0 1-3.17 1.18L47.2 55a.8.8 0 0 1-.75.39.78.78 0 0 1-.62-1.18l1.1-1.9h-.4a10.89 10.89 0 0 1-2.2-.38c-4.09-1.14-5.74-3.25-6.39-4.84a6 6 0 0 1-.42-3.31.79.79 0 0 1 .93-.61.78.78 0 0 1 .61.91h0c0 .21-.79 4.51 5.7 6.33a8.4 8.4 0 0 0 9.14-3.16.79.79 0 0 1 1.31.88 9.85 9.85 0 0 1-1.85 1.91l2 1.54a.78.78 0 0 1 .15 1.09z" fill="#3e2e2e"/><path d="M48.88 80a14.6 14.6 0 1 0-1.45 11 14.6 14.6 0 0 0 1.45-11zm-11 5.57a3.69 3.69 0 0 1-5 1.33 3.65 3.65 0 1 1 5.4-4.07 3.61 3.61 0 0 1-.39 2.74z" fill="#fff"/><path d="M50.43 79.56a16.14 16.14 0 1 0-1.62 12.24 16.16 16.16 0 0 0 1.62-12.24zM47.45 91a14.66 14.66 0 0 1-26.83-3.56 14.45 14.45 0 0 1 1.45-11A14.66 14.66 0 0 1 48.89 80a14.45 14.45 0 0 1-1.47 11zm-9.54-5.45a3.69 3.69 0 0 1-5 1.33 3.65 3.65 0 1 1 5.4-4.07 3.61 3.61 0 0 1-.4 2.74zm55.93-1.93a16.12 16.12 0 1 0-1.61 12.25 16.15 16.15 0 0 0 1.61-12.25zm-3 11.45a14.6 14.6 0 1 1-5.33-19.91 14.67 14.67 0 0 1 5.35 19.91z" fill="#3e2e2e"/><path d="M92.31 84a14.6 14.6 0 1 0-1.45 11 14.4 14.4 0 0 0 1.45-11zm-10.93 5.61a3.66 3.66 0 0 1-6.71-.89A3.58 3.58 0 0 1 75 86a3.67 3.67 0 0 1 6.35 3.66z" fill="#fff"/><path d="M81.38 89.61a3.66 3.66 0 0 1-6.71-.89A3.58 3.58 0 0 1 75 86a3.67 3.67 0 0 1 6.35 3.66zm-11.21 25.61a9.28 9.28 0 0 1-8 5.73 9 9 0 0 1-1.56 0 6.15 6.15 0 0 1-5.29-3.51 6.19 6.19 0 0 1-5.87 3 8.27 8.27 0 0 1-1.31-.19 9.26 9.26 0 0 1-7.37-6.52.79.79 0 0 1 .59-.94h0a.79.79 0 0 1 .94.6 7.75 7.75 0 0 0 6.18 5.32 4.92 4.92 0 0 0 6.1-3.34v-.14h0 0l-.07-8.42a10.21 10.21 0 0 1-4-2.67c-2-2-4.67-5.55-4.25-7.33.64-2.58 3.81-3.81 8.74-3.36 1.43 0 8.18 0 8.66 3.13s-4 9.31-7.48 10.22h0l.07 8.32a.94.94 0 0 1 0 .16 4.88 4.88 0 0 0 4.51 4.14 7.58 7.58 0 0 0 1.26 0 7.71 7.71 0 0 0 6.67-4.66.79.79 0 0 1 1-.51.81.81 0 0 1 .48.97z" fill="#3e2e2e"/><g fill="#e38569"><ellipse cx="82.85" cy="110.48" rx="8.32" ry="4.73" transform="matrix(.999484 -.032109 .032109 .999484 -3.51 2.72)"/><ellipse cx="27.61" cy="105.7" rx="4.72" ry="8.16" transform="matrix(.10852 -.994094 .994094 .10852 -80.46 121.68)"/></g><path d="M303.34 61.91a10.84 10.84 0 0 0-6.94-2.48h0A10.13 10.13 0 0 0 291 61a10.68 10.68 0 0 0-4 4.59l-6.77 14.24-4.52-14a9.61 9.61 0 0 0-3.52-4.83 9.29 9.29 0 0 0-5.36-1.65h0a12.05 12.05 0 0 0-7.75 2.85 9.56 9.56 0 0 0-3.67 6.1 15.85 15.85 0 0 0-3.15-3.85c-3.84-3.39-9.51-5.11-16.86-5.11-6.92 0-12.86 1.35-17.66 4a10.34 10.34 0 0 0-4 3.67 2.12 2.12 0 0 0-.11.21l1.24-15.49c.3-4.33-1.44-6.78-3-8.08a11.06 11.06 0 0 0-7.41-2.59h-.35a12 12 0 0 0-7.34 2.52 10.34 10.34 0 0 0-3.74 7.7l-.21 2.59a18.79 18.79 0 0 0-4.8-6.58c-4.3-3.84-10.25-5.78-17.67-5.78h-21.64a11 11 0 0 0-7.7 2.74 11.35 11.35 0 0 0-3.45 7.57l-3.72 47.46a10 10 0 0 0 2.49 8.25 10.45 10.45 0 0 0 7.95 3.12h0a11.61 11.61 0 0 0 8.19-3 11.92 11.92 0 0 0 3.66-8l.94-12.23h11.53c8.2 0 14.65-2.13 19.17-6.3a19.93 19.93 0 0 0 3.23-3.77l-1.82 22.78c-.31 4.19 1.43 6.62 3 7.92a11.09 11.09 0 0 0 7.39 2.58h.36a12 12 0 0 0 7.32-2.52 9.84 9.84 0 0 0 3.65-6.68 14.67 14.67 0 0 0 1 1.71 16.37 16.37 0 0 0 6.71 5.69 20.84 20.84 0 0 0 8.82 2h.5a17 17 0 0 0 7.89-2 14.19 14.19 0 0 0 2.28-1.53 9.28 9.28 0 0 0 .93 1 10 10 0 0 0 6.45 2.36h.33a11 11 0 0 0 7.49-2.66 10.63 10.63 0 0 0 3.38-7.36L258.1 83c.07-.8.1-1.87.1-3.17v-.81l9.05 25.31-4 8.06a11.1 11.1 0 0 0-1.22 4.95 8.91 8.91 0 0 0 2.8 6.68 9.23 9.23 0 0 0 6.53 2.68v-3l.08 3a9.73 9.73 0 0 0 5.32-1.59 11.79 11.79 0 0 0 3.89-4.45l24.94-47.49a9.82 9.82 0 0 0 1.16-4.42 8.65 8.65 0 0 0-3.41-6.84zm-144-2.07h8.81c2 0 3.57.36 4.38 1.06a4.09 4.09 0 0 1 1 3.22c0 2.46-.5 5.08-6.51 5.08h-8.47zm71.49 34a.85.85 0 0 1-.29-.68v-.11c0-.88.27-1 .58-1.17.55-.27 1.92-.7 5.13-.79a5.64 5.64 0 0 1-1.2 1.91 3.69 3.69 0 0 1-2.8 1.25H232a1.91 1.91 0 0 1-1.21-.39zm-5-15.31a25.47 25.47 0 0 1 7.59-1.66c1.72 0 3 .32 3.5.89h0a75.57 75.57 0 0 0-11.14.79zM213 75a7.91 7.91 0 0 0 1.57 2.36 7.78 7.78 0 0 0 5.68 2.47h0a16.46 16.46 0 0 0-7.81 5c-.11.14-.2.28-.3.41zm241.18-15.65h-.34A24.92 24.92 0 0 0 441 62.89a24.52 24.52 0 0 0-9.16 9.76l-.34.72a21.42 21.42 0 0 0-4.32-7.37c-4.09-4.44-9.81-6.69-16.95-6.69h-.33a24.92 24.92 0 0 0-12.81 3.55 24.78 24.78 0 0 0-2 1.33 7.09 7.09 0 0 0-1.62-2.42 8.36 8.36 0 0 0-6.05-2.3h-.79l-1 .09a19.49 19.49 0 0 0-7.75 2.22 21.34 21.34 0 0 0-2.94 1.79 8.25 8.25 0 0 0-1.28-1.55 9.71 9.71 0 0 0-6.95-2.56h-.18a12.06 12.06 0 0 0-7.35 2.54 10 10 0 0 0-3.73 6c-1.49-1.25-3.76-2.15-7.19-2.15h-16.38l.42-5.55h18.54c3.58 0 6.24-.74 8.13-2.25 2.07-1.66 3.12-4.18 3.12-7.5 0-2.71-1-9-10.19-9H322a11 11 0 0 0-7.71 2.74 11.34 11.34 0 0 0-3.44 7.57l-3.73 47.45a10 10 0 0 0 2.53 8.21 10.38 10.38 0 0 0 7.87 3.17h.35a11.32 11.32 0 0 0 7.75-3 12 12 0 0 0 3.64-7.89l1.2-15.08H347a14.17 14.17 0 0 0 7.08-1.52l-1.38 17a9 9 0 0 0 2.95 7.92 11.11 11.11 0 0 0 7.41 2.58h.35a12 12 0 0 0 7.33-2.52 10.09 10.09 0 0 0 3.75-7.52l1.24-15.13c.3-3 1.05-4.22 1.47-4.65s1.51-1.2 5-1.64l2.37-.26c.33 0 .65-.07 1-.12a29.05 29.05 0 0 0-.89 7.53 24.17 24.17 0 0 0 3.43 12.9 22.86 22.86 0 0 0 9.56 8.62 30.7 30.7 0 0 0 13.71 3h.19a35.75 35.75 0 0 0 8-.91 24.7 24.7 0 0 0 6.76-2.5 8.84 8.84 0 0 0 3.72-4 11.12 11.12 0 0 0 1.1-4.77 7.91 7.91 0 0 0-.06-1.19c.3.6.61 1.18.95 1.74a22.88 22.88 0 0 0 9.56 8.63 30.66 30.66 0 0 0 13.7 3h.2a35.89 35.89 0 0 0 8-.91 25 25 0 0 0 6.76-2.5 8.92 8.92 0 0 0 3.72-4 11.11 11.11 0 0 0 1.09-4.77 9.12 9.12 0 0 0-1.66-5.46 6.69 6.69 0 0 0-2.26-2 7.06 7.06 0 0 0 3.9-1.86l.14-.13A7.23 7.23 0 0 0 477.2 84c0-7.58-2-13.64-6.06-18s-9.82-6.65-16.96-6.65zm-41.26 33.93h-.37c-2.65 0-4.41-.61-5.47-2h13.24l-.31.14a40.82 40.82 0 0 1-4 1.48 12.88 12.88 0 0 1-3.09.38zm.2-16.37a3.31 3.31 0 0 1 .53.91h-6.54a3.79 3.79 0 0 1 .59-.78 3.84 3.84 0 0 1 3-1 2.77 2.77 0 0 1 2.42.87zm16.4 16.3a6.53 6.53 0 0 0-2.26-2 6.62 6.62 0 0 0 1.75-.5c.14.85.3 1.68.51 2.49zm27.35.07h-.36c-2.65 0-4.41-.61-5.48-2h13.24l-.3.14a41 41 0 0 1-4 1.48 12.88 12.88 0 0 1-3.1.38zm.19-16.37a3.56 3.56 0 0 1 .52.91H451a5.43 5.43 0 0 1 .39-.56l.22-.22a3.84 3.84 0 0 1 3-1 2.78 2.78 0 0 1 2.45.87zm290.45-15.12a8.34 8.34 0 0 0-6-2.29h-.78l-1 .09a19.54 19.54 0 0 0-7.75 2.22 21.34 21.34 0 0 0-2.98 1.82 8.18 8.18 0 0 0-1.28-1.55 9.7 9.7 0 0 0-6.94-2.56h-.19a12.11 12.11 0 0 0-7.37 2.48 10.29 10.29 0 0 0-4 7.48l-.33 4.07A21.32 21.32 0 0 0 704.5 66c-4.1-4.44-9.82-6.69-17-6.69h-.34a24.92 24.92 0 0 0-12.81 3.55 24.5 24.5 0 0 0-9.15 9.76c-.17.31-.31.63-.46.95a17.75 17.75 0 0 0-4-9.17c-3-3.37-7.31-5.08-12.77-5.09h-.2a22.47 22.47 0 0 0-9.33 2 21.86 21.86 0 0 0-5 3.17 15 15 0 0 0-3.83-3 18 18 0 0 0-8.49-2.14h-.7a22.31 22.31 0 0 0-8.22 1.57 19 19 0 0 0-3.56 2 8.5 8.5 0 0 0-1.51-1.42 10.51 10.51 0 0 0-6.08-1.93h-.43a12.36 12.36 0 0 0-7.39 2.44 10.35 10.35 0 0 0-4 7.49l-.55 6.73c-.61-5-2.5-8.94-5.7-11.76-3.84-3.39-9.51-5.11-16.86-5.11-6.92 0-12.86 1.35-17.66 4a10.41 10.41 0 0 0-4 3.67 9.1 9.1 0 0 0-1.4 4.72 7.91 7.91 0 0 0 2.23 5.64 7.79 7.79 0 0 0 5.68 2.47h0a16.46 16.46 0 0 0-7.81 5 11.59 11.59 0 0 0-.73 1l.64-8a8.31 8.31 0 0 0-2.18-6.58 8.64 8.64 0 0 0-6.48-2.47h-14.83a10 10 0 0 0-6.71 2.2 8.24 8.24 0 0 0-2.87 6.6c0 5.23 3.47 8.35 9.22 8.35h2.62l-.47 6a30.11 30.11 0 0 1-5.18.51c-4.72 0-8.06-1.17-10.21-3.57s-3.32-6.26-3.32-11.28c0-5.75 1.33-10.29 4-13.47s6-4.55 10.77-4.55h.6a26 26 0 0 1 6 .71 29.08 29.08 0 0 1 5.21 2 10.59 10.59 0 0 0 5.37 1.7h.11a8.64 8.64 0 0 0 6.5-2.94 9.51 9.51 0 0 0 2.56-6.55 9.94 9.94 0 0 0-1.49-5.17 12.08 12.08 0 0 0-4.1-3.91l-.14-.08a38.85 38.85 0 0 0-8.82-3.21 49.46 49.46 0 0 0-11.56-1.38h-.52a40.18 40.18 0 0 0-19.39 4.52 32 32 0 0 0-13.07 13 39.67 39.67 0 0 0-4.54 19.29 36.23 36.23 0 0 0 4.08 17.53 28.36 28.36 0 0 0 11.84 11.8 37.13 37.13 0 0 0 17.71 4h0a72.4 72.4 0 0 0 8.35-.51 58.35 58.35 0 0 0 8.09-1.45h.11a20.29 20.29 0 0 0 6.41-2.87 10.4 10.4 0 0 0 3.7-5.07c.14-.38.26-.79.38-1.22a14.51 14.51 0 0 0 1.69 3.39 16.49 16.49 0 0 0 6.71 5.68 20.85 20.85 0 0 0 8.83 2h.49a17 17 0 0 0 7.89-2 13.76 13.76 0 0 0 2.28-1.53 9.36 9.36 0 0 0 .94 1 10 10 0 0 0 6.44 2.36h.33A11 11 0 0 0 584 108a9.9 9.9 0 0 0 2.9-4.73 8.51 8.51 0 0 0 2.77 4.82 11.13 11.13 0 0 0 7.41 2.58h.36a12 12 0 0 0 7.33-2.52 10.11 10.11 0 0 0 3.74-7.52L609.83 84c.32-3.49 1.11-5 1.56-5.54a2.85 2.85 0 0 1 2.61-1.05c.89 0 1.12.25 1.2.34s.8 1.1.61 4l-1.51 18.34c-.42 4.21 1.32 6.67 2.85 8a11.11 11.11 0 0 0 7.41 2.58h.37a12.17 12.17 0 0 0 7.29-2.45 10.37 10.37 0 0 0 3.78-7.62l1.36-16.6c.31-3.54 1.09-5 1.53-5.54a2.94 2.94 0 0 1 2.58-1c1 0 1.17.34 1.32.56a5.82 5.82 0 0 1 .49 3.55l-1.6 18.6a9 9 0 0 0 3 7.91 11.18 11.18 0 0 0 7.45 2.6h.39a12.13 12.13 0 0 0 7.3-2.47 10.13 10.13 0 0 0 3.7-7.56l.39-4.54a21.12 21.12 0 0 0 1.59 3.15 22.82 22.82 0 0 0 9.56 8.63 30.66 30.66 0 0 0 13.7 3h.19a35.91 35.91 0 0 0 8-.91 25 25 0 0 0 6.76-2.5 9 9 0 0 0 3.43-3.47 8.29 8.29 0 0 0 2.59 4.09 11 11 0 0 0 7.41 2.59h.36a12 12 0 0 0 7.32-2.52 10.09 10.09 0 0 0 3.75-7.52l1.24-15.13c.3-3 1.05-4.21 1.47-4.64s1.51-1.21 5-1.65l2.37-.26c3.64-.37 6.24-1.28 7.92-2.79a10.53 10.53 0 0 0 3.11-7.06c.44-3.89-.93-6.12-2.17-7.33zm-186 32.06a.84.84 0 0 1-.28-.67v-.11c0-.88.27-1 .58-1.17.55-.27 1.92-.7 5.13-.79a5.64 5.64 0 0 1-1.21 1.89 3.69 3.69 0 0 1-2.8 1.25h-.28a1.91 1.91 0 0 1-1.19-.4zm-5-15.3a25.47 25.47 0 0 1 7.59-1.66c1.72 0 3 .32 3.51.89h0a75.67 75.67 0 0 0-11.14.77zm133.73 14.73h-.36c-2.66 0-4.41-.61-5.48-2h13.24l-.3.14a42 42 0 0 1-4 1.48 12.88 12.88 0 0 1-3.1.38zm.21-16.37a3.56 3.56 0 0 1 .52.91h-6.54A3.79 3.79 0 0 1 685 77a3.83 3.83 0 0 1 3-1 2.83 2.83 0 0 1 2.45.91zm16.83 17c-.14-.23-.28-.46-.44-.68a6.57 6.57 0 0 0-2.25-2 7.11 7.11 0 0 0 3-1.15z" fill="#3e2e2e"/><g fill="#fff"><path d="M186.07 49.52q5.64 5 5.64 13.71 0 10.23-6 15.72-6 5.49-17.14 5.51h-14.3l-1.15 15a9 9 0 0 1-2.71 6 8.73 8.73 0 0 1-6.17 2.18 7.56 7.56 0 0 1-5.78-2.18 7.18 7.18 0 0 1-1.68-5.91l3.73-47.5a8.34 8.34 0 0 1 2.48-5.6 8.1 8.1 0 0 1 5.69-2h21.66q10.09.05 15.73 5.07zm-9.55 14.6c0-2.48-.69-4.32-2.08-5.5s-3.51-1.78-6.35-1.78h-11.56l-1.24 15.36H167q9.51 0 9.51-8.08zm17.54 41.65a6.12 6.12 0 0 1-1.91-5.42l3.91-48.84a7.43 7.43 0 0 1 2.62-5.59 8.93 8.93 0 0 1 5.73-1.87 8.19 8.19 0 0 1 5.59 1.87q2.16 1.86 1.91 5.59l-3.93 48.84a7.22 7.22 0 0 1-2.62 5.42 8.91 8.91 0 0 1-5.73 1.87 8.23 8.23 0 0 1-5.57-1.87zm56.21-39.07q4.93 4.35 4.93 13.14l-.09 2.93-1.42 17.58a7.72 7.72 0 0 1-2.4 5.38 8 8 0 0 1-5.59 1.91 7 7 0 0 1-4.8-1.65 6 6 0 0 1-2-4.3 11.08 11.08 0 0 1-4.53 4.52 13.77 13.77 0 0 1-6.75 1.6 17.56 17.56 0 0 1-7.77-1.69 13.48 13.48 0 0 1-5.5-4.65 11.66 11.66 0 0 1-2-6.62 12.53 12.53 0 0 1 2.49-8.13q2.47-3.06 7.9-4.48a58.48 58.48 0 0 1 14.38-1.42h3.2l.09-.62q.36-6.32-7-6.31-3.56 0-9.94 2.31a7.81 7.81 0 0 1-3 .62 4.74 4.74 0 0 1-3.64-1.51 5 5 0 0 1-1.42-3.55 6.1 6.1 0 0 1 .93-3.16 7.44 7.44 0 0 1 2.81-2.6q6.56-3.63 16.25-3.64 9.95-.02 14.87 4.34zM237.31 95a9.41 9.41 0 0 0 2.35-5.9l.09-1h-2.4q-5.34 0-7.59 1.11a3.94 3.94 0 0 0-2.26 3.86 3.87 3.87 0 0 0 1.28 3 4.94 4.94 0 0 0 3.43 1.16 6.68 6.68 0 0 0 5.1-2.23zm55.27-31.45a7.12 7.12 0 0 1 3.82-1.12 7.84 7.84 0 0 1 5.07 1.83 5.59 5.59 0 0 1 2.22 4.48 6.76 6.76 0 0 1-.8 3l-25 47.51a8.85 8.85 0 0 1-2.93 3.38 6.61 6.61 0 0 1-3.64 1.06 6.31 6.31 0 0 1-4.48-1.81 6 6 0 0 1-1.91-4.49 7.93 7.93 0 0 1 .89-3.64l4.61-9.24-11.81-33a4.43 4.43 0 0 1-.35-1.86 6.44 6.44 0 0 1 2.73-5.12 9.06 9.06 0 0 1 5.86-2.18 6.23 6.23 0 0 1 3.64 1.11 6.61 6.61 0 0 1 2.39 3.33l6.85 21.14 10-21.06a7.72 7.72 0 0 1 2.84-3.32zm36.95-6.26l-.89 11.55h19.62q7 0 7 5.86 0 3.73-1.95 5.34c-1.31 1.06-3.41 1.6-6.31 1.6h-19.34l-1.42 17.84a9.09 9.09 0 0 1-2.71 6 8.38 8.38 0 0 1-6 2.22 7.48 7.48 0 0 1-5.73-2.22 7.15 7.15 0 0 1-1.73-5.87l3.73-47.51a8.39 8.39 0 0 1 2.48-5.59 8 8 0 0 1 5.72-1.99h29.9q7.2 0 7.19 6 0 3.56-2 5.15-2 1.59-6.26 1.6zM391.37 64q1.65 1.59 1.29 4.79c-.24 2.37-.94 4.09-2.13 5.15s-3.25 1.75-6.22 2l-2.4.27q-5 .63-6.84 2.53-1.84 1.9-2.31 6.44l-1.24 15.18a7.22 7.22 0 0 1-2.62 5.42 8.93 8.93 0 0 1-5.73 1.87 8.24 8.24 0 0 1-5.55-1.87 6.13 6.13 0 0 1-1.91-5.42l2.49-30.63a7.31 7.31 0 0 1 2.8-5.33 9 9 0 0 1 5.63-1.87 6.86 6.86 0 0 1 4.93 1.73 6.25 6.25 0 0 1 1.74 4.93 18.69 18.69 0 0 1 5.9-4.66 16.68 16.68 0 0 1 6.62-1.91l1.06-.09a5.61 5.61 0 0 1 4.49 1.47z"/><path d="M429.12 87.17a4.19 4.19 0 0 1-3.07 1.11h-23.18q1.06 8 9.68 8a15.74 15.74 0 0 0 4.27-.49 41.52 41.52 0 0 0 4.44-1.65 7 7 0 0 1 2.75-.7 3.6 3.6 0 0 1 3.07 1.56 6 6 0 0 1 1.11 3.64 8.22 8.22 0 0 1-.8 3.55 6 6 0 0 1-2.49 2.67A21.47 21.47 0 0 1 419 107a32.92 32.92 0 0 1-7.6.85 27.47 27.47 0 0 1-12.4-2.69 19.92 19.92 0 0 1-8.35-7.5 21.26 21.26 0 0 1-3-11.33A26 26 0 0 1 390.58 74a21.56 21.56 0 0 1 8.05-8.57 21.87 21.87 0 0 1 11.56-3.11q9.51 0 14.78 5.72 5.27 5.72 5.28 16a4.15 4.15 0 0 1-1.13 3.13zm-23.53-12.26a10.4 10.4 0 0 0-2.54 5.91h14.12a9.35 9.35 0 0 0-1.73-5.82 5.8 5.8 0 0 0-4.75-2 6.9 6.9 0 0 0-5.1 1.91zm67.48 12.26a4.15 4.15 0 0 1-3.07 1.11h-23.17q1.07 8 9.68 8a15.66 15.66 0 0 0 4.26-.49 40.9 40.9 0 0 0 4.45-1.65 7 7 0 0 1 2.75-.7A3.57 3.57 0 0 1 471 95a5.92 5.92 0 0 1 1.11 3.64 8 8 0 0 1-.8 3.55 6 6 0 0 1-2.48 2.67A21.74 21.74 0 0 1 463 107a32.84 32.84 0 0 1-7.59.85 27.48 27.48 0 0 1-12.41-2.69 20 20 0 0 1-8.33-7.51 21.23 21.23 0 0 1-3-11.33A26 26 0 0 1 434.55 74a21.51 21.51 0 0 1 8-8.56 21.83 21.83 0 0 1 11.55-3.11q9.51 0 14.79 5.72 5.28 5.72 5.27 16a4.15 4.15 0 0 1-1.09 3.12zm-23.55-12.26a10.4 10.4 0 0 0-2.52 5.91h14.12a9.29 9.29 0 0 0-1.75-5.82 5.77 5.77 0 0 0-4.73-2 6.91 6.91 0 0 0-5.1 1.91zm89.22-1.59a5.39 5.39 0 0 1 1.33 4.3l-1.24 15.56a27.88 27.88 0 0 1-1.2 6.79 7.59 7.59 0 0 1-2.67 3.69 17.92 17.92 0 0 1-5.46 2.39 55.68 55.68 0 0 1-7.68 1.38 69.68 69.68 0 0 1-8 .49 34.07 34.07 0 0 1-16.29-3.68 25.56 25.56 0 0 1-10.61-10.57 33.18 33.18 0 0 1-3.73-16.12 36.67 36.67 0 0 1 4.17-17.85 29.11 29.11 0 0 1 11.85-11.81 37.16 37.16 0 0 1 18-4.17A46 46 0 0 1 528.53 45a35.7 35.7 0 0 1 8.17 3 8.94 8.94 0 0 1 3.06 2.93 6.87 6.87 0 0 1 1 3.55A6.54 6.54 0 0 1 539 59a5.68 5.68 0 0 1-4.35 2 7.63 7.63 0 0 1-3.91-1.24 31.87 31.87 0 0 0-6-2.31 28.82 28.82 0 0 0-7.46-.8q-8.36 0-13 5.63-4.64 5.63-4.65 15.39 0 8.7 4.08 13.28 4.08 4.58 12.45 4.57a33.22 33.22 0 0 0 8-1.07l.93-11.45h-5.86Q513 83 513 77.53a5.25 5.25 0 0 1 1.82-4.21 7.06 7.06 0 0 1 4.75-1.56h14.83a5.75 5.75 0 0 1 4.34 1.56zM581 66.7q4.93 4.35 4.93 13.14l-.09 2.93-1.42 17.58a7.76 7.76 0 0 1-2.39 5.38 8 8 0 0 1-5.6 1.91 7 7 0 0 1-4.83-1.64 6 6 0 0 1-2.05-4.3 11.08 11.08 0 0 1-4.53 4.52 13.76 13.76 0 0 1-6.74 1.6 17.5 17.5 0 0 1-7.77-1.69 13.45 13.45 0 0 1-5.51-4.65 11.68 11.68 0 0 1-2-6.62 12.53 12.53 0 0 1 2.49-8.13q2.47-3.06 7.9-4.48a58.57 58.57 0 0 1 14.39-1.42H571l.08-.62q.36-6.32-7-6.31-3.57 0-9.95 2.31a7.81 7.81 0 0 1-3 .62 4.74 4.74 0 0 1-3.64-1.51 5 5 0 0 1-1.49-3.56 6.19 6.19 0 0 1 1-3.16 7.44 7.44 0 0 1 2.84-2.6q6.57-3.63 16.25-3.64Q576 62.34 581 66.7zM568 95a9.36 9.36 0 0 0 2.35-5.9l.09-1H568q-5.34 0-7.6 1.11a3.94 3.94 0 0 0-2.26 3.86 3.85 3.85 0 0 0 1.29 3 4.9 4.9 0 0 0 3.42 1.16A6.68 6.68 0 0 0 568 95zm90.53-28.57q3.65 4.08 3.64 12.08l-.09 2.93-1.6 18.91a7.24 7.24 0 0 1-2.57 5.47 9.1 9.1 0 0 1-5.78 1.82 8.24 8.24 0 0 1-5.55-1.87 6.15 6.15 0 0 1-1.91-5.42l1.6-18.56a8.74 8.74 0 0 0-1-5.46 4.3 4.3 0 0 0-3.82-1.91 6 6 0 0 0-4.93 2.18c-1.16 1.45-1.89 3.84-2.18 7.15l-1.34 16.6a7.45 7.45 0 0 1-2.71 5.47 9.08 9.08 0 0 1-5.73 1.82 8.22 8.22 0 0 1-5.54-1.87 5.94 5.94 0 0 1-1.83-5.42L618.75 82q.53-7.56-4.8-7.56a5.86 5.86 0 0 0-4.95 2.2c-1.15 1.48-1.88 3.85-2.17 7.11l-1.34 16.6a7.19 7.19 0 0 1-2.62 5.42 8.9 8.9 0 0 1-5.72 1.87 8.29 8.29 0 0 1-5.56-1.87 6.1 6.1 0 0 1-1.9-5.42l2.48-30.63a7.24 7.24 0 0 1 2.83-5.33 9.34 9.34 0 0 1 5.78-1.87 7.55 7.55 0 0 1 4.62 1.38 5.25 5.25 0 0 1 2.13 3.86 16.53 16.53 0 0 1 5.82-4.09 19.56 19.56 0 0 1 7.41-1.33 14.84 14.84 0 0 1 7.41 1.78 11.9 11.9 0 0 1 4.85 5.06 18.76 18.76 0 0 1 6.66-5.11 19.94 19.94 0 0 1 8.32-1.73q6.9 0 10.53 4.09zm47.91 20.74a4.19 4.19 0 0 1-3.07 1.11H680.2q1.06 8 9.68 8a15.66 15.66 0 0 0 4.26-.49 44 44 0 0 0 4.45-1.65 6.9 6.9 0 0 1 2.75-.7A3.57 3.57 0 0 1 704.4 95a5.92 5.92 0 0 1 1.11 3.64 8.08 8.08 0 0 1-.8 3.55 6 6 0 0 1-2.48 2.67 22 22 0 0 1-5.91 2.17 32.9 32.9 0 0 1-7.59.85 27.48 27.48 0 0 1-12.39-2.67 19.91 19.91 0 0 1-8.34-7.56 21.23 21.23 0 0 1-3-11.33A25.92 25.92 0 0 1 667.91 74a21.58 21.58 0 0 1 8-8.56 21.87 21.87 0 0 1 11.56-3.11q9.5 0 14.78 5.72 5.28 5.72 5.27 16a4.14 4.14 0 0 1-1.08 3.12zM682.9 74.91a10.46 10.46 0 0 0-2.52 5.91h14.12a9.29 9.29 0 0 0-1.74-5.82 5.81 5.81 0 0 0-4.76-2 6.93 6.93 0 0 0-5.1 1.91zM745.42 64q1.65 1.59 1.29 4.79a7.72 7.72 0 0 1-2.13 5.15q-1.79 1.6-6.22 2l-2.4.27c-3.32.42-5.59 1.26-6.84 2.53s-2 3.42-2.31 6.44l-1.24 15.18a7.22 7.22 0 0 1-2.62 5.42 8.91 8.91 0 0 1-5.73 1.87 8.24 8.24 0 0 1-5.55-1.87 6.15 6.15 0 0 1-1.91-5.42l2.49-30.63a7.31 7.31 0 0 1 2.8-5.33 9 9 0 0 1 5.64-1.87 6.85 6.85 0 0 1 4.92 1.73 6.29 6.29 0 0 1 1.74 4.93 18.84 18.84 0 0 1 5.9-4.66 16.68 16.68 0 0 1 6.62-1.91l1.06-.09a5.64 5.64 0 0 1 4.49 1.47z"/></g></svg>