<svg xmlns="http://www.w3.org/2000/svg" viewBox="0 0 748 148" xmlns:v="https://vecta.io/nano"><path d="M56.09 147.86a32.54 32.54 0 0 1-12.34-3.13l-.54-.11a16.51 16.51 0 0 1-2.11 0h-.16c-3.66-.24-9.73-1.52-17.69-6.27C3.93 126.83-.92 110.27.8 99.58c1-6.36 7.29-22 10.54-29.85-.1-.12-.19-.24-.28-.37a6.26 6.26 0 0 1-1-2.53 5.41 5.41 0 0 1-1.1-1 6.64 6.64 0 0 1-1.18 0 7.68 7.68 0 0 1-5.13-2.5c-2.44-2.56-2.05-6.4 1-10.2v-.51a9.13 9.13 0 0 1-2.9-4v-.08c-1-3-.19-6.36 2.39-9.93A14.57 14.57 0 0 1 3.36 37c-1.79-5.95-8-29.33 3-36.08l.1-.06.1-.05A8.58 8.58 0 0 1 10.77 0a5.9 5.9 0 0 1 .59.06c2.13.15 7.6 1 14.27 5.43a45.43 45.43 0 0 1 10.68 10 8.61 8.61 0 0 1 3 .93 8.5 8.5 0 0 1 5.49-1.72h.14a10.35 10.35 0 0 1 3.29.93c2.79-5.53 7.51-8.55 13-8.19a15.31 15.31 0 0 1 2.39.35 19.53 19.53 0 0 1 14 12 11.91 11.91 0 0 1 1.89 0h.11a9.54 9.54 0 0 1 6.64 3.37 12.68 12.68 0 0 1 4.83-1.27 61.5 61.5 0 0 1 3.45-2.39c7.76-5 15.72-7.37 23-6.89a27.92 27.92 0 0 1 5.58.93 5.32 5.32 0 0 1 3 2c1.42 1.81 1.88 4.63 1.35 8.35a50.08 50.08 0 0 1-5.41 16.38 35.77 35.77 0 0 1-4.43 6.35 10.83 10.83 0 0 1-1.54 9.38c1.8 1.9 3.56 5.18 3 10.52-.47 4.56-2.8 6.94-4.89 8.16a7.66 7.66 0 0 1-1.51 5.71 5.87 5.87 0 0 1-5.16 2.71h0a6.23 6.23 0 0 1-2.69-.85l2.93 16.54c.5 2.15 3.76 18.51-7.61 31a45.29 45.29 0 0 1-14.49 11.11 55.8 55.8 0 0 1-13.4 4c-3.75 2.45-9 3.46-15.52 3z" fill="none"/><path d="M97.33 127.32c-8.58 9.4-15.72 11.8-23.7 13.5a17.29 17.29 0 0 0 1.63-2.26l.53-.8a.78.78 0 0 0-.15-1.09h0a.81.81 0 0 0-1.11.17c-.1.15-.22.31-.33.49s-.17.26-.26.4a13.12 13.12 0 0 1-3.19 3.69h0a11.68 11.68 0 0 1-1.94 1.18 18.64 18.64 0 0 1-7 1.7c-1.27.06-2.59.06-4 0l-1.55-.1a33.2 33.2 0 0 1-8.37-1.64 16.79 16.79 0 0 1-2.89-1.3 9.11 9.11 0 0 1-3.54-3.15 2.1 2.1 0 0 1-.13-.26.79.79 0 0 0-1.47.54 7.13 7.13 0 0 0 2 2.6h-.72c-2.9-.19-8.47-1.28-16-5.78-18.77-11.2-22-26.63-20.67-35a6.54 6.54 0 0 1 .15-.8l.06-.41a2.89 2.89 0 0 1 .11-.47Q5 97.8 5.18 97c0-.19.1-.38.16-.58l.33-1.08c.12-.37.24-.83.38-1.26l.38-1.17.52-1.53c.11-.3.21-.61.32-.92l.06-.16c.07-.22.15-.46.24-.7L8.88 86l.42-1.13.21-.57.64-1.65.66-1.72c.14-.35.27-.7.41-1l1.3-3.29.39-1 .35-.88 1-2.35c.14-.31.26-.62.38-.9l.56-1.4c.1-.23.2-.45.27-.66a4.41 4.41 0 0 0 .73 0h.15l.15-.06c3.33-1.34 4.23-3.78 4.23-5.64a4.5 4.5 0 0 0 2-1.8 11.05 11.05 0 0 0 4.67 1.49 8.62 8.62 0 0 0 6.29-2.22 6.29 6.29 0 0 0 4.27 2.2 6.08 6.08 0 0 0 2-.2 4.27 4.27 0 0 0 3.21 2.05 3.56 3.56 0 0 0 1.64-.28c.95 2.21 3.23 5.32 8.55 7.22a14.28 14.28 0 0 0 3.82.79c6 .4 10.83-3.08 13.26-5.25 1.13 1.84 2.51 2.83 4.12 2.94a5.72 5.72 0 0 0 4-1.56 4.74 4.74 0 0 0 3.33 2 4.4 4.4 0 0 0 3.06-1.07c3.19 4.79 6.47 7.32 9.75 7.54a6.75 6.75 0 0 0 4-1 4.9 4.9 0 0 0 1.51 1.32h0l1.07 5.51c0 .17.07.34.1.52l.88 4.88c0 .26.09.5.13.73l.56 3.13c.05.24.08.47.12.73l.78 4.48a.93.93 0 0 0 0 .29.37.37 0 0 1 0 .11 1.44 1.44 0 0 0 0 .31v.15a.76.76 0 0 0 0 .27c0 .29.08.49.09.58v.07s4.06 15.95-6.61 27.64zm26.5-103.99c-.59 4.08-2.85 14.16-9.52 21.35a9.05 9.05 0 0 0-1.68-1.92 0 0 0 0 0 0 0 7.81 7.81 0 0 0-4.71-1.92 9.26 9.26 0 0 0-2.52.17c-.07-.11-.14-.23-.22-.34a3.27 3.27 0 0 0-1.45-1.09 2.6 2.6 0 0 0-.43-1.53 2.57 2.57 0 0 0-2.07-1.13 5.07 5.07 0 0 0-1.29.09c.17-2.57.2-6.34-1.16-8.71a.64.64 0 0 0-.06-.11 4.3 4.3 0 0 0-.48-.72 9.46 9.46 0 0 0-4.3-3.15c5.5-4 14-8.69 23.36-8.08a23.9 23.9 0 0 1 5 .83s2.38.31 1.53 6.26zM11.05 3.78a5.31 5.31 0 0 0-2.76.34C1.18 8.5 3.8 24.88 6.52 34.6a6.58 6.58 0 0 1 .83-1.06 4.71 4.71 0 0 1 1.51-1h0a5.91 5.91 0 0 1 2.53-.44 9 9 0 0 1 .91-5.33 7 7 0 0 1 4.9-3.33 5 5 0 0 1 1.38-.11 7.15 7.15 0 0 1 4.66 2.59 3 3 0 0 1 1.25-.24 3.54 3.54 0 0 1 .82-1.68 2.93 2.93 0 0 1 2.41-.86h.4a10.06 10.06 0 0 1 .68-1.75 7.66 7.66 0 0 1 .91-1.38 6.56 6.56 0 0 1 3.62-2.26C25.17 7.36 15.77 4.1 11.05 3.78z" fill="#e8dccd"/><path d="M29.71 20.05a7.44 7.44 0 0 0-.9 1.38 9.1 9.1 0 0 0-.69 1.75h-.4a2.93 2.93 0 0 0-2.41.86 3.54 3.54 0 0 0-.82 1.64 3 3 0 0 0-1.25.24 7.15 7.15 0 0 0-4.66-2.59 4.92 4.92 0 0 0-1.38.11 7 7 0 0 0-4.9 3.33 9 9 0 0 0-.91 5.33 5.76 5.76 0 0 0-2.53.44c-2.65-8.8-4.67-19.69 1.41-23.45 1.88-1.15 10.56.84 19.44 10.96zm90.8 6.41c-.94 3.27-3 10.38-7.89 16.31a7.81 7.81 0 0 0-4.71-1.92 9.26 9.26 0 0 0-2.52.17 2.39 2.39 0 0 0-.21-.34 3.39 3.39 0 0 0-1.45-1.09 2.75 2.75 0 0 0-.43-1.53 2.57 2.57 0 0 0-2.08-1.13 5.61 5.61 0 0 0-1.29.09c.17-2.57.14-6.45-1.22-8.82 6.07-5.63 13.5-9.88 21-7.77.02 0 2.17 1.23.8 6.03z" fill="#e38569"/><path d="M110.23 56.77s4.71-3.28 4-8a.45.45 0 0 0 0-.25 5 5 0 0 1-.11-.5l-.21-.67-.19-.48-.12-.23v-.07c0-.1-.11-.22-.18-.34l-.22-.38a12.77 12.77 0 0 0-.41-.62c-.14-.2-.2-.27-.31-.39l-.33-.37a3.14 3.14 0 0 0-.31-.32.8.8 0 0 0-.17-.15h0a6.68 6.68 0 0 0-1.29-.88L110 43a6.09 6.09 0 0 0-1.32-.4h-.32-.1-.43a8.34 8.34 0 0 0-3.7.64c.48-2-1.53-2.25-2.07-2.29h-.13c.6-1.69 0-2.24-.8-2.3a7.79 7.79 0 0 0-3 .81 31.67 31.67 0 0 0 .27-3.2v-.48a4.67 4.67 0 0 0 0-1v-.52a6.23 6.23 0 0 0 0-1.06 3.92 3.92 0 0 0 0-.59 14.11 14.11 0 0 0-.23-1.45c0-.14-.06-.28-.1-.41a3.19 3.19 0 0 0-.13-.44 6.45 6.45 0 0 0-.32-.83 4.67 4.67 0 0 0-.27-.49 2 2 0 0 0-.24-.33l-.59-.66a3.9 3.9 0 0 0-.28-.29l-.3-.27-.27-.23-.25-.21a2.18 2.18 0 0 0-.31-.22l-.33-.22-.32-.19-.3-.15a6.8 6.8 0 0 0-1-.37l-.3-.07-.58-.11h0-.39-.41-.41 0a2.56 2.56 0 0 0-.39 0h-.3-.2l-.64.14a9 9 0 0 0-1.59.62l-.47.23-.51.31-.23.14-.65.45-.34.26a3.54 3.54 0 0 0-.42.35l-.12.09-.33.3c-1.11-3.85-3.49-5-5.64-5.1a9.6 9.6 0 0 0-4.17.76s-1.83-10.45-12.29-12.8a12.17 12.17 0 0 0-1.78-.28c-8.92-.58-11 10.68-11 10.68a13.73 13.73 0 0 0-2.34-2.23l.12 3.4a.77.77 0 0 1-.75.81h-.09a.79.79 0 0 1-.74-.77l-.2-4.35a4.43 4.43 0 0 0-2.06-.31l.17 4.42a.79.79 0 0 1-.75.82h-.07a.77.77 0 0 1-.72-.76l-.16-4a7.1 7.1 0 0 0-2.7 2.79 5.33 5.33 0 0 0-3.32-2.37 5.81 5.81 0 0 0-.71-.11h-.32a7.3 7.3 0 0 0-.94 0 5 5 0 0 0-3.64 2.07 8.21 8.21 0 0 0-1.42 4.08 4.2 4.2 0 0 0-1.71-.62c-2.15-.14-1.78 3.19-1.78 3.19a1.81 1.81 0 0 0-2.54-.29 1.77 1.77 0 0 0-.39.43s-1.87-3-4.45-3.16a3.36 3.36 0 0 0-.95.07c-6.74 1.44-4.12 9.13-4.12 9.13a7.61 7.61 0 0 0-1.95-.41 4 4 0 0 0-2.14.35 4.44 4.44 0 0 0-2.09 2.9 10.15 10.15 0 0 0-.36 3 2.23 2.23 0 0 0-.19.24C0 48.75 8.56 51 8.56 51a3.17 3.17 0 0 0-1 3.38s-4.21 4.24-2.16 6.31a4 4 0 0 0 2.69 1.35 5.09 5.09 0 0 0 3.54-1.43c-.57 2.83.68 3.39 1.58 3.45A2.82 2.82 0 0 0 14 64c-.61 2.24-.12 3.19.52 3.62a2 2 0 0 0 .88.27 2.54 2.54 0 0 0 .48 0l.31-.13c3.89-1.76 2.76-5.19 2.76-5.19a3.25 3.25 0 0 0 2.88-3.08 10.73 10.73 0 0 0 5.64 2.32 7.43 7.43 0 0 0 6.36-3.09c1.4 2.29 3 3 4.25 3.07a4.5 4.5 0 0 0 2.51-.6c.9 1.79 1.83 2.4 2.65 2.45a3.26 3.26 0 0 0 2.42-1.37s.28 5.59 8.19 8.42a12.8 12.8 0 0 0 3.4.71c7.68.49 13.53-6.4 13.53-6.4 1.16 3 2.54 4 3.8 4 2.2.15 4.11-2.48 4.11-2.48 1.13 2.07 2.24 2.79 3.22 2.86 1.84.12 3.2-2.1 3.2-2.1 3.87 6.53 7.2 8.37 9.62 8.53A5.35 5.35 0 0 0 99 74.08a7.07 7.07 0 0 0 .5.94 3.1 3.1 0 0 0 2 1.56 1.72 1.72 0 0 0 .32 0 3.21 3.21 0 0 0 2.15-.81s1.74 3.42 3.71 3.55a2.21 2.21 0 0 0 1.93-1.15 3.87 3.87 0 0 0-1.06-5.81 6.5 6.5 0 0 0 6.83-6.32c.79-8.04-5.15-9.27-5.15-9.27zm-88-7.35h0c-.4 0-4.69-.36-6.61-2.75a3.54 3.54 0 0 1-.35-.51h0a3.32 3.32 0 0 1-.53-2.16 2.61 2.61 0 0 1 .18-.78 3.77 3.77 0 0 1 .34-.7 3.56 3.56 0 0 1 .73-.87.78.78 0 0 1 1.11.1.79.79 0 0 1-.1 1.05 1.86 1.86 0 0 0-.37.42 2.25 2.25 0 0 0-.33.7 1.87 1.87 0 0 0 0 .91 2.68 2.68 0 0 0 .47.86 5.46 5.46 0 0 0 2.53 1.6h0a11.82 11.82 0 0 0 2.94.6.79.79 0 1 1 .05 1.57h-.15zm9.5 7.3c0 .06-.05.12-.08.17-.63 1.09-2.52 1.18-4.21.2a4.75 4.75 0 0 1-1.06-.78 3.55 3.55 0 0 1-1-1.66 1.78 1.78 0 0 1 .16-1.28c.63-1.09 2.51-1.19 4.2-.21a4.46 4.46 0 0 1 1.91 2 2 2 0 0 1 .06 1.56zm2.63-2.2c-.31.53-1.25.58-2.1.09s-1.27-1.32-1-1.86 1.26-.63 2.1-.11 1.28 1.31 1 1.86zm2.19-18.63a7.6 7.6 0 0 1-4 1.08 1.77 1.77 0 0 1-.32 0 3.67 3.67 0 0 1-1.4-.46 3.72 3.72 0 0 1-1.14-1 4.83 4.83 0 0 1-.44-.67 7 7 0 0 1-.34-.74 8.21 8.21 0 0 1-.49-2.39.78.78 0 0 1 1.58-.1 6.5 6.5 0 0 0 .22 1.32 4.46 4.46 0 0 0 .28.8 3.21 3.21 0 0 0 .39.7 2.54 2.54 0 0 0 .76.7 3.34 3.34 0 0 0 2.8 0h0a10.54 10.54 0 0 0 1.33-.59.78.78 0 1 1 .74 1.38h0zm18.87 16.78a.76.76 0 0 1-.67.3.73.73 0 0 1-.43-.16L51.93 51a9.77 9.77 0 0 1-3.16 1.19L47.14 55a.78.78 0 0 1-.74.39 1 1 0 0 1-.34-.09.8.8 0 0 1-.28-1.08l1.1-1.9h-.4a10.77 10.77 0 0 1-2.2-.38c-4.09-1.15-5.73-3.25-6.39-4.84a6 6 0 0 1-.41-3.31.79.79 0 0 1 1.54.31h0c0 .21-.78 4.5 5.7 6.31a8.37 8.37 0 0 0 9.13-3.15.79.79 0 0 1 1.31.88A9.85 9.85 0 0 1 53.3 50l2 1.53a.79.79 0 0 1 .14 1.1h0zm33.44-10.79a.86.86 0 0 1-.39.34 1.53 1.53 0 0 1-.79.12 1.73 1.73 0 0 1-.6-.11 1 1 0 0 1-.24-.07 3.46 3.46 0 0 1-.62-.28c-1.09-.63-1.68-1.65-1.28-2.28a1.31 1.31 0 0 1 1.4-.44 3.14 3.14 0 0 1 .81.23h0a3.27 3.27 0 0 1 .89.51 2.86 2.86 0 0 1 .4.38 1.41 1.41 0 0 1 .42 1.59zM90 36.56a2.29 2.29 0 0 1-2.27.84 3.73 3.73 0 0 1-.81-.15 5 5 0 0 1-.8-.27 6 6 0 0 1-.81-.39c-1.94-1.11-3-2.93-2.32-4.06.46-.81 1.66-1 3-.72h0a6.91 6.91 0 0 1 .77.25 6.28 6.28 0 0 1 .79.37l.11.07c1.93 1.1 3 2.91 2.33 4zm13.46 30.93a7.62 7.62 0 0 1-3.46.61 7.79 7.79 0 0 1-4.53-1.89.79.79 0 0 1 0-1.11.78.78 0 0 1 1 0 6 6 0 0 0 6.31 1c3.48-1.43 2.86-5.19 2.83-5.35a.79.79 0 0 1 1.55-.29 6.39 6.39 0 0 1-3.78 7.08z" fill="#d6ba9b"/><path d="M31.71 56.72c0 .06-.05.12-.08.17-.63 1.09-2.52 1.18-4.21.2a4.75 4.75 0 0 1-1.06-.78 3.55 3.55 0 0 1-1-1.66 1.78 1.78 0 0 1 .16-1.28c.63-1.09 2.51-1.19 4.2-.21a4.46 4.46 0 0 1 1.91 2 2 2 0 0 1 .08 1.56zM90 36.55a2.32 2.32 0 0 1-2.27.84 5.5 5.5 0 0 1-.81-.15 4.2 4.2 0 0 1-.8-.28 6 6 0 0 1-.81-.39c-1.94-1.11-3-2.92-2.32-4.06.46-.8 1.66-1 3-.71h0a5.28 5.28 0 0 1 .77.24 6.35 6.35 0 0 1 .79.38l.11.06c1.91 1.12 2.93 2.93 2.34 4.07zm-1.14 5.32a.86.86 0 0 1-.39.34 1.77 1.77 0 0 1-.79.12 2.44 2.44 0 0 1-.6-.11 1 1 0 0 1-.24-.08 3.42 3.42 0 0 1-.62-.27c-1.09-.64-1.68-1.66-1.28-2.28a1.32 1.32 0 0 1 1.4-.44 2.51 2.51 0 0 1 .81.23h0a2.39 2.39 0 0 1 .43.2 4.53 4.53 0 0 1 .46.3 5 5 0 0 1 .41.38 1.44 1.44 0 0 1 .41 1.61zM34.35 54.5c-.32.54-1.26.59-2.11.1s-1.27-1.33-1-1.86 1.26-.64 2.1-.11 1.32 1.37 1.01 1.87z" fill="#e8dccd"/><path d="M36.53 35.88a7.6 7.6 0 0 1-4 1.08h-.32a3.69 3.69 0 0 1-1.4-.47 3.6 3.6 0 0 1-1.14-1 4.3 4.3 0 0 1-.44-.67 5.56 5.56 0 0 1-.34-.74 8.07 8.07 0 0 1-.49-2.39.78.78 0 0 1 .75-.81.8.8 0 0 1 .81.76 7.58 7.58 0 0 0 .22 1.32 4.75 4.75 0 0 0 .28.8 4 4 0 0 0 .39.7 2.39 2.39 0 0 0 .76.69 3.27 3.27 0 0 0 2.8 0h0a9.28 9.28 0 0 0 1.33-.59.79.79 0 0 1 .74 1.39h0zm66.9 31.6a7.6 7.6 0 0 1-3.46.61 7.79 7.79 0 0 1-4.52-1.89.79.79 0 0 1 0-1.12.8.8 0 0 1 1 0 6 6 0 0 0 6.3 1c3.48-1.44 2.86-5.19 2.83-5.35a.79.79 0 0 1 1.55-.29 6.4 6.4 0 0 1-3.7 7.04zM23.07 48.69a.78.78 0 0 1-.83.73h0c-.4 0-4.69-.36-6.61-2.75a3.54 3.54 0 0 1-.35-.51h0a3.38 3.38 0 0 1-.52-2.16 3.07 3.07 0 0 1 .19-.78 4.94 4.94 0 0 1 .33-.7 3.84 3.84 0 0 1 .74-.87.78.78 0 0 1 1.11.1.8.8 0 0 1-.07 1.08 1.69 1.69 0 0 0-.37.43 2.2 2.2 0 0 0-.33.69 2 2 0 0 0 0 .91 2.6 2.6 0 0 0 .48.86 5.46 5.46 0 0 0 2.53 1.6h0a11.39 11.39 0 0 0 2.94.6.78.78 0 0 1 .76.77zm32.35 3.96a.77.77 0 0 1-.67.31.81.81 0 0 1-.43-.16L51.93 51a9.52 9.52 0 0 1-3.16 1.18L47.15 55a.82.82 0 0 1-.75.39 1 1 0 0 1-.34-.1.79.79 0 0 1-.28-1.08l1.1-1.9h-.4a10.24 10.24 0 0 1-2.2-.38c-4.09-1.14-5.73-3.24-6.39-4.84a5.92 5.92 0 0 1-.41-3.3.8.8 0 0 1 .93-.61.78.78 0 0 1 .59.82h0c0 .2-.79 4.5 5.69 6.31a8.4 8.4 0 0 0 9.13-3.15.79.79 0 0 1 1.31.87A9.9 9.9 0 0 1 53.3 50l2 1.53a.78.78 0 0 1 .15 1.09z" fill="#3e2e2e"/><path d="M48.82 79.89a14.57 14.57 0 1 0-1.44 11 14.59 14.59 0 0 0 1.44-11zm-11 5.56a3.67 3.67 0 0 1-3.41 1.81 3.77 3.77 0 0 1-1.58-.47 3.65 3.65 0 1 1 5.38-4.08 3.51 3.51 0 0 1-.39 2.74z" fill="#fff"/><path d="M50.37 79.47a16.11 16.11 0 1 0-1.61 12.23 16.14 16.14 0 0 0 1.61-12.23zm-3 11.43a14.64 14.64 0 0 1-26.8-3.54 14.46 14.46 0 0 1 1.44-11 14.621 14.621 0 1 1 25.36 14.56zm-9.51-5.45a3.67 3.67 0 0 1-3.41 1.81 3.77 3.77 0 0 1-1.58-.47 3.65 3.65 0 1 1 5.38-4.08 3.51 3.51 0 0 1-.39 2.74zm55.87-1.92a16.12 16.12 0 1 0-1.61 12.23 16.13 16.13 0 0 0 1.61-12.23zM90.75 95a14.58 14.58 0 1 1-5.31-19.89A14.64 14.64 0 0 1 90.75 95z" fill="#3e2e2e"/><path d="M92.21 83.94a14.59 14.59 0 1 0-1.46 11 14.39 14.39 0 0 0 1.46-11zm-10.92 5.57a3.66 3.66 0 0 1-6.7-.88 3.58 3.58 0 0 1 .41-2.77 3.66 3.66 0 0 1 6.34 3.65z" fill="#fff"/><path d="M81.29 89.51a3.66 3.66 0 0 1-6.7-.88 3.58 3.58 0 0 1 .41-2.77 3.66 3.66 0 0 1 6.34 3.65zm-11.2 25.58a9.3 9.3 0 0 1-8 5.73 8.14 8.14 0 0 1-1.56 0 6.11 6.11 0 0 1-5.28-3.5 6.18 6.18 0 0 1-5.86 3 8.57 8.57 0 0 1-1.32-.19 9.23 9.23 0 0 1-7.35-6.52.77.77 0 0 1 .58-.93h0a.79.79 0 0 1 .94.6 7.7 7.7 0 0 0 6.16 5.31 4.92 4.92 0 0 0 6.1-3.33.83.83 0 0 1 0-.15h0 0l-.07-8.41a10.26 10.26 0 0 1-4-2.66c-2-2-4.66-5.55-4.24-7.33.61-2.52 3.77-3.73 8.67-3.31 1.44 0 8.18 0 8.66 3.13s-4 9.3-7.47 10.21h0l.07 8.32v.15a4.85 4.85 0 0 0 4.5 4.13 5.91 5.91 0 0 0 1.26 0 7.71 7.71 0 0 0 6.66-4.65.772.772 0 1 1 1.46.5z" fill="#3e2e2e"/><g fill="#e38569"><ellipse cx="82.76" cy="110.36" rx="8.31" ry="4.72" transform="matrix(.999484 -.032109 .032109 .999484 -3.51 2.72)"/><ellipse cx="27.58" cy="105.58" rx="4.72" ry="8.15" transform="matrix(.10852 -.994094 .994094 .10852 -80.37 121.54)"/></g><g fill="#ffffff"><path d="M187.3 49.42q5.64 5 5.64 13.72 0 10.23-5.95 15.72-5.95 5.49-17.14 5.51h-14.3l-1.15 15a9 9 0 0 1-2.71 6 8.69 8.69 0 0 1-6.17 2.17 7.56 7.56 0 0 1-5.78-2.17 7.18 7.18 0 0 1-1.69-5.91L141.78 52a8.39 8.39 0 0 1 2.49-5.59 8 8 0 0 1 5.68-2h21.67q10.04 0 15.68 5.01zM177.75 64c0-2.48-.69-4.32-2.09-5.51s-3.5-1.78-6.34-1.78h-11.56l-1.25 15.37h11.73q9.51 0 9.51-8.08zm17.54 41.68a6.1 6.1 0 0 1-1.91-5.42l3.91-48.84a7.46 7.46 0 0 1 2.62-5.6 9 9 0 0 1 5.73-1.82 8.21 8.21 0 0 1 5.54 1.86c1.45 1.25 2.09 3.11 1.92 5.6l-3.93 48.84a7.24 7.24 0 0 1-2.62 5.42 9 9 0 0 1-5.73 1.86 8.22 8.22 0 0 1-5.53-1.9zM251.5 66.6q4.94 4.37 4.93 13.15l-.09 2.93-1.42 17.58a7.72 7.72 0 0 1-2.4 5.38 8 8 0 0 1-5.59 1.9 7 7 0 0 1-4.8-1.64 6 6 0 0 1-2-4.3 11.08 11.08 0 0 1-4.53 4.52 13.8 13.8 0 0 1-6.75 1.6A17.7 17.7 0 0 1 221 106a13.37 13.37 0 0 1-5.5-4.66 11.56 11.56 0 0 1-2-6.62 12.53 12.53 0 0 1 2.5-8.09q2.49-3.07 7.91-4.49a59 59 0 0 1 14.38-1.41h3.2l.09-.63q.36-6.3-7-6.3-3.56 0-9.94 2.31a8 8 0 0 1-3 .62 4.8 4.8 0 0 1-3.64-1.51 5 5 0 0 1-1.42-3.56 6.09 6.09 0 0 1 .93-3.15 7.37 7.37 0 0 1 2.89-2.62q6.56-3.64 16.25-3.64 9.93 0 14.85 4.35zm-13 28.29a9.41 9.41 0 0 0 2.39-5.89l.09-1h-2.4q-5.34 0-7.59 1.11a3.94 3.94 0 0 0-2.26 3.89 3.89 3.89 0 0 0 1.27 3 4.93 4.93 0 0 0 3.43 1.15 6.65 6.65 0 0 0 5.1-2.26zm55.31-31.44a7.17 7.17 0 0 1 3.82-1.11 7.78 7.78 0 0 1 5.06 1.82 5.62 5.62 0 0 1 2.23 4.49 6.93 6.93 0 0 1-.8 3l-25 47.51a8.75 8.75 0 0 1-2.93 3.37 6.7 6.7 0 0 1-3.64 1.07 6.26 6.26 0 0 1-4.48-1.82 5.9 5.9 0 0 1-1.91-4.48 8.12 8.12 0 0 1 .88-3.65l4.62-9.23-11.81-33a4.37 4.37 0 0 1-.35-1.86 6.47 6.47 0 0 1 2.66-5.11 9.1 9.1 0 0 1 5.87-2.17 6.23 6.23 0 0 1 3.64 1.11 6.57 6.57 0 0 1 2.39 3.33l6.84 21.13 10-21a7.8 7.8 0 0 1 2.91-3.4zm36.94-6.26l-.88 11.56h19.62q7 0 7 5.86 0 3.73-1.95 5.33-1.95 1.6-6.3 1.6h-19.35l-1.42 17.85a9.06 9.06 0 0 1-2.71 6 8.35 8.35 0 0 1-6 2.22 7.48 7.48 0 0 1-5.73-2.22 7.12 7.12 0 0 1-1.73-5.86L315 52a8.37 8.37 0 0 1 2.48-5.6 8.1 8.1 0 0 1 5.69-1.95h29.92q7.2 0 7.19 6 0 3.56-2 5.15-2 1.59-6.27 1.6zm61.85 6.66q1.65 1.6 1.29 4.8a7.75 7.75 0 0 1-2.13 5.15c-1.19 1.07-3.26 1.74-6.23 2l-2.39.27c-3.32.41-5.6 1.26-6.84 2.53s-2 3.41-2.31 6.44l-1.24 15.18a7.24 7.24 0 0 1-2.62 5.42 9 9 0 0 1-5.73 1.86 8.24 8.24 0 0 1-5.55-1.86 6.13 6.13 0 0 1-1.91-5.42l2.48-30.63a7.36 7.36 0 0 1 2.81-5.34 9 9 0 0 1 5.63-1.86 6.82 6.82 0 0 1 4.93 1.73 6.23 6.23 0 0 1 1.73 4.93 18.85 18.85 0 0 1 5.91-4.66 16.86 16.86 0 0 1 6.62-1.92l1.06-.08a5.62 5.62 0 0 1 4.49 1.46z"/><path d="M430.35 87.07a4.11 4.11 0 0 1-3.07 1.11H404.1q1.06 8 9.68 8a16.19 16.19 0 0 0 4.27-.49 43.8 43.8 0 0 0 4.44-1.65 7 7 0 0 1 2.75-.7 3.58 3.58 0 0 1 3.06 1.5 6 6 0 0 1 1.12 3.64 8.27 8.27 0 0 1-.8 3.56 6.06 6.06 0 0 1-2.49 2.67 22.08 22.08 0 0 1-5.91 2.17 32.83 32.83 0 0 1-7.59.84 27.67 27.67 0 0 1-12.39-2.66 19.91 19.91 0 0 1-8.34-7.51 21.11 21.11 0 0 1-3-11.32 25.9 25.9 0 0 1 2.89-12.3 21.58 21.58 0 0 1 8.05-8.58 22.05 22.05 0 0 1 11.56-3.11q9.49 0 14.78 5.73 5.29 5.73 5.28 16a4.13 4.13 0 0 1-1.11 3.1zm-23.54-12.25a10.43 10.43 0 0 0-2.53 5.91h14.12a9.35 9.35 0 0 0-1.73-5.82 5.81 5.81 0 0 0-4.75-2 6.93 6.93 0 0 0-5.11 1.91zm67.49 12.25a4.1 4.1 0 0 1-3.07 1.11h-23.17q1.06 8 9.68 8a16.07 16.07 0 0 0 4.26-.48 44 44 0 0 0 4.45-1.65 6.9 6.9 0 0 1 2.75-.7 3.58 3.58 0 0 1 3.06 1.5 5.94 5.94 0 0 1 1.11 3.64 8.13 8.13 0 0 1-.8 3.56 6.09 6.09 0 0 1-2.48 2.67 22.33 22.33 0 0 1-5.91 2.17 32.89 32.89 0 0 1-7.59.84 27.61 27.61 0 0 1-12.39-2.66 20 20 0 0 1-8.33-7.52 21.11 21.11 0 0 1-3-11.32 25.9 25.9 0 0 1 2.89-12.3 21.57 21.57 0 0 1 8-8.57 22 22 0 0 1 11.56-3.11q9.51 0 14.79 5.73 5.28 5.73 5.27 16a4.13 4.13 0 0 1-1.08 3.09zm-23.56-12.25a10.5 10.5 0 0 0-2.53 5.91h14.13a9.35 9.35 0 0 0-1.74-5.82 5.77 5.77 0 0 0-4.73-2 6.9 6.9 0 0 0-5.1 1.91zm89.26-1.6a5.41 5.41 0 0 1 1.33 4.31l-1.24 15.56a28 28 0 0 1-1.2 6.79 7.58 7.58 0 0 1-2.67 3.68 18.13 18.13 0 0 1-5.46 2.4 59.15 59.15 0 0 1-7.68 1.38 72 72 0 0 1-8 .49 34 34 0 0 1-16.3-3.69 25.53 25.53 0 0 1-10.68-10.56 33.29 33.29 0 0 1-3.73-16.12 36.61 36.61 0 0 1 4.18-17.85A29 29 0 0 1 500.4 47.8a37 37 0 0 1 18-4.18 46.3 46.3 0 0 1 11.37 1.29 35.85 35.85 0 0 1 8.17 3 9 9 0 0 1 3.06 2.91 6.71 6.71 0 0 1 1 3.55 6.51 6.51 0 0 1-1.77 4.53 5.7 5.7 0 0 1-4.36 2 7.54 7.54 0 0 1-3.9-1.25 32.67 32.67 0 0 0-6-2.31 29.64 29.64 0 0 0-7.45-.8q-8.35 0-13 5.64-4.65 5.64-4.62 15.35 0 8.7 4.08 13.27 4.08 4.57 12.45 4.58a33.28 33.28 0 0 0 8-1.07l.89-11.46h-5.86q-6.23 0-6.22-5.41a5.24 5.24 0 0 1 1.82-4.22 7.09 7.09 0 0 1 4.75-1.55h14.83a5.79 5.79 0 0 1 4.36 1.55zm42.19-6.62q4.92 4.37 4.93 13.15l-.09 2.93-1.42 17.58a7.72 7.72 0 0 1-2.4 5.38 8 8 0 0 1-5.59 1.9 6.91 6.91 0 0 1-4.79-1.64 6 6 0 0 1-2.05-4.3 11.08 11.08 0 0 1-4.53 4.52 13.8 13.8 0 0 1-6.75 1.6 17.7 17.7 0 0 1-7.77-1.69 13.43 13.43 0 0 1-5.5-4.66 11.64 11.64 0 0 1-2-6.62 12.48 12.48 0 0 1 2.49-8.12q2.47-3.07 7.9-4.49A59.08 59.08 0 0 1 569 80.73h3.19l.09-.63q.36-6.3-7-6.3-3.56 0-9.94 2.31a8 8 0 0 1-3 .62 4.81 4.81 0 0 1-3.64-1.51 5 5 0 0 1-1.42-3.56 6.09 6.09 0 0 1 .93-3.15 7.37 7.37 0 0 1 2.89-2.62q6.55-3.64 16.25-3.64 9.92 0 14.84 4.35zm-13 28.29a9.46 9.46 0 0 0 2.38-5.89l.09-1h-2.4q-5.32 0-7.59 1.11a3.94 3.94 0 0 0-2.26 3.89 3.82 3.82 0 0 0 1.29 3 4.88 4.88 0 0 0 3.41 1.15 6.69 6.69 0 0 0 5.11-2.26zm90.57-28.55q3.65 4.08 3.64 12.07 0 2-.09 2.94l-1.6 18.91a7.24 7.24 0 0 1-2.57 5.46 9 9 0 0 1-5.78 1.82 8.24 8.24 0 0 1-5.55-1.86 6.13 6.13 0 0 1-1.91-5.42l1.6-18.56a8.73 8.73 0 0 0-1-5.46 4.26 4.26 0 0 0-3.81-1.91 5.94 5.94 0 0 0-4.93 2.18q-1.74 2.17-2.18 7.15l-1.33 16.6a7.44 7.44 0 0 1-2.71 5.46 9.09 9.09 0 0 1-5.73 1.82 8.24 8.24 0 0 1-5.55-1.86 6 6 0 0 1-1.82-5.42L620 81.88q.53-7.56-4.79-7.56a5.87 5.87 0 0 0-4.93 2.22c-1.15 1.48-1.88 3.86-2.18 7.12l-1.33 16.6a7.24 7.24 0 0 1-2.62 5.42 9 9 0 0 1-5.73 1.86 8.24 8.24 0 0 1-5.55-1.86 6.1 6.1 0 0 1-1.91-5.42l2.49-30.63a7.28 7.28 0 0 1 2.84-5.34 9.31 9.31 0 0 1 5.71-1.86 7.54 7.54 0 0 1 4.62 1.37 5.29 5.29 0 0 1 2.13 3.87 16.59 16.59 0 0 1 5.81-4.09 19.39 19.39 0 0 1 7.44-1.33 14.84 14.84 0 0 1 7.43 1.75 11.82 11.82 0 0 1 4.84 5.06 18.88 18.88 0 0 1 6.67-5.06 19.75 19.75 0 0 1 8.26-1.73q6.91-.02 10.56 4.07zm47.9 20.73a4.07 4.07 0 0 1-3.06 1.11h-23.17q1.07 8 9.68 8a16.11 16.11 0 0 0 4.26-.49 43.8 43.8 0 0 0 4.44-1.65 7 7 0 0 1 2.76-.7 3.58 3.58 0 0 1 3.06 1.5 6.07 6.07 0 0 1 1.11 3.64 8.27 8.27 0 0 1-.8 3.56 6.09 6.09 0 0 1-2.48 2.67 22.33 22.33 0 0 1-5.91 2.17 32.89 32.89 0 0 1-7.59.84 27.61 27.61 0 0 1-12.39-2.66 20 20 0 0 1-8.34-7.52 21.19 21.19 0 0 1-3-11.32 25.89 25.89 0 0 1 2.88-12.3 21.6 21.6 0 0 1 8-8.57 22 22 0 0 1 11.55-3.11q9.51 0 14.79 5.73 5.28 5.73 5.27 16a4.13 4.13 0 0 1-1.06 3.1zm-23.53-12.25a10.5 10.5 0 0 0-2.53 5.91h14.13a9.35 9.35 0 0 0-1.73-5.82 5.81 5.81 0 0 0-4.76-2 6.93 6.93 0 0 0-5.1 1.91zm62.52-10.97c1.1 1.07 1.52 2.67 1.29 4.8a7.72 7.72 0 0 1-2.13 5.15c-1.19 1.06-3.26 1.74-6.23 2l-2.39.27c-3.32.41-5.6 1.26-6.84 2.53s-2 3.41-2.31 6.44l-1.24 15.18a7.24 7.24 0 0 1-2.62 5.42 9 9 0 0 1-5.73 1.86 8.24 8.24 0 0 1-5.55-1.86 6.13 6.13 0 0 1-1.91-5.42l2.49-30.63a7.37 7.37 0 0 1 2.79-5.34 9 9 0 0 1 5.65-1.86 6.81 6.81 0 0 1 4.92 1.73 6.23 6.23 0 0 1 1.73 4.93 18.85 18.85 0 0 1 5.91-4.66 16.7 16.7 0 0 1 6.62-1.92l1.06-.08a5.63 5.63 0 0 1 4.49 1.46z"/></g></svg>