<svg xmlns="http://www.w3.org/2000/svg" xmlns:xlink="http://www.w3.org/1999/xlink" viewBox="0 0 1814 360"><style><![CDATA[.W{fill:#fff}.R{fill:#3e2e2e}.S{fill:#d7954e}.T{fill:#e8dccd}]]></style><path d="M390.84 254.21l-2.31-2L331 202.85l32.14-51.33 1.53-2.44.76-1.21-1.42-.25-2.82-.5-62.06-11a50.12 50.12 0 0 0-1.49-7.39l-5.67-23a8.21 8.21 0 0 0 3.91 1 8 8 0 0 0 6.91-4.18 10.64 10.64 0 0 0 1.6-8.1c3.73-2.5 5.88-6.66 6.07-11.79.28-7.52-2.53-11.91-5.19-14.36a15.09 15.09 0 0 0 1.36-13.3 50.31 50.31 0 0 0 5.6-9.25 69.7 69.7 0 0 0 6.14-23.36c.4-5.2-.5-9.08-2.67-11.51a7.43 7.43 0 0 0-4.35-2.45 39.59 39.59 0 0 0-7.82-.79c-10.21 0-21.07 4.05-31.42 11.72-1.55 1.14-3.08 2.36-4.56 3.63a16.6 16.6 0 0 0-6.72 2.3 12.87 12.87 0 0 0-9.68-4.14 16.77 16.77 0 0 0-2.73.23c-2.58-5.2-8.49-13.52-20.51-15.36a20.93 20.93 0 0 0-3.35-.27c-7.65 0-13.93 4.58-17.33 12.62a12.15 12.15 0 0 0-4.83-1 11 11 0 0 0-7.5 2.95 11.73 11.73 0 0 0-4.44-1 63.1 63.1 0 0 0-15.73-13.06C164.93.63 157.17 0 154.3 0a11.75 11.75 0 0 0-6.75 1.66c-14.41 10.24-4.39 40.91-.82 50.47a17.44 17.44 0 0 0-.14 2.28c-3.26 5.18-4.07 9.89-2.42 14a11.88 11.88 0 0 0 4.44 5.39v.83c-3.89 5.53-4.07 11-.44 14.21a10.64 10.64 0 0 0 7.27 2.94 11.22 11.22 0 0 0 1.64-.13 7.08 7.08 0 0 0 1.68 1.4 8 8 0 0 0 1.61 3.45c.13.17.28.33.43.49-2.52 7.44-6.83 20.56-9.54 30.89l-10.42-8.35c-.59-.52-1.13-1-1.59-1.33a47.23 47.23 0 0 0-25.67-10.2c-1.31-.11-2.64-.16-3.94-.16A47.11 47.11 0 0 0 72.44 126c-.53.68-1 1.32-1.45 2a46.88 46.88 0 0 0-3.67 4 47.64 47.64 0 0 0-10.17 26.89l-42.1 6.18-4.72.69-2.33.35 1.93 1.39 3.87 2.79 46 33.25-55.68 37.88-2.75 1.87-1.37.93 1.49.74 3 1.46 63 31.09 1.17 18 .07 1.11v.55l.49.25 1 .5.75.38.41.2.21.1h0l122.28 60.33.93.46.82.41.41.2.41-.19.84-.37 1-.44 123-55.33.3-.14.47-.2 1.09-.48.54-.24V302l.07-1.18 1-15.41 63.08-28.35 2.78-1.25 1.39-.63z" class="R"/><path d="M319.96 284.4l-.93 14.98-121.9 54.81V251.86l63.74 59.12 59.09-26.58z" fill="#b67e4a"/><path d="M195.19 251.74v102.39L73.41 294.04l-1.14-17.41 59.23 29.23 63.69-54.12z" fill="#cb9966"/><path d="M322.57 203.8l-116.7 41.38v-70.32l116.7 28.94z" fill="#b67e4a"/><path d="M203.93 174.82v71.04l-7.77 2.76h-.01L70.07 203.86l133.86-29.04z" fill="#cb9966"/><path d="M171.24 179.93L66.77 202.6l-46.3-33.44 128.41-18.82 3.91 1.7c2.21 9.11 7.87 19.2 18.45 27.89z" fill="#e1b98d"/><path d="M211.71 237.42a42.41 42.41 0 0 1-3.58 4l-1.54 2.08-.36.45a44.36 44.36 0 0 1-7.63 7.45c-1.1.85-4.35-1.4-4.35-1.4l-2-.72-61.29-21.77-2.54-.9a45.45 45.45 0 0 1-1.42-10.17l-13.29-10.63a44.24 44.24 0 0 1-36.9-8.81 45.3 45.3 0 0 1-7.2-63.21 43.77 43.77 0 0 1 3.63-4.07l1.49-2a44.39 44.39 0 0 1 35-17l3.66.15a44.27 44.27 0 0 1 24.06 9.63c.53.4 1 .82 1.53 1.29l63.9 51.21 1.59 1.2a45.28 45.28 0 0 1 7.24 63.22z" class="R"/><path d="M135.87,227.41q-2.76-1-5.53-2a.65.65,0,0,1-.05-.2,41.89,41.89,0,0,1-1.11-9.84l-14.89-11.93a42.09,42.09,0,0,1-36.1-8.16,43.06,43.06,0,0,1-10.57-54.48A45.3,45.3,0,0,0,82,190.9a44.23,44.23,0,0,0,36.92,8.82l13.26,10.63a44.73,44.73,0,0,0,3.61,16.82Z" class="S"/><path d="M203.05 175.93l-1.54-1.18-64-51.3-1.48-1.25a42.05 42.05 0 0 0-22.85-9.2l-3.45-.14a42.21 42.21 0 0 0-26.73 9.5 42.89 42.89 0 0 0-4.44 4.19l-2.13 2.5-1.55 2.1a43.06 43.06 0 0 0 8.41 58 42.09 42.09 0 0 0 36.1 8.16l14.89 11.93a42.84 42.84 0 0 0 4.32 19l.12.25 23.61 8.18h.1l32.28 11.47h0a42.06 42.06 0 0 0 11.56-8.1 45.22 45.22 0 0 0 3.58-4l.38-.5a40.81 40.81 0 0 0 3.37-5.16 43 43 0 0 0-10.55-54.45z" fill="#f3c247"/><path d="M197.05 197.91a8.5 8.5 0 0 0-12 1.31v.07a8.68 8.68 0 0 0 1.38 12.11 8.53 8.53 0 0 0 4.61 1.85 7.86 7.86 0 0 0 1.68 0 8.5 8.5 0 0 0 5.73-3.26 8.65 8.65 0 0 0-1.4-12.08z" class="R"/><path d="M196.73 208.66a6.31 6.31 0 0 1-8.86 1h-.06a6.48 6.48 0 0 1-1-9 6.32 6.32 0 0 1 8.88-1h.05a6.49 6.49 0 0 1 .99 9z" fill="#39ad36"/><path d="M178.81 231.44a6.35 6.35 0 0 1-8.91 1h0a6.49 6.49 0 0 1-1-9 6.34 6.34 0 0 1 4.25-2.37 6.53 6.53 0 0 1 1.25 0 6.32 6.32 0 0 1 3.43 1.37 6.49 6.49 0 0 1 .98 9z" fill="#e5ae1d"/><path d="M179.15 220.68a8.53 8.53 0 0 0-12 1.34h0a8.69 8.69 0 0 0 1.39 12.11 8.47 8.47 0 0 0 4.6 1.84 8 8 0 0 0 1.69 0 8.44 8.44 0 0 0 5.74-3.21 8.69 8.69 0 0 0-1.42-12.08zm-.34 10.76a6.35 6.35 0 0 1-8.91 1h0a6.49 6.49 0 0 1-1-9 6.34 6.34 0 0 1 4.25-2.37 6.53 6.53 0 0 1 1.25 0 6.32 6.32 0 0 1 3.43 1.37 6.49 6.49 0 0 1 1 9zM176 200.05a8.39 8.39 0 0 0-6.29-1.81 8.49 8.49 0 0 0-5.73 3.2 8.69 8.69 0 0 0 1.38 12.11 8.5 8.5 0 0 0 4.61 1.84 8 8 0 0 0 1.69 0 8.49 8.49 0 0 0 5.74-3.2 8.66 8.66 0 0 0-1.4-12.14z" class="R"/><path d="M175.68 210.8a6.3 6.3 0 0 1-8.84 1h-.08a6.49 6.49 0 0 1-1-9 6.29 6.29 0 0 1 4.26-2.39 6.53 6.53 0 0 1 1.25 0 6.32 6.32 0 0 1 3.43 1.37 6.48 6.48 0 0 1 .98 9.02z" fill="#cb2c23"/><path d="M199.6 219a8.52 8.52 0 0 0-12 1.35h0a8.67 8.67 0 0 0 1.38 12.1 8.41 8.41 0 0 0 4.61 1.85 7.86 7.86 0 0 0 1.68 0 8.44 8.44 0 0 0 5.73-3.21 8.67 8.67 0 0 0-1.4-12.09z" class="R"/><path d="M199.26,229.69a6.3,6.3,0,0,1-8.86,1.05l-.06-.05a6.48,6.48,0,0,1-1-9,6.32,6.32,0,0,1,4.26-2.38,6.41,6.41,0,0,1,5.66,10.38Z" fill="#1780c2"/><path d="M152.15 175.05l-.34-1.74a4.63 4.63 0 0 0-4.13-3.71 5 5 0 0 0-1.28.07l-19.4 3.88a4.64 4.64 0 0 0-3.61 5.43l.34 1.73a4.61 4.61 0 0 0 4.14 3.71 5 5 0 0 0 1.28-.07l19.35-3.88a4.62 4.62 0 0 0 3.65-5.42z" class="R"/><path d="M148.11 178.3l-19.37 3.89a2.42 2.42 0 0 1-2.82-1.92l-.34-1.73a2.42 2.42 0 0 1 1.89-2.85l19.35-3.87a2.58 2.58 0 0 1 .68 0 2.41 2.41 0 0 1 2.15 1.94l.35 1.74a2.43 2.43 0 0 1-1.89 2.8z" fill="#cb2c23"/><path d="M165.53 185.75l-.34-1.74a4.68 4.68 0 0 0-4.15-3.7 4.93 4.93 0 0 0-1.27.07l-19.37 3.87a4.63 4.63 0 0 0-3.61 5.43l.34 1.74a4.62 4.62 0 0 0 4.14 3.7 4.52 4.52 0 0 0 1.27-.07l19.36-3.88a4.62 4.62 0 0 0 3.63-5.42z" class="R"/><path d="M161.48 189.05l-19.37 3.88a2.43 2.43 0 0 1-.66 0 2.4 2.4 0 0 1-2.16-1.94l-.34-1.73a2.41 2.41 0 0 1 1.87-2.85h0l19.36-3.88a2.43 2.43 0 0 1 .66 0 2.39 2.39 0 0 1 2.16 1.94l.35 1.73a2.41 2.41 0 0 1-1.87 2.85z" fill="#3ba93e"/><use xlink:href="#B" class="S"/><path d="M116.65 129.43a26 26 0 0 0-36.48 3.95l-.22.28a26.5 26.5 0 0 0 4.23 37 25.71 25.71 0 0 0 14.07 5.64 25.24 25.24 0 0 0 5.14-.08 25.87 25.87 0 0 0 17.49-9.79 26.51 26.51 0 0 0-4.23-37z" class="R"/><path d="M115.28 131.14a23.77 23.77 0 0 0-33.42 3.61c-.06.09-.13.17-.19.25a24.34 24.34 0 0 0 3.88 34 23.78 23.78 0 0 0 33.45-3.64l.19-.25a24.32 24.32 0 0 0-3.91-33.97z" class="S"/><path d="M114.2 152.69l-5.2-4.18 4.14-5.27a5.17 5.17 0 0 0-.82-7.22l-2.75-2.2a5.08 5.08 0 0 0-7.2.83l-4.12 5.23-5.25-4.16a5 5 0 0 0-2.77-1.1 5.09 5.09 0 0 0-4.44 1.93l-2.17 2.77a5.16 5.16 0 0 0 .82 7.21l5.22 4.19-4.11 5.28a5.16 5.16 0 0 0 .82 7.21l2.75 2.21a5 5 0 0 0 2.76 1.1 5.09 5.09 0 0 0 4.44-1.93l4.13-5.24 5.19 4.16a5 5 0 0 0 2.77 1.11 5.12 5.12 0 0 0 4.44-1.94l2.18-2.78a5.17 5.17 0 0 0-.83-7.21z" class="R"/><use xlink:href="#B" fill="#906967"/><path d="M104.73 138.54l4.02 3.22-.42-3.64-3.6.42zM88.21 144l3.19-4.06-3.61.42.42 3.64zm18.69 14.97l3.19-4.04.42 3.63-3.61.41zm-16.92-1.71l4.02 3.22-3.6.42-.42-3.64z" fill="#dcd6c1"/><path d="M357.52 151.41l-32 51.11L267 188l2.44-1.25c5.95-3.26 11.9-8.1 18.26-16.06 8.12-10.16 9.45-21.75 9-30.06zM194.25 250l-63.04 53.56-121.63-60 57.11-38.85L194.25 250zm188.82 3.92L261.24 308.7l-63.25-58.68 127.75-45.28 57.33 49.18z" fill="#e1b98d"/><path d="M273.58 174c-.18-1.54-1.43-2.32-3.74-2.32h0c-5.29 0-21.1 3-34 6-27.61 6.38-28.4 8.88-28.81 10.21a2.64 2.64 0 0 0 1 3c11.66 8.25 22.93 23.71 27.75 31.54a76.48 76.48 0 0 1 5.38 11.22l48-16.86A100.93 100.93 0 0 1 273.58 174z" class="R"/><path d="M287.06 217.46l-43.81 15.39a79.2 79.2 0 0 0-5.59-11.68 142.67 142.67 0 0 0-18.46-23.64 52.49 52.49 0 0 0 11.1 1.27h.92c10.44 0 16.39-2.51 20-5.39 6.33-1.68 12.28-3.38 18.23-6.64 1.25-.69 2.51-1.44 3.76-2.28a106.62 106.62 0 0 0 13.85 32.97z" class="T"/><path d="M315.48 22.22a66.84 66.84 0 0 1-5.77 22.31 46.51 46.51 0 0 1-6.36 10.07c3 5.6.8 10.94-1.93 14.37 3.25 1.9 6.53 6 6.25 13.6-.24 6.46-3.8 9.31-6.8 10.56a6.41 6.41 0 0 1 .72 1.68 7.62 7.62 0 0 1-1.15 6.23 5.18 5.18 0 0 1-4.46 2.8c-2.54 0-4.73-2.11-6.06-3.79a5.71 5.71 0 0 1-2.19.51c2.56 9.51 6.56 26.24 7.2 28.92.53 1.74 6.85 23.62-7.22 41.23-6.36 8-12.31 12.8-18.26 16.06s-11.9 5-18.23 6.64c-3.61 2.88-9.56 5.39-20 5.39h-.92c-7.82-.15-13.13-1.49-16.67-3.15-.7-.08-1.23-.16-1.56-.21a20.8 20.8 0 0 1-3.16.21c-4.83 0-12.9-1.18-23.9-6.8-26.65-13.58-34.54-34.88-33.21-49 .87-9.28 9.17-34.24 12.51-44a4 4 0 0 1-1.63-1.22 5.59 5.59 0 0 1-1.15-3.63 4.4 4.4 0 0 1-3.08-2.78 7.73 7.73 0 0 1-3 .6 7.82 7.82 0 0 1-5.33-2.21c-3.17-2.83-1.31-7.59 1.49-11.2a6.6 6.6 0 0 1 .25-3.15 9.83 9.83 0 0 1-5-5c-1.35-3.37-.46-7.44 2.65-12.09v-.71a16.34 16.34 0 0 1 .23-2.71c-4.88-12.72-12.09-39.54-.5-47.77a9 9 0 0 1 5.07-1.1c2.66 0 9.8.57 19 5.86a60.66 60.66 0 0 1 15.9 13.36h.84a9.08 9.08 0 0 1 5.38 1.84 8.86 8.86 0 0 1 7-3.71 11 11 0 0 1 6.41 2.38c1.79-6.25 6.43-14 15.75-14a18.79 18.79 0 0 1 2.9.23c12.39 1.94 17.52 11.46 19.29 16a14.65 14.65 0 0 1 4.4-.73 10.2 10.2 0 0 1 9 5.18 15 15 0 0 1 8.54-3.41 80.2 80.2 0 0 1 5.12-4.13c9.84-7.29 20.1-11.14 29.69-11.14a36.55 36.55 0 0 1 7.31.74 4.44 4.44 0 0 1 2.69 1.52c1.63 1.82 2.29 4.97 1.95 9.35z" class="R"/><path d="M285.88 169.38c-11.09 13.9-20.82 17.9-31.79 21a25.77 25.77 0 0 0 2.08-3.3 30.12 30.12 0 0 1 .66-1.16 1.09 1.09 0 0 0-.32-1.51h0a1.12 1.12 0 0 0-1.52.33c-.13.22-.29.46-.43.72l-.32.58a18 18 0 0 1-4.12 5.44h0a16.09 16.09 0 0 1-2.59 1.82 25.83 25.83 0 0 1-9.54 3c-1.76.2-3.61.33-5.54.4h-2.18a46.53 46.53 0 0 1-11.81-1.51 25.44 25.44 0 0 1-4.22-1.56 12.79 12.79 0 0 1-5.22-4.07 2.5 2.5 0 0 1-.21-.35 1.1 1.1 0 0 0-1.5-.41 1.11 1.11 0 0 0-.5 1.3 10.08 10.08 0 0 0 3 3.44h-1c-4.06 0-11.92-1-22.9-6.58-27.19-13.89-33.13-35.09-32-46.86a9.41 9.41 0 0 1 .13-1.12l.09-.61a4.24 4.24 0 0 1 .11-.67c.11-.65.25-1.35.4-2.09a13.51 13.51 0 0 1 .18-.82 40.76 40.76 0 0 1 .35-1.54l.42-1.78.43-1.67.58-2.18.36-1.31a1.55 1.55 0 0 1 .07-.23c.08-.32.17-.65.27-1 .46-1.69 1-3.4 1.5-5.15.15-.54.32-1.08.48-1.62l.24-.81.73-2.36.77-2.46.47-1.49 1.52-4.7.45-1.38.41-1.25 1.12-3.36.44-1.3.66-2c.12-.33.23-.65.32-1a5.58 5.58 0 0 0 1-.12l.21-.06.21-.1c4.52-2.17 5.54-5.66 5.37-8.25a6.27 6.27 0 0 0 2.64-2.67 15.7 15.7 0 0 0 6.66 1.64 12 12 0 0 0 8.55-3.64 8.87 8.87 0 0 0 6.16 2.67 8.55 8.55 0 0 0 2.7-.46 6 6 0 0 0 4.66 2.57 4.86 4.86 0 0 0 2.25-.55c1.53 3 5 7.13 12.59 9.28a20.47 20.47 0 0 0 5.4.76c8.36 0 14.8-5.29 18-8.54 1.73 2.47 3.75 3.72 6 3.72a8 8 0 0 0 5.43-2.54 6.68 6.68 0 0 0 4.83 2.42 6.28 6.28 0 0 0 4.17-1.78c4.88 6.38 9.68 9.61 14.28 9.61a9.33 9.33 0 0 0 5.48-1.74 6.59 6.59 0 0 0 2.22 1.7h0l2 7.59c.05.24.12.47.18.71l1.68 6.73c.08.35.17.69.25 1l1.07 4.32c.08.32.15.64.23 1l1.49 6.17a1.76 1.76 0 0 0 .1.41.38.38 0 0 1 0 .15 1.93 1.93 0 0 0 .1.43 1.6 1.6 0 0 0 .05.21 1.43 1.43 0 0 0 .09.37l.19.8v.09s7.02 22.02-6.77 39.28zM313.29 22c-.45 5.74-2.67 20-11.31 30.63a12.85 12.85 0 0 0-2.52-2.53h0a11 11 0 0 0-6.76-2.25 12.89 12.89 0 0 0-3.49.48 3.83 3.83 0 0 0-.33-.46 4.66 4.66 0 0 0-2.12-1.39 3.76 3.76 0 0 0-.74-2.09A3.6 3.6 0 0 0 283 43a7.15 7.15 0 0 0-1.78.25c0-3.6-.3-8.85-2.41-12l-.1-.14a6.73 6.73 0 0 0-.74-.95 13.11 13.11 0 0 0-6.28-4c7.3-6.09 18.79-13.41 31.82-13.41a33.59 33.59 0 0 1 7 .71s3.43.19 2.78 8.54zM154.31 5.11a7.38 7.38 0 0 0-3.81.73c-9.52 6.76-4.36 29.35.32 42.64a8.37 8.37 0 0 1 1.07-1.55 6.57 6.57 0 0 1 2-1.55h0a8.16 8.16 0 0 1 3.49-.85 12.61 12.61 0 0 1 .78-7.5 9.72 9.72 0 0 1 6.52-5.1 7 7 0 0 1 1.92-.27 10 10 0 0 1 6.73 3.17 4.42 4.42 0 0 1 1.71-.44A5 5 0 0 1 176 32a4.12 4.12 0 0 1 3.28-1.43 5.23 5.23 0 0 1 .56 0 13.06 13.06 0 0 1 .79-2.51 10.66 10.66 0 0 1 1.14-2 9.22 9.22 0 0 1 4.84-3.48c-12.3-13.78-25.69-17.46-32.3-17.47z" class="T"/><path d="M181.82 26.08a9.66 9.66 0 0 0-1.14 2 12.2 12.2 0 0 0-.79 2.51 5.23 5.23 0 0 0-.56 0A4.1 4.1 0 0 0 176 32a5.08 5.08 0 0 0-1 2.36 4.13 4.13 0 0 0-1.71.44 10 10 0 0 0-6.73-3.17 7 7 0 0 0-1.92.27 9.72 9.72 0 0 0-6.52 5.1 12.61 12.61 0 0 0-.78 7.5 8.12 8.12 0 0 0-3.49.85c-4.49-12-8.31-27-.18-32.79 2.55-1.75 14.83.22 28.15 13.52zm127.18.61c-1 4.65-3.27 14.74-9.49 23.45a11.12 11.12 0 0 0-6.76-2.25 12.89 12.89 0 0 0-3.49.48 2.79 2.79 0 0 0-.33-.46 4.61 4.61 0 0 0-2.12-1.39 3.78 3.78 0 0 0-.74-2.09A3.6 3.6 0 0 0 283 43a7.64 7.64 0 0 0-1.78.25c0-3.6-.4-9-2.51-12.18 7.94-8.4 17.91-15 28.61-12.76 0 .04 3.11 1.56 1.68 8.38z" fill="#e38569"/><path d="M297.4 69.87s6.27-5 4.9-11.52a.61.61 0 0 0-.07-.34 6.74 6.74 0 0 1-.21-.69c-.1-.31-.22-.61-.35-.91s-.2-.44-.31-.66l-.18-.31-.05-.09a8 8 0 0 0-.28-.45l-.34-.51a14.98 14.98 0 0 0-.64-.83l-.46-.52-.49-.49-.47-.41-.25-.2h-.05a10 10 0 0 0-1.89-1.12l-.48-.18a8.66 8.66 0 0 0-1.89-.44h-1.19a11.76 11.76 0 0 0-5.1 1.24c.5-2.78-2.33-3-3.09-3h-.18c.68-2.41-.14-3.12-1.33-3.12a11.05 11.05 0 0 0-4.09 1.4s.16-2 .09-4.49v-.67a8 8 0 0 0-.08-1.38l-.06-.72a10.51 10.51 0 0 0-.17-1.47 4.66 4.66 0 0 0-.13-.82 16.57 16.57 0 0 0-.45-2 5.22 5.22 0 0 0-.18-.56 3.89 3.89 0 0 0-.22-.6 7.71 7.71 0 0 0-.52-1.13 7.39 7.39 0 0 0-.42-.66 2.61 2.61 0 0 0-.37-.44 14.03 14.03 0 0 0-.87-.86c-.14-.14-.29-.26-.43-.38l-.44-.35-.39-.29a1.2 1.2 0 0 0-.24-.15 2.66 2.66 0 0 0-.45-.29 3.72 3.72 0 0 0-.48-.27l-.46-.23-.44-.19a8.55 8.55 0 0 0-1.39-.42 2.14 2.14 0 0 0-.43-.07 7.64 7.64 0 0 0-.82-.1h-1.12l-.56.06h0a3.35 3.35 0 0 0-.54.08 3.15 3.15 0 0 0-.42.09l-.28.07-.87.26a12.1 12.1 0 0 0-2.16 1l-.63.37-.69.47-.31.22a17.24 17.24 0 0 0-.86.69l-.45.39a4.68 4.68 0 0 0-.56.53.5.5 0 0 0-.15.14l-.43.45c-1.9-5.27-5.34-6.6-8.34-6.6a13.25 13.25 0 0 0-5.75 1.44S241.9 13.33 227.12 11a15.71 15.71 0 0 0-2.56-.22c-12.48 0-14.38 15.89-14.38 15.89a18.44 18.44 0 0 0-3.46-2.89l.48 4.73a1.07 1.07 0 0 1-1 1.19h-.14a1.11 1.11 0 0 1-1.1-1l-.62-6.05a6.16 6.16 0 0 0-2-.32 5.47 5.47 0 0 0-.9.08l.64 6.14a1.09 1.09 0 0 1-1 1.2h-.1a1.1 1.1 0 0 1-1.08-1l-.58-5.6a9.77 9.77 0 0 0-3.52 4.14 7.37 7.37 0 0 0-4.84-3 5.63 5.63 0 0 0-1-.09h-.45a8.1 8.1 0 0 0-1.3.16 7 7 0 0 0-4.88 3.21 11.46 11.46 0 0 0-1.61 5.82 5.72 5.72 0 0 0-2.44-.7c-3 0-2.19 4.61-2.19 4.61a2.52 2.52 0 0 0-3.56-.19 2.7 2.7 0 0 0-.52.65s-2.88-4-6.49-4a4.87 4.87 0 0 0-1.31.18c-9.26 2.63-4.9 13.1-4.9 13.1a11.22 11.22 0 0 0-2.76-.4 5.65 5.65 0 0 0-2.93.73 6.21 6.21 0 0 0-2.62 4.28 13.86 13.86 0 0 0-.23 4.21c-.09.11-.16.24-.24.35-8.6 12.59 3.61 15 3.61 15A4.41 4.41 0 0 0 154 76s-5.49 6.3-2.44 9a5.72 5.72 0 0 0 3.87 1.64 7.22 7.22 0 0 0 4.81-2.32c-.54 4 1.25 4.66 2.52 4.66a3.92 3.92 0 0 0 1.13-.17c-.65 3.18.13 4.46 1.06 5a2.86 2.86 0 0 0 1.25.29 3.71 3.71 0 0 0 .67-.07l.41-.21c5.26-2.81 3.38-7.49 3.38-7.49a4.53 4.53 0 0 0 3.73-4.56 15.08 15.08 0 0 0 8.07 2.73 10.38 10.38 0 0 0 8.58-4.9c2.17 3.07 4.43 3.89 6.21 3.89a6.28 6.28 0 0 0 3.44-1.06c1.42 2.41 2.77 3.17 3.92 3.17 1.92 0 3.25-2.14 3.25-2.14s.9 7.77 12.19 11a17.66 17.66 0 0 0 4.8.67c10.76 0 18.29-10.13 18.29-10.13 1.88 4 3.89 5.27 5.66 5.27 3.08 0 5.5-3.84 5.5-3.84 1.77 2.78 3.39 3.69 4.76 3.69 2.57 0 4.26-3.21 4.26-3.21 6 8.74 10.8 11 14.19 11a7.44 7.44 0 0 0 5.8-2.88 11.09 11.09 0 0 0 .78 1.27 4.33 4.33 0 0 0 2.88 2h.44a4.51 4.51 0 0 0 2.97-1.3s2.74 4.6 5.5 4.6a3.08 3.08 0 0 0 2.58-1.77c3.27-5.23-2-8-2-8s8.59 0 8.94-9.44c.39-11.39-8-12.52-8-12.52zM174 67.7h0c-.55 0-6.56-.07-9.46-3.23a5.89 5.89 0 0 1-.53-.68h0a4.73 4.73 0 0 1-.92-3 4.17 4.17 0 0 1 .19-1.11 6.14 6.14 0 0 1 .4-1 5.4 5.4 0 0 1 .94-1.29 1.1 1.1 0 0 1 1.56 1.55 2.92 2.92 0 0 0-.48.63 3.06 3.06 0 0 0-.39 1 2.69 2.69 0 0 0 .13 1.26 3.54 3.54 0 0 0 .74 1.16 7.63 7.63 0 0 0 3.67 2h0a16.29 16.29 0 0 0 4.16.56 1.1 1.1 0 0 1 .21 2.19.74.74 0 0 1-.21 0zm14 9.3a2.44 2.44 0 0 1-.1.24c-.78 1.57-3.4 1.88-5.84.67a6.63 6.63 0 0 1-1.55-1 4.85 4.85 0 0 1-1.57-2.22 2.44 2.44 0 0 1 .1-1.8c.78-1.58 3.39-1.88 5.84-.68a6.36 6.36 0 0 1 2.84 2.59A2.82 2.82 0 0 1 188 77zm3.47-3.32c-.39.78-1.7.93-2.92.33s-1.9-1.73-1.51-2.51 1.69-1 2.92-.34 1.9 1.7 1.51 2.5zm1.34-26.16a10.61 10.61 0 0 1-5.43 1.87h-.45a4.94 4.94 0 0 1-2-.52 5.16 5.16 0 0 1-1.68-1.32 5.32 5.32 0 0 1-.67-.89 6.43 6.43 0 0 1-.54-1 11 11 0 0 1-.91-3.29 1.09 1.09 0 0 1 2.17-.22 9.45 9.45 0 0 0 .43 1.82 6.14 6.14 0 0 0 .46 1.09 4.89 4.89 0 0 0 .61.94 3.17 3.17 0 0 0 1.12.9 4.62 4.62 0 0 0 3.91-.26h0a14 14 0 0 0 1.8-.94 1.1 1.1 0 0 1 1.5.36 1.09 1.09 0 0 1-.35 1.5h0zm27.87 21.65a1.08 1.08 0 0 1-1.52.3l-3.51-2.34a13.27 13.27 0 0 1-4.3 1.94l-2 4.1a1.07 1.07 0 0 1-1 .61 1.37 1.37 0 0 1-.48-.1 1.12 1.12 0 0 1-.5-1.48l1.36-2.75h-.56a14.71 14.71 0 0 1-3.1-.33c-5.8-1.22-8.28-4-9.34-6.16a8.31 8.31 0 0 1-.88-4.57 1.1 1.1 0 0 1 1.24-.93 1.08 1.08 0 0 1 .93 1.21h0c0 .29-.68 6.35 8.51 8.28a11.72 11.72 0 0 0 12.45-5.23 1.09 1.09 0 0 1 1.52-.3 1.11 1.11 0 0 1 .38 1.4 13.9 13.9 0 0 1-2.4 2.84l2.91 2a1.08 1.08 0 0 1 .29 1.51h0zm45.62-18.1a1.22 1.22 0 0 1-.52.51 2.18 2.18 0 0 1-1.09.24 2.62 2.62 0 0 1-.84-.1 1.05 1.05 0 0 1-.35-.08 4.43 4.43 0 0 1-.88-.33c-1.58-.78-2.49-2.15-2-3.06a1.86 1.86 0 0 1 1.92-.74 4.15 4.15 0 0 1 1.15.25h0a3.51 3.51 0 0 1 .61.24 6.38 6.38 0 0 1 .67.38 5.58 5.58 0 0 1 .6.49 2 2 0 0 1 .73 2.18zm1.05-7.52a3.19 3.19 0 0 1-3.08 1.38 6.33 6.33 0 0 1-1.15-.13 6.4 6.4 0 0 1-1.14-.31 6.87 6.87 0 0 1-1.16-.47c-2.8-1.37-4.41-3.81-3.6-5.44.57-1.16 2.21-1.6 4.12-1.27h0a7.06 7.06 0 0 1 1.1.27 6.82 6.82 0 0 1 1.13.45l.17.08c2.79 1.35 4.37 3.78 3.61 5.42zm21.55 41.9a10.62 10.62 0 0 1-4.76 1.16 10.84 10.84 0 0 1-6.48-2.22 1.1 1.1 0 0 1 1.4-1.69 8.43 8.43 0 0 0 8.87.78c4.72-2.32 3.51-7.5 3.46-7.72a1.1 1.1 0 0 1 2.13-.54 8.92 8.92 0 0 1-4.62 10.21z" fill="#d6ba9b"/><path d="M188 77a2.44 2.44 0 0 1-.1.24c-.78 1.57-3.4 1.88-5.84.67a6.63 6.63 0 0 1-1.55-1 4.85 4.85 0 0 1-1.57-2.22 2.44 2.44 0 0 1 .1-1.8c.78-1.58 3.39-1.88 5.84-.68a6.36 6.36 0 0 1 2.84 2.59A2.82 2.82 0 0 1 188 77zm79.31-33.46a3.19 3.19 0 0 1-3.08 1.38 6.33 6.33 0 0 1-1.15-.13 6.4 6.4 0 0 1-1.14-.31 6.87 6.87 0 0 1-1.16-.47c-2.8-1.37-4.41-3.81-3.6-5.44.57-1.16 2.21-1.6 4.12-1.27h0a7.06 7.06 0 0 1 1.1.27 6.82 6.82 0 0 1 1.13.45l.17.08c2.79 1.37 4.37 3.8 3.61 5.44zm-1.05 7.52a1.22 1.22 0 0 1-.52.51 2.18 2.18 0 0 1-1.09.24 2.62 2.62 0 0 1-.84-.1 1.05 1.05 0 0 1-.35-.08 4.43 4.43 0 0 1-.88-.33c-1.58-.78-2.49-2.15-2-3.06a1.86 1.86 0 0 1 1.92-.74 4.15 4.15 0 0 1 1.15.25h0a3.51 3.51 0 0 1 .61.24 6.38 6.38 0 0 1 .67.38 5.58 5.58 0 0 1 .6.49 2 2 0 0 1 .73 2.2zm-74.83 22.61c-.39.78-1.7.93-2.92.33s-1.9-1.73-1.51-2.51 1.69-1 2.92-.34 1.9 1.72 1.51 2.52z" class="T"/><path d="M192.77 47.51a10.61 10.61 0 0 1-5.43 1.87h-.45a4.94 4.94 0 0 1-2-.52 5.16 5.16 0 0 1-1.68-1.32 5.32 5.32 0 0 1-.67-.89 6.43 6.43 0 0 1-.54-1 11 11 0 0 1-.91-3.29 1.091 1.091 0 0 1 2.17-.22 9.45 9.45 0 0 0 .43 1.82 6.14 6.14 0 0 0 .46 1.09 4.89 4.89 0 0 0 .61.94 3.17 3.17 0 0 0 1.12.9 4.62 4.62 0 0 0 3.91-.26h0a14 14 0 0 0 1.8-.94 1.1 1.1 0 0 1 1.5.36 1.09 1.09 0 0 1-.35 1.5h0zm96.13 37.92a10.62 10.62 0 0 1-4.76 1.16 10.84 10.84 0 0 1-6.48-2.22 1.1 1.1 0 0 1 1.4-1.69 8.43 8.43 0 0 0 8.87.78c4.72-2.32 3.51-7.5 3.46-7.72a1.1 1.1 0 0 1 2.13-.54 8.93 8.93 0 0 1-4.62 10.23zM175.17 66.6a1.1 1.1 0 0 1-1.09 1.1h0c-.55 0-6.56-.07-9.46-3.23a5.89 5.89 0 0 1-.53-.68h0a4.73 4.73 0 0 1-.92-3 4.17 4.17 0 0 1 .19-1.11 6.14 6.14 0 0 1 .4-1 5.4 5.4 0 0 1 .94-1.29 1.1 1.1 0 0 1 1.56 1.55 2.92 2.92 0 0 0-.48.63 3.06 3.06 0 0 0-.39 1 2.69 2.69 0 0 0 .13 1.26 3.54 3.54 0 0 0 .74 1.16 7.63 7.63 0 0 0 3.67 2h0a16.29 16.29 0 0 0 4.16.56 1.09 1.09 0 0 1 1.08 1.05zm45.47 2.56a1.08 1.08 0 0 1-1.52.3l-3.51-2.34a13.27 13.27 0 0 1-4.3 1.94l-2 4.1a1.07 1.07 0 0 1-1 .61 1.37 1.37 0 0 1-.48-.1 1.12 1.12 0 0 1-.5-1.48l1.36-2.75h-.56a14.71 14.71 0 0 1-3.1-.33c-5.8-1.22-8.28-4-9.34-6.16a8.31 8.31 0 0 1-.88-4.57 1.1 1.1 0 0 1 1.24-.93 1.08 1.08 0 0 1 .93 1.21h0c0 .29-.68 6.35 8.51 8.28a11.72 11.72 0 0 0 12.45-5.23 1.09 1.09 0 0 1 1.52-.3 1.11 1.11 0 0 1 .38 1.4 13.9 13.9 0 0 1-2.4 2.84l2.91 2a1.09 1.09 0 0 1 .31 1.51z" class="R"/><path d="M213.93 107.72a20.36 20.36 0 1 0-1 15.51 20.38 20.38 0 0 0 1-15.51zm-14.76 8.76a5.13 5.13 0 0 1-6.84 2.32 5.09 5.09 0 1 1 7.13-6.17 5 5 0 0 1-.29 3.85z" fill="#fff"/><path d="M216.06 107a22.55 22.55 0 1 0-1.14 17.19 22.54 22.54 0 0 0 1.14-17.19zM213 123.21a20.45 20.45 0 0 1-37.67-2.49 20.19 20.19 0 0 1 1-15.51A20.46 20.46 0 0 1 214 107.7a20.15 20.15 0 0 1-1 15.53zm-13.83-6.73a5.13 5.13 0 0 1-6.84 2.32 5.09 5.09 0 1 1 7.13-6.17 5 5 0 0 1-.29 3.85zm77.69-7.8a22.51 22.51 0 1 0-1.12 17.2 22.53 22.53 0 0 0 1.12-17.2zm-3.1 16.22a20.38 20.38 0 1 1-9.23-27.23 20.47 20.47 0 0 1 9.23 27.23z" class="R"/><path d="M274.78 109.39a20.37 20.37 0 1 0-1 15.51 20.14 20.14 0 0 0 1-15.51zm-14.71 8.77a5.12 5.12 0 0 1-9.43-.62 5.05 5.05 0 0 1 .25-3.89 5.11 5.11 0 0 1 9.18 4.51z" fill="#fff"/><path d="M260.07 118.16a5.12 5.12 0 0 1-9.43-.62 5.05 5.05 0 0 1 .25-3.89 5.114 5.114 0 0 1 9.18 4.51zm-13.27 36.69c-.08.29-2 7.15-10.6 8.7a11.19 11.19 0 0 1-2.16.19 8.56 8.56 0 0 1-7.69-4.39 8.62 8.62 0 0 1-7.89 4.64 11.44 11.44 0 0 1-1.85-.14c-8.68-1.3-10.78-8.11-10.86-8.4a1.1 1.1 0 0 1 .73-1.36h0a1.09 1.09 0 0 1 1.36.75c.08.22 1.83 5.75 9.09 6.83a6.85 6.85 0 0 0 8.18-5.2v-.21h0a.06.06 0 0 1 0-.06l-.87-11.71a14.23 14.23 0 0 1-5.84-3.34c-3-2.56-7-7.3-6.59-9.82.61-3.58 4.92-5.55 11.79-5.41 2-.16 11.39-.69 12.35 3.57s-4.79 13.33-9.48 14.92h0l.86 11.57a1.72 1.72 0 0 1 .07.21 6.79 6.79 0 0 0 6.66 5.35 8.48 8.48 0 0 0 1.74-.17c7.26-1.29 8.84-7 8.86-7.09a1.09 1.09 0 0 1 1.33-.79 1.1 1.1 0 0 1 .81 1.36z" class="R"/><g fill="#e38569"><ellipse cx="264.02" cy="147.09" rx="11.61" ry="6.6" transform="matrix(.99521 -.097757 .097757 .99521 -13.1 26.49)"/><ellipse cx="186.69" cy="145.48" rx="6.59" ry="11.38" transform="matrix(.043096 -.999071 .999071 .043096 33.3 325.73)"/></g><g class="W"><path d="M552.58 132q12.69 11.28 12.69 30.86 0 23-13.38 35.36-13.38 12.36-38.56 12.39h-32.17l-2.59 33.76q-.81 8.59-6.1 13.49-5.29 4.9-13.88 4.89c-5.6 0-9.92-1.63-13-4.89s-4.33-7.7-3.79-13.29l8.39-106.88q.78-8.19 5.59-12.59 4.81-4.4 12.79-4.39h48.74q22.59.03 35.27 11.29zm-21.47 32.86q0-8.38-4.7-12.39-4.7-4.01-14.28-4h-26l-2.8 34.56h26.37q21.41 0 21.41-18.17zm39.45 93.72q-4.89-4.19-4.29-12.18l8.79-109.88q.6-8.39 5.89-12.59a20.13 20.13 0 0 1 12.89-4.19q7.59 0 12.48 4.19 4.89 4.19 4.3 12.59l-8.83 109.88q-.6 8-5.9 12.18a20.05 20.05 0 0 1-12.88 4.2q-7.56 0-12.45-4.2zM697 170.68q11.09 9.8 11.09 29.57 0 4.2-.2 6.59l-3.2 39.56q-.6 7.78-5.39 12.09-4.79 4.31-12.59 4.29a15.71 15.71 0 0 1-10.79-3.7 13.51 13.51 0 0 1-4.59-9.68 25 25 0 0 1-10.19 10.18 31.13 31.13 0 0 1-15.18 3.6 39.69 39.69 0 0 1-17.48-3.8 30.3 30.3 0 0 1-12.39-10.48 26.08 26.08 0 0 1-4.47-14.9q0-11.38 5.59-18.28 5.59-6.9 17.79-10.08 12.18-3.19 32.36-3.19h7.2l.2-1.4q.78-14.19-15.79-14.18-8 0-22.37 5.19a17.81 17.81 0 0 1-6.79 1.4 10.74 10.74 0 0 1-8.2-3.4 11.27 11.27 0 0 1-3.19-8 13.59 13.59 0 0 1 2.1-7.09 16.47 16.47 0 0 1 6.49-5.9q14.76-8.17 36.56-8.19 22.36.01 33.43 9.8zm-29.17 63.63q4.7-5.09 5.3-13.28l.2-2.2H668q-12 0-17.08 2.5-5.08 2.5-5.13 8.67a8.65 8.65 0 0 0 2.89 6.79 11.06 11.06 0 0 0 7.7 2.6 15 15 0 0 0 11.47-5.08zm124.38-70.72a16 16 0 0 1 8.59-2.5 17.51 17.51 0 0 1 11.39 4.1 12.61 12.61 0 0 1 5 10.09 15.34 15.34 0 0 1-1.8 6.79L759.25 289a19.88 19.88 0 0 1-6.59 7.59 15.06 15.06 0 0 1-8.19 2.4 14.18 14.18 0 0 1-10.09-4.09 13.41 13.41 0 0 1-4.3-10.09 18.15 18.15 0 0 1 2-8.2l10.39-20.77-26.57-74.36a10 10 0 0 1-.8-4.19q0-6.6 6-11.49a20.38 20.38 0 0 1 13.19-4.9 14.1 14.1 0 0 1 8.19 2.5 14.93 14.93 0 0 1 5.39 7.49l15.39 47.55 22.53-47.36a17.42 17.42 0 0 1 6.42-7.49zm83.11-14.08l-2 26h44.15q15.78 0 15.78 13.18 0 8.4-4.39 12-4.39 3.6-14.19 3.6h-43.55l-3.19 40.15q-.81 8.38-6.1 13.39a18.88 18.88 0 0 1-13.48 5q-8.21 0-12.89-5-4.68-5-3.89-13.19L840 137.76q.79-8.19 5.59-12.59 4.8-4.4 12.79-4.39h67.32q16.17 0 16.18 13.58 0 8-4.49 11.59-4.49 3.59-14.09 3.6zm139.14 14.98q3.69 3.6 2.9 10.79c-.54 5.33-2.13 9.19-4.8 11.59s-7.32 3.92-14 4.59l-5.39.6q-11.22 1.4-15.39 5.69-4.17 4.29-5.19 14.49l-2.8 34.16q-.6 8-5.89 12.18a20.14 20.14 0 0 1-12.89 4.2q-7.59 0-12.48-4.2-4.89-4.2-4.3-12.18l5.59-68.92q.81-7.8 6.3-12a20.3 20.3 0 0 1 12.68-4.2q7 0 11.09 3.9 4.09 3.9 3.9 11.09a42.07 42.07 0 0 1 13.28-10.49 37.55 37.55 0 0 1 14.89-4.3l2.39-.2q6.44-.37 10.11 3.21z"/><path d="M1099.37 216.73a9.33 9.33 0 0 1-6.89 2.5h-52.15q2.4 18 21.78 18a35.63 35.63 0 0 0 9.59-1.1 95.87 95.87 0 0 0 10-3.7 15.67 15.67 0 0 1 6.19-1.59 8.09 8.09 0 0 1 6.89 3.39 13.47 13.47 0 0 1 2.5 8.19 18.45 18.45 0 0 1-1.8 8 13.52 13.52 0 0 1-5.59 6 49.28 49.28 0 0 1-13.29 4.89 74.41 74.41 0 0 1-17.08 1.9q-15.78 0-27.87-6a44.79 44.79 0 0 1-18.78-16.88q-6.69-10.89-6.69-25.48a58.36 58.36 0 0 1 6.49-27.67 48.54 48.54 0 0 1 18.12-19.29 49.34 49.34 0 0 1 26-7q21.38 0 33.26 12.89 11.88 12.89 11.88 36.06a9.35 9.35 0 0 1-2.56 6.89zm-52.94-27.57q-4.32 4.31-5.7 13.29h31.77q-.21-8.59-3.9-13.09-3.69-4.5-10.69-4.49-7.19 0-11.48 4.29zm151.83 27.57a9.31 9.31 0 0 1-6.9 2.5h-52.14q2.4 18 21.78 18a35.63 35.63 0 0 0 9.59-1.1 95.87 95.87 0 0 0 10-3.7 15.67 15.67 0 0 1 6.19-1.59 8.09 8.09 0 0 1 6.89 3.39 13.56 13.56 0 0 1 2.5 8.19 18.45 18.45 0 0 1-1.8 8 13.52 13.52 0 0 1-5.59 6 49.28 49.28 0 0 1-13.29 4.89 74.41 74.41 0 0 1-17.08 1.9q-15.78 0-27.87-6a44.83 44.83 0 0 1-18.75-16.9q-6.69-10.89-6.69-25.48a58.36 58.36 0 0 1 6.49-27.67 48.52 48.52 0 0 1 18.08-19.27 49.34 49.34 0 0 1 26-7q21.38 0 33.27 12.89 11.89 12.89 11.85 36.06a9.33 9.33 0 0 1-2.53 6.89zm-53-27.57q-4.29 4.31-5.69 13.29h31.77q-.21-8.59-3.9-13.09-3.69-4.5-10.65-4.49-7.17 0-11.48 4.29zm200.74-3.59q3.39 3.5 3 9.69l-2.8 35q-.81 10-2.7 15.28a17.14 17.14 0 0 1-6 8.29q-4.11 3-12.29 5.39a128.48 128.48 0 0 1-17.28 3.1 158.37 158.37 0 0 1-18.08 1.1q-21.18 0-36.66-8.29a57.4 57.4 0 0 1-23.87-23.77q-8.4-15.48-8.39-36.26 0-23 9.39-40.16a65.32 65.32 0 0 1 26.68-26.57q17.28-9.39 40.45-9.39a104 104 0 0 1 25.58 2.9 81.42 81.42 0 0 1 18.38 6.69 20.12 20.12 0 0 1 6.89 6.59 15.27 15.27 0 0 1 2.29 8 14.7 14.7 0 0 1-4 10.19 12.73 12.73 0 0 1-9.79 4.4 16.87 16.87 0 0 1-8.8-2.75 72.33 72.33 0 0 0-13.39-5.19 65 65 0 0 0-16.78-1.8q-18.78 0-29.26 12.68-10.48 12.68-10.47 34.62 0 19.58 9.19 29.86 9.19 10.28 28 10.29a74.44 74.44 0 0 0 18-2.4l2-25.77h-13.19q-14 0-14-12.18a11.84 11.84 0 0 1 4.1-9.49q4.1-3.49 10.69-3.5h33.36q6.33-.05 9.75 3.45zm95-14.89q11.07 9.8 11.09 29.57 0 4.2-.2 6.59l-3.2 39.56q-.6 7.78-5.39 12.09-4.79 4.31-12.59 4.29a15.7 15.7 0 0 1-10.78-3.7 13.56 13.56 0 0 1-4.6-9.68 25 25 0 0 1-10.19 10.18 31.13 31.13 0 0 1-15.18 3.6 39.69 39.69 0 0 1-17.48-3.8 30.37 30.37 0 0 1-12.39-10.48 26.15 26.15 0 0 1-4.49-14.89q0-11.38 5.59-18.28 5.59-6.9 17.81-10.09 12.18-3.19 32.37-3.19h7.19l.2-1.4q.8-14.19-15.79-14.18-8 0-22.37 5.19a17.81 17.81 0 0 1-6.79 1.4 10.72 10.72 0 0 1-8.19-3.4 11.22 11.22 0 0 1-3.2-8 13.59 13.59 0 0 1 2.1-7.09 16.55 16.55 0 0 1 6.49-5.9q14.76-8.17 36.56-8.19 22.32.01 33.43 9.8zm-29.19 63.63q4.7-5.09 5.3-13.28l.2-2.2h-5.39q-12 0-17.09 2.5-5.09 2.5-5.09 8.69a8.66 8.66 0 0 0 2.9 6.79 11.06 11.06 0 0 0 7.69 2.6 15 15 0 0 0 11.46-5.1zm203.68-64.23q8.19 9.19 8.19 27.17 0 4.4-.2 6.6l-3.6 42.55q-.6 8.19-5.79 12.29a20.36 20.36 0 0 1-13 4.09q-7.59 0-12.48-4.2-4.89-4.2-4.3-12.18l3.6-41.76q.6-8-2.2-12.28-2.8-4.28-8.59-4.3-7.18 0-11.09 4.9-3.91 4.9-4.89 16.04l-3 37.36q-.8 8.19-6.09 12.29a20.43 20.43 0 0 1-12.89 4.09q-7.59 0-12.48-4.2-4.89-4.2-4.1-12.18L1526 205q1.17-17-10.79-17-7.2 0-11.09 5-3.89 5-4.89 16l-3 37.36q-.6 8-5.89 12.18a20.14 20.14 0 0 1-12.89 4.2q-7.59 0-12.49-4.2-4.9-4.2-4.29-12.18l5.59-68.92q.79-7.8 6.39-12a21 21 0 0 1 13-4.2 17.07 17.07 0 0 1 10.39 3.1 11.86 11.86 0 0 1 4.79 8.69 37.24 37.24 0 0 1 13.09-9.19 43.61 43.61 0 0 1 16.68-3 33.46 33.46 0 0 1 16.68 4 26.83 26.83 0 0 1 10.89 11.39 42.35 42.35 0 0 1 15-11.49 44.55 44.55 0 0 1 18.58-3.9q15.55.05 23.74 9.24zm107.77 46.65a9.29 9.29 0 0 1-6.89 2.5h-52.14q2.4 18 21.78 18a35.63 35.63 0 0 0 9.59-1.1 96.72 96.72 0 0 0 10-3.7 15.67 15.67 0 0 1 6.19-1.59 8.09 8.09 0 0 1 6.89 3.39 13.56 13.56 0 0 1 2.5 8.19 18.45 18.45 0 0 1-1.8 8 13.52 13.52 0 0 1-5.59 6 49.28 49.28 0 0 1-13.29 4.89 74.41 74.41 0 0 1-17.08 1.9q-15.78 0-27.87-6a44.85 44.85 0 0 1-18.76-16.9q-6.69-10.89-6.69-25.48a58.36 58.36 0 0 1 6.49-27.67 48.52 48.52 0 0 1 18.08-19.27 49.34 49.34 0 0 1 26-7q21.38 0 33.27 12.89 11.89 12.89 11.85 36.06a9.29 9.29 0 0 1-2.53 6.89zm-52.94-27.57q-4.29 4.31-5.69 13.29h31.77q-.21-8.59-3.9-13.09-3.69-4.5-10.71-4.49-7.17 0-11.47 4.29zM1811 164.49q3.69 3.6 2.89 10.79-.79 8-4.79 11.59-4 3.59-14 4.59l-5.39.6q-11.19 1.4-15.38 5.69-4.19 4.29-5.2 14.49l-2.8 34.16q-.6 8-5.89 12.18a20.05 20.05 0 0 1-12.88 4.2q-7.62 0-12.49-4.2-4.87-4.2-4.3-12.18l5.6-68.92q.79-7.8 6.29-12a20.31 20.31 0 0 1 12.69-4.2q7 0 11.08 3.9 4.08 3.9 3.9 11.09a42.36 42.36 0 0 1 13.29-10.49 37.46 37.46 0 0 1 14.88-4.3l2.4-.2q6.36-.37 10.1 3.21z"/></g><defs ><path id="B" d="M113.3 158.54l-2.17 2.76a2.89 2.89 0 0 1-4.06.52h0l-6.92-5.54-5.51 7a2.87 2.87 0 0 1-2.53 1.1 2.78 2.78 0 0 1-1.57-.63l-2.75-2.2a3 3 0 0 1-.47-4.14l5.49-7-6.92-5.55a3 3 0 0 1-.47-4.14l2.18-2.77a2.9 2.9 0 0 1 2.53-1.1 2.81 2.81 0 0 1 1.57.62l6.88 5.53 5.5-7a2.85 2.85 0 0 1 2.52-1.11 2.79 2.79 0 0 1 1.58.63l2.74 2.2a3 3 0 0 1 .48 4.14l-5.5 7 6.92 5.55a3 3 0 0 1 .48 4.13z"/></defs></svg>