<svg width="48" height="48" viewBox="0 0 48 48" fill="none" xmlns="http://www.w3.org/2000/svg">
<g opacity="0.4">
<path d="M32.5537 17.2116C32.4585 17.0841 32.3216 16.9943 32.1668 16.9577C31.9376 16.8955 31.7027 16.857 31.4656 16.8428C30.4349 16.8156 29.4225 17.1185 28.5761 17.7073C28.431 17.7979 28.286 17.9007 28.1409 18.0095C27.931 18.0216 27.7256 18.075 27.5364 18.1667C27.4324 18.0443 27.3051 17.9438 27.1619 17.8712C27.0187 17.7985 26.8624 17.7551 26.7022 17.7435C26.6217 17.7374 26.5409 17.7374 26.4604 17.7435C26.3155 17.3666 26.0796 17.0314 25.7738 16.7677C25.4679 16.504 25.1016 16.3201 24.7074 16.2323C24.6075 16.2123 24.5066 16.1982 24.4051 16.19C24.0608 16.1747 23.72 16.265 23.4284 16.4486C23.1367 16.6322 22.9081 16.9005 22.773 17.2176C22.643 17.1577 22.5042 17.1189 22.362 17.1028C22.1137 17.0911 21.8694 17.1683 21.6728 17.3204C21.5559 17.2586 21.4291 17.2177 21.298 17.1995C20.9176 16.716 20.4649 16.294 19.9561 15.9482C19.4197 15.5696 18.7954 15.3345 18.1426 15.2651H18.0701C17.8869 15.2534 17.7038 15.2888 17.5381 15.3679C16.1599 16.2142 16.9336 19.152 17.1633 19.9016C17.1633 19.9681 17.1633 20.0346 17.1633 20.1011C17.016 20.2686 16.912 20.4698 16.8604 20.6868C16.8087 20.9039 16.811 21.1303 16.8671 21.3463C16.9432 21.5451 17.0704 21.7202 17.2359 21.8541C17.2329 21.8761 17.2329 21.8985 17.2359 21.9206C16.855 22.3981 16.8006 22.8757 17.1089 23.1961C17.2765 23.3796 17.5079 23.492 17.7557 23.5104C17.804 23.5134 17.8525 23.5134 17.9008 23.5104C17.9426 23.5574 17.9892 23.5999 18.0398 23.6373C18.0575 23.7523 18.1009 23.8618 18.1668 23.9577L18.203 24C17.6652 25.2152 17.2226 26.4702 16.8792 27.7539C16.6616 29.0959 17.2721 31.1753 19.6961 32.6201C20.3652 33.0541 21.1275 33.3234 21.9207 33.4059C22.0092 33.412 22.0981 33.412 22.1866 33.4059H22.2531C22.7404 33.6369 23.2682 33.7704 23.8067 33.7988H23.8853C24.5601 33.8849 25.2447 33.7513 25.8378 33.418C26.3959 33.3354 26.942 33.1852 27.4639 32.9707C28.1569 32.6332 28.7739 32.1581 29.2773 31.5743C29.7257 31.0428 30.0457 30.4152 30.2124 29.74C30.379 29.0649 30.388 28.3605 30.2385 27.6814C30.1962 27.4335 30.0209 26.424 29.8697 25.6019C29.9734 25.6623 30.0889 25.6994 30.2083 25.7107C30.3367 25.7147 30.464 25.6849 30.5775 25.6245C30.6909 25.564 30.7866 25.475 30.8551 25.3662C30.9326 25.266 30.9892 25.1512 31.0214 25.0286C31.0536 24.9061 31.0607 24.7783 31.0425 24.6529C31.2197 24.5442 31.3674 24.3936 31.4728 24.2144C31.5782 24.0353 31.638 23.8329 31.6469 23.6252C31.6868 23.3911 31.6732 23.151 31.6072 22.9228C31.5413 22.6946 31.4247 22.4843 31.2661 22.3074C31.3916 22.1356 31.4751 21.9367 31.5097 21.7267C31.5444 21.5167 31.5293 21.3015 31.4656 21.0985C31.6826 20.856 31.8693 20.588 32.0217 20.3005C32.3656 19.6597 32.5967 18.9645 32.7048 18.2453C32.7901 17.8941 32.7359 17.5236 32.5537 17.2116ZM17.7436 15.7789C17.8548 15.7346 17.9757 15.72 18.0942 15.7366C18.6528 15.8285 19.1872 16.0316 19.6659 16.3337C20.1445 16.6359 20.5577 17.031 20.8809 17.4957C20.7039 17.5373 20.5449 17.6348 20.4276 17.7738C19.3032 16.5104 18.2151 16.2625 18.0096 16.4016C17.248 16.8791 17.5018 18.2453 17.8343 19.3454C17.7628 19.3725 17.6986 19.416 17.6469 19.4724C17.6045 19.5113 17.5679 19.5561 17.5381 19.6054C17.1815 18.3903 16.855 16.329 17.7436 15.7789ZM28.9267 31.2539C28.1737 32.1648 27.118 32.7742 25.9526 32.9707C26.0284 32.8815 26.0972 32.7865 26.1582 32.6866L26.2247 32.5838C26.2417 32.5658 26.2511 32.5421 26.2511 32.5173C26.2511 32.4926 26.2417 32.4688 26.2247 32.4508C26.2057 32.4334 26.1809 32.4237 26.1551 32.4237C26.1294 32.4237 26.1046 32.4334 26.0856 32.4508C26.0701 32.4699 26.056 32.4901 26.0433 32.5113L26.007 32.5596C25.9063 32.7397 25.7707 32.898 25.6081 33.0251C25.5326 33.0832 25.4516 33.1338 25.3663 33.1762C25.0906 33.3031 24.7929 33.3749 24.4898 33.3878C24.3326 33.3878 24.1633 33.3878 23.988 33.3878H23.7946C23.4366 33.3649 23.0831 33.2958 22.7428 33.1823C22.6152 33.1392 22.4917 33.0846 22.374 33.019C22.1954 32.9286 22.0433 32.7932 21.9328 32.6261V32.5899C21.927 32.5782 21.919 32.5677 21.9091 32.5592C21.8992 32.5507 21.8877 32.5443 21.8753 32.5404C21.8629 32.5364 21.8498 32.535 21.8368 32.5362C21.8238 32.5375 21.8112 32.5413 21.7998 32.5475C21.7796 32.5567 21.7632 32.5725 21.7533 32.5923C21.7434 32.6121 21.7406 32.6347 21.7454 32.6563C21.8035 32.7834 21.8905 32.8951 21.9993 32.9828H21.9086C21.1901 32.9019 20.5006 32.6534 19.8956 32.2574C17.5381 30.855 17.1271 28.9145 17.2963 27.8627V27.766V27.7116V27.6512C17.2963 27.5968 17.3265 27.5303 17.3447 27.4698V27.3973C17.356 27.3501 17.3701 27.3037 17.387 27.2582C17.387 27.2099 17.4172 27.1555 17.4353 27.1011L17.4837 26.956L17.5502 26.7626L17.5865 26.6477C17.6001 26.6209 17.6103 26.5925 17.6167 26.5631C17.6711 26.4119 17.7255 26.2608 17.7859 26.1097C17.7993 26.0605 17.8155 26.012 17.8343 25.9646L17.8645 25.8981L17.9431 25.6866L18.0277 25.4689L18.0761 25.342C18.1305 25.1969 18.1849 25.0579 18.2393 24.9309L18.2877 24.804L18.336 24.6952C18.3784 24.5924 18.4146 24.4957 18.4569 24.405C18.4992 24.3144 18.4569 24.3265 18.4992 24.2902C18.5265 24.2331 18.5507 24.1745 18.5718 24.1149L18.6081 24.0303H18.735C18.8868 23.9833 19.0199 23.8896 19.1154 23.7626C19.2108 23.6357 19.2639 23.4818 19.267 23.323C19.3721 23.275 19.459 23.1945 19.5148 23.0933C19.6988 23.2022 19.9059 23.2664 20.1193 23.2807C20.2632 23.2904 20.4077 23.2708 20.5438 23.223C20.6799 23.1752 20.8049 23.1002 20.9112 23.0026C20.9775 23.0828 21.0594 23.1487 21.1518 23.1965C21.2443 23.2442 21.3454 23.2729 21.4492 23.2807C21.5293 23.2929 21.6108 23.2929 21.691 23.2807C21.735 23.3513 21.7942 23.4112 21.8643 23.4562C21.9343 23.5011 22.0134 23.53 22.096 23.5406C22.1661 23.5405 22.2356 23.5283 22.3015 23.5043C22.4073 23.7225 22.5577 23.9159 22.7431 24.0721C22.9285 24.2283 23.1446 24.3438 23.3775 24.4111C23.5316 24.4647 23.6922 24.4972 23.855 24.5078C24.4751 24.5102 25.0724 24.2743 25.5234 23.8489C25.5717 23.9482 25.644 24.0339 25.7337 24.0983C25.8234 24.1626 25.9277 24.2037 26.0373 24.2176C26.2231 24.2198 26.4027 24.1506 26.539 24.0242C26.5889 24.0917 26.6523 24.148 26.7251 24.1896C26.798 24.2313 26.8787 24.2573 26.9621 24.266C27.1014 24.2721 27.2378 24.2245 27.343 24.133C27.4627 24.3701 27.633 24.578 27.8419 24.742C28.0508 24.906 28.2932 25.0221 28.5519 25.0821C28.7261 25.0896 28.8986 25.0455 29.0476 24.9551C29.0987 25.0237 29.1649 25.0795 29.2411 25.1183C29.2773 25.3178 29.3257 25.5596 29.3741 25.8135C29.3741 25.8135 29.3741 25.8558 29.3741 25.88L29.4829 26.4845C29.4829 26.5147 29.4829 26.551 29.4829 26.5752L29.5554 26.9681C29.5554 26.9681 29.5554 27.0285 29.5554 27.0648L29.6521 27.627C29.6521 27.627 29.6521 27.627 29.6521 27.6632C29.6521 27.6632 29.6521 27.6632 29.6521 27.6995C29.6493 27.7094 29.6493 27.7199 29.6521 27.7297C29.6521 27.766 29.6521 27.7902 29.6521 27.8023C29.7962 28.3953 29.8059 29.013 29.6804 29.6103C29.5548 30.2075 29.2974 30.7691 28.9267 31.2539ZM31.1936 23.5587C31.1905 23.6678 31.1657 23.7751 31.1207 23.8745C31.0757 23.9738 31.0114 24.0633 30.9315 24.1375C30.8516 24.2118 30.7578 24.2694 30.6554 24.307C30.553 24.3447 30.4442 24.3615 30.3352 24.3567C30.3968 24.3909 30.4501 24.4384 30.4912 24.4957C30.5323 24.553 30.5602 24.6186 30.5729 24.688C30.5856 24.7573 30.5829 24.8286 30.5647 24.8968C30.5466 24.9649 30.5137 25.0282 30.4682 25.0821C30.445 25.126 30.4102 25.1628 30.3676 25.1884C30.3249 25.214 30.2761 25.2274 30.2264 25.2271C29.9785 25.2271 29.7609 24.7798 29.7609 24.7798C29.6864 24.8471 29.5893 24.8838 29.4889 24.8826H29.4526C29.3992 24.8695 29.3493 24.8449 29.3065 24.8104C29.2637 24.776 29.2289 24.7325 29.2048 24.6831C29.1788 24.6482 29.1584 24.6095 29.1443 24.5682C29.0767 24.6429 28.9934 24.7017 28.9004 24.7403C28.8074 24.779 28.707 24.7966 28.6064 24.7919C28.2981 24.7919 27.881 24.5441 27.3974 23.722C27.3974 23.722 27.2221 24 26.9924 23.9819C26.8715 23.9819 26.7324 23.8852 26.5874 23.6252C26.5874 23.6252 26.3516 23.9577 26.0735 23.9396C25.9164 23.9396 25.7411 23.8005 25.596 23.4318C25.3833 23.6733 25.1233 23.8687 24.8323 24.0059C24.5412 24.1431 24.2251 24.2193 23.9034 24.2297C23.7589 24.2226 23.6164 24.1941 23.4803 24.1451C22.4889 23.7885 22.4526 23.0872 22.4526 23.0872C22.417 23.1365 22.3708 23.1772 22.3175 23.2065C22.2642 23.2358 22.205 23.2529 22.1443 23.2565C22.0416 23.2565 21.9267 23.1779 21.8119 22.9482C21.7181 23.0072 21.608 23.0348 21.4975 23.0268C21.3836 23.0118 21.2753 22.9685 21.1824 22.9009C21.0895 22.8334 21.015 22.7436 20.9656 22.6399C20.8752 22.7657 20.755 22.8669 20.6156 22.9345C20.4763 23.002 20.3223 23.0338 20.1676 23.0268C19.9083 23.0024 19.6621 22.9014 19.4604 22.7366C19.4553 22.8336 19.4162 22.9256 19.3498 22.9964C19.2834 23.0672 19.1941 23.1122 19.0977 23.1235C19.1326 23.2565 19.1158 23.3977 19.0507 23.5189C18.9857 23.64 18.8772 23.732 18.7471 23.7764H18.7108H18.6504C18.611 23.7773 18.5725 23.7645 18.5416 23.7401C18.4569 23.6857 18.3965 23.5708 18.4751 23.2867H18.3723C18.2575 23.2867 18.1003 23.2081 18.1728 22.8515C18.0527 22.9674 17.8924 23.0324 17.7255 23.0328C17.5959 23.0193 17.4756 22.9591 17.387 22.8636C17.1331 22.5976 17.659 22.0657 17.659 22.0657C17.6376 21.9898 17.6388 21.9094 17.6624 21.8343C17.686 21.7591 17.7311 21.6925 17.792 21.6425C17.792 21.6425 16.71 21.3584 17.5562 20.2764V20.2461C17.552 20.1198 17.5663 19.9936 17.5986 19.8713C17.6359 19.7185 17.7313 19.5862 17.8645 19.5026C17.9484 19.4666 18.0393 19.4501 18.1305 19.4542C18.2149 19.463 18.298 19.4813 18.3784 19.5087C18.3784 19.5087 18.0459 18.5415 18.8922 18.3601H19.0131C19.3395 18.3601 19.5692 18.7591 19.5692 18.7591C19.5825 18.7367 19.6012 18.718 19.6236 18.7047C19.6466 18.6864 19.673 18.6729 19.7013 18.6648C19.7295 18.6567 19.7591 18.6543 19.7883 18.6577C19.8175 18.661 19.8457 18.6701 19.8714 18.6844C19.8971 18.6987 19.9197 18.7179 19.9379 18.7409C19.9379 18.7409 19.8956 18.3238 20.1616 18.342C20.2391 18.3476 20.3139 18.3726 20.3792 18.4145C20.3922 18.231 20.4526 18.0539 20.5545 17.9007C20.6071 17.8266 20.6757 17.7652 20.7552 17.7213C20.8348 17.6773 20.9232 17.6519 21.0139 17.6468H21.1348H21.1711H21.2618C21.4331 17.6895 21.5821 17.7953 21.6789 17.943C21.7574 17.7973 21.8745 17.676 22.0174 17.5924V18.1002C22.0187 18.1244 22.0285 18.1474 22.045 18.1651C22.0616 18.1828 22.084 18.1941 22.1081 18.1969C22.1211 18.197 22.1339 18.1943 22.1458 18.189C22.1577 18.1838 22.1683 18.176 22.1769 18.1662C22.1855 18.1565 22.1919 18.145 22.1956 18.1326C22.1994 18.1201 22.2005 18.107 22.1987 18.0941V17.538H22.2773C22.3395 17.5435 22.4005 17.5577 22.4587 17.5803V18.1244C22.4586 18.149 22.468 18.1727 22.4848 18.1907C22.5017 18.2087 22.5248 18.2195 22.5493 18.2211C22.5755 18.2195 22.6001 18.208 22.6181 18.1889C22.6361 18.1698 22.6461 18.1446 22.6461 18.1183V17.6952C22.7561 17.775 22.8556 17.8684 22.9423 17.9732C22.9423 17.9732 23.2082 16.5587 24.3266 16.6313C24.4039 16.6374 24.4807 16.6496 24.5563 16.6675C24.939 16.7642 25.2868 16.967 25.5595 17.2525C25.8321 17.538 26.0187 17.8947 26.0977 18.2815C26.2641 18.2125 26.4438 18.1815 26.6236 18.1909C26.7965 18.2022 26.9605 18.2717 27.0889 18.388C27.2173 18.5043 27.3026 18.6607 27.3309 18.8316L27.3732 18.7954L27.4215 18.747L27.4639 18.7168L27.5485 18.6624H27.5787L27.6392 18.62H27.6996C27.7641 18.5906 27.8308 18.5663 27.8991 18.5475C27.9252 18.5447 27.9516 18.5447 27.9777 18.5475H28.2437H28.3162H28.3525L28.4794 18.5898H28.5157H28.558H28.5943C28.6106 18.5963 28.6251 18.6067 28.6366 18.62L28.6728 18.6503H28.7091L28.7454 18.6926L28.8179 18.7712L28.8481 18.8135L28.8844 18.8739C28.8992 18.9093 28.9113 18.9456 28.9207 18.9827V19.0371C28.9241 19.0531 28.9241 19.0696 28.9207 19.0855C28.9207 19.146 28.9207 19.2064 28.9509 19.2669C28.9811 19.3273 28.9509 19.3213 28.9509 19.3454C28.9571 19.3896 28.9571 19.4343 28.9509 19.4784V19.5389C28.9569 19.581 28.9569 19.6237 28.9509 19.6658C28.9539 19.6859 28.9539 19.7062 28.9509 19.7263C28.9509 19.9499 28.9207 20.1252 28.9207 20.1252C29.0379 20.0684 29.1654 20.0355 29.2955 20.0285C29.4043 20.0285 29.4708 20.1011 29.3982 20.3126C29.4647 20.3126 29.7186 20.3549 29.6582 20.6028C29.8051 20.5406 29.9645 20.5137 30.1236 20.5242H30.2324C30.289 20.5318 30.344 20.5482 30.3956 20.5726H30.438C30.497 20.6038 30.5518 20.6424 30.6012 20.6874C30.6182 20.6983 30.6326 20.7127 30.6435 20.7297L30.6858 20.772L30.7221 20.8204L30.7765 20.899C30.7754 20.9151 30.7754 20.9312 30.7765 20.9473V20.9897C30.779 21.0118 30.779 21.0341 30.7765 21.0562C30.7791 21.0823 30.7791 21.1086 30.7765 21.1347C30.775 21.1569 30.775 21.1791 30.7765 21.2012C30.7793 21.2111 30.7793 21.2216 30.7765 21.2315C30.8417 21.4279 30.8553 21.6377 30.8162 21.841C30.777 22.0442 30.6863 22.2339 30.5528 22.3921C30.5528 22.3921 31.2963 22.5432 31.1936 23.5587ZM32.2575 18.1909C32.1185 19.1824 31.699 20.1137 31.0485 20.8748C30.9918 20.7848 30.9226 20.7034 30.843 20.633C31.3096 20.0246 31.6469 19.3273 31.8343 18.5838C32.0157 17.9853 31.7618 17.8584 31.7618 17.8584C30.8188 17.5924 29.8818 18.1304 29.1202 18.8316C29.1035 18.8011 29.0832 18.7726 29.0597 18.747C28.9215 18.566 28.7351 18.4277 28.5217 18.348C29.3546 17.685 30.389 17.3267 31.4535 17.3325C31.6584 17.3465 31.8611 17.383 32.058 17.4413C32.058 17.4413 32.3663 17.4473 32.2575 18.1909Z" fill="black"/>
<path d="M22.8273 26.7807C22.9616 26.5511 23.0489 26.2972 23.0842 26.0336C23.1195 25.77 23.1021 25.5021 23.0329 25.2453C22.9127 24.7924 22.6392 24.3952 22.259 24.1214C21.8787 23.8476 21.4153 23.7141 20.9477 23.7437C20.4801 23.7733 20.0373 23.9641 19.6946 24.2837C19.3519 24.6032 19.1306 25.0317 19.0684 25.4961C19.0063 25.9605 19.1071 26.4321 19.3537 26.8305C19.6002 27.2289 19.9773 27.5294 20.4207 27.681C20.8641 27.8325 21.3463 27.8256 21.7851 27.6614C22.2239 27.4973 22.5923 27.186 22.8273 26.7807ZM22.3982 27.0285C22.2708 27.165 22.1217 27.2794 21.9569 27.367L21.7634 27.4638C21.6534 27.5051 21.5402 27.5375 21.4249 27.5605H21.3101C21.1556 27.5817 20.999 27.5817 20.8446 27.5605C20.6845 27.5391 20.528 27.4964 20.3792 27.4335C20.3018 27.4034 20.227 27.367 20.1555 27.3247C20.0497 27.2647 19.9504 27.1938 19.8593 27.1132L19.7384 26.9923L19.6235 26.8532L19.5208 26.7081C19.4724 26.6308 19.43 26.55 19.3938 26.4663C19.3781 26.4356 19.366 26.4031 19.3576 26.3696C19.3324 26.3226 19.3161 26.2714 19.3092 26.2185C19.2294 25.925 19.2246 25.6162 19.2954 25.3205C19.3662 25.0247 19.5102 24.7515 19.7142 24.5259L19.817 24.4171C19.8502 24.3816 19.8866 24.3492 19.9258 24.3204C19.9574 24.2909 19.9918 24.2646 20.0286 24.2418C20.0724 24.2049 20.1212 24.1743 20.1736 24.1511C20.2338 24.1124 20.2988 24.082 20.3671 24.0605C20.5171 23.994 20.6759 23.9492 20.8386 23.9275C20.9671 23.9124 21.0969 23.9124 21.2254 23.9275C21.2696 23.9216 21.3143 23.9216 21.3584 23.9275C21.5715 23.9555 21.7769 24.0254 21.9629 24.133H21.9992L22.0596 24.1753L22.1805 24.26C22.303 24.3451 22.4111 24.4492 22.5009 24.5682C22.5304 24.5977 22.5567 24.6301 22.5795 24.665C22.7995 24.9712 22.9159 25.3397 22.912 25.7168C22.9101 25.8738 22.8898 26.03 22.8515 26.1822C22.8069 26.3382 22.744 26.4883 22.6641 26.6296C22.6147 26.7148 22.5581 26.7957 22.4949 26.8714C22.473 26.9295 22.4402 26.9828 22.3982 27.0285Z" fill="black"/>
<path d="M21.298 25.3722C21.1943 25.3199 21.0748 25.3083 20.9629 25.3396C20.8511 25.3709 20.755 25.4429 20.6935 25.5415C20.654 25.6083 20.6324 25.6842 20.6306 25.7618C20.6288 25.8394 20.647 25.9161 20.6834 25.9847C20.7198 26.0532 20.7732 26.1113 20.8385 26.1533C20.9038 26.1953 20.9787 26.2198 21.0562 26.2246C21.142 26.2296 21.2275 26.2108 21.3032 26.1703C21.379 26.1298 21.442 26.069 21.4854 25.9949C21.5157 25.9434 21.5356 25.8865 21.5439 25.8274C21.5522 25.7683 21.5488 25.7081 21.5337 25.6503C21.4944 25.5304 21.4098 25.4306 21.298 25.3722Z" fill="black"/>
<path d="M25.9948 24.3265C25.6102 24.4319 25.2655 24.6488 25.0041 24.9499C24.7426 25.2509 24.5762 25.6227 24.5257 26.0182C24.4753 26.4138 24.5431 26.8154 24.7206 27.1724C24.8981 27.5295 25.1774 27.826 25.5232 28.0245C25.8689 28.2231 26.2658 28.3148 26.6636 28.2881C27.0615 28.2615 27.4425 28.1176 27.7587 27.8746C28.0749 27.6317 28.312 27.3005 28.4403 26.923C28.5685 26.5454 28.5821 26.1383 28.4793 25.7531C28.4099 25.4962 28.2906 25.2556 28.1282 25.0448C27.9657 24.8341 27.7634 24.6574 27.5326 24.525C27.3019 24.3925 27.0473 24.3068 26.7835 24.2727C26.5196 24.2386 26.2516 24.2569 25.9948 24.3265ZM28.1347 27.1918C28.0163 27.4028 27.8568 27.588 27.6657 27.7365C27.4745 27.8849 27.2556 27.9936 27.0218 28.0561C26.788 28.1187 26.5441 28.1338 26.3044 28.1006C26.0647 28.0673 25.834 27.9865 25.6261 27.8628C25.5468 27.8174 25.4719 27.7648 25.4024 27.7056C25.3493 27.6666 25.2989 27.6242 25.2513 27.5786L25.1062 27.4094C25.0583 27.3487 25.0159 27.284 24.9793 27.216C24.9078 27.1288 24.8507 27.0309 24.81 26.9258C24.81 26.8593 24.7616 26.7868 24.7435 26.7203C24.7236 26.649 24.7095 26.5762 24.7012 26.5027C24.6952 26.4646 24.6952 26.4259 24.7012 26.3878C24.6951 26.2972 24.6951 26.2064 24.7012 26.1158C24.7073 26.0344 24.7195 25.9536 24.7375 25.874C24.7544 25.7848 24.7808 25.6977 24.816 25.6141C24.8477 25.5275 24.8882 25.4445 24.9369 25.3662C25.1444 25.0037 25.4706 24.7239 25.8605 24.5742C26.2504 24.4244 26.68 24.4138 27.0768 24.5441H27.1192C27.2111 24.5768 27.3 24.6173 27.3851 24.665L27.4879 24.7194L27.5846 24.7799C27.654 24.8259 27.7188 24.8785 27.7781 24.937C27.8421 24.9899 27.899 25.0508 27.9473 25.1184C28.0568 25.2585 28.1463 25.4131 28.2133 25.5778C28.2484 25.6489 28.2748 25.724 28.2919 25.8014C28.3331 25.9531 28.3534 26.1097 28.3523 26.2669C28.3633 26.5891 28.2881 26.9083 28.1347 27.1918Z" fill="black"/>
<path d="M26.7505 25.886C26.6442 25.8256 26.5186 25.8089 26.4002 25.8393C26.2818 25.8698 26.1798 25.945 26.1158 26.0492C26.0865 26.1011 26.0676 26.1582 26.0604 26.2173C26.0531 26.2764 26.0576 26.3364 26.0735 26.3938C26.0883 26.452 26.1147 26.5066 26.151 26.5543C26.1874 26.6021 26.233 26.6421 26.2851 26.6719C26.3878 26.7261 26.5073 26.7395 26.6194 26.7092C26.7316 26.6789 26.8281 26.6072 26.8896 26.5086C26.9501 26.4067 26.9693 26.2855 26.9435 26.1698C26.9177 26.0541 26.8487 25.9526 26.7505 25.886Z" fill="black"/>
<path d="M25.4507 29.5916C25.4251 29.584 25.3975 29.5867 25.3738 29.5991C25.3501 29.6115 25.3321 29.6327 25.3238 29.6581C25.2565 29.8277 25.1422 29.9746 24.9945 30.0816C24.8468 30.1886 24.6717 30.2514 24.4896 30.2626C24.4376 30.2715 24.3844 30.2715 24.3324 30.2626C24.192 30.2556 24.0585 30.1998 23.9548 30.1049C23.8511 30.01 23.7837 29.882 23.7642 29.7428V28.6607C24.0176 28.546 24.237 28.3677 24.4011 28.1431C24.5653 27.9186 24.6687 27.6554 24.7012 27.3792C24.6407 26.9923 23.7944 26.9863 23.6131 26.9863C23.0086 26.9319 22.6036 27.083 22.525 27.4034C22.4706 27.6271 22.8031 28.0744 23.057 28.3222C23.196 28.4734 23.3705 28.5877 23.5647 28.6547V29.7125C23.5433 29.7913 23.5061 29.865 23.4555 29.929C23.4048 29.993 23.3417 30.0461 23.27 30.0851C23.1982 30.1241 23.1194 30.1481 23.0381 30.1558C22.9568 30.1634 22.8748 30.1546 22.797 30.1296C22.6194 30.1006 22.4532 30.0232 22.3167 29.9059C22.1802 29.7886 22.0787 29.6359 22.0233 29.4647C22.019 29.4439 22.0076 29.4253 21.9911 29.412C21.9745 29.3988 21.9538 29.3917 21.9326 29.3922C21.9199 29.3942 21.9078 29.3989 21.8971 29.406C21.8864 29.4131 21.8773 29.4224 21.8705 29.4333C21.8636 29.4441 21.8591 29.4563 21.8573 29.469C21.8555 29.4817 21.8565 29.4947 21.8601 29.507C21.9189 29.7168 22.0368 29.9053 22.1997 30.05C22.3626 30.1946 22.5636 30.2894 22.7789 30.3231C22.8352 30.3289 22.8919 30.3289 22.9481 30.3231C23.0925 30.3377 23.2381 30.3107 23.3677 30.2454C23.4972 30.1801 23.6055 30.0791 23.6796 29.9543C23.7404 30.081 23.8343 30.1888 23.9513 30.2665C24.0684 30.3442 24.2042 30.3888 24.3445 30.3956C24.4109 30.4017 24.4776 30.4017 24.544 30.3956C24.7616 30.3809 24.9708 30.3058 25.1481 30.1787C25.3253 30.0516 25.4636 29.8776 25.5475 29.6763C25.5434 29.6533 25.5315 29.6324 25.514 29.617C25.4964 29.6016 25.4741 29.5927 25.4507 29.5916Z" fill="black"/>
<path d="M27.0828 28.5337C26.4783 28.5337 26.0431 28.8299 26.0552 29.1382C26.0673 29.4465 26.5448 29.7427 27.1191 29.7004C27.6934 29.658 28.1528 29.4042 28.1407 29.0959C28.1286 28.7876 27.6571 28.5156 27.0828 28.5337Z" fill="black"/>
<path d="M20.234 27.9353C19.6718 27.8748 19.1882 28.0864 19.1519 28.4128C19.1157 28.7393 19.5448 29.0536 20.107 29.114C20.6692 29.1745 21.1528 28.9629 21.1891 28.6365C21.2253 28.3101 20.7961 27.9957 20.234 27.9353Z" fill="black"/>
</g>
<path opacity="0.1" d="M26.001 10.1451L25.191 15.7548C24.9491 15.6688 24.6972 15.6139 24.4414 15.5916H24.2903C23.766 15.5902 23.2591 15.7793 22.8637 16.1235L21.9993 10.1451C23.3262 9.95171 24.6741 9.95171 26.001 10.1451Z" fill="black"/>
<path opacity="0.1" d="M32.6563 13.0224L29.9481 16.4136C29.3392 16.5867 28.7603 16.8517 28.2314 17.1995L27.8989 17.4231C27.815 17.4348 27.7321 17.453 27.6511 17.4775C27.4029 17.2997 27.1139 17.1875 26.8108 17.1511C26.7929 17.1175 26.7727 17.0852 26.7504 17.0544L29.1683 11.0095C30.4242 11.5041 31.5996 12.1825 32.6563 13.0224Z" fill="black"/>
<path opacity="0.1" d="M33.3213 18.348C33.3791 18.097 33.3853 17.8368 33.3396 17.5833C33.2938 17.3297 33.1972 17.0881 33.0554 16.8731L34.9958 15.3437C35.8296 16.3935 36.5038 17.5607 36.9966 18.8074L32.5959 20.5665C32.964 19.8744 33.2094 19.1238 33.3213 18.348Z" fill="black"/>
<path opacity="0.1" d="M20.1615 33.5752L18.8014 36.9845C17.5575 36.4871 16.3927 35.811 15.3438 34.9776L17.7617 31.9128C18.2251 32.3839 18.7496 32.7905 19.3213 33.1218C19.5909 33.2917 19.8716 33.4431 20.1615 33.5752Z" fill="black"/>
<path opacity="0.1" d="M16.4742 29.9483L13.0225 32.6564C12.1891 31.6074 11.5131 30.4426 11.0156 29.1987L16.3835 27.0527C16.3221 27.2513 16.2716 27.4531 16.2324 27.6572C16.1104 28.4289 16.1938 29.2191 16.4742 29.9483Z" fill="black"/>
<path opacity="0.1" d="M17.4473 24.1028C17.3264 24.3929 17.2055 24.7073 17.0907 24.9974L10.145 26.0009C9.95165 24.674 9.95165 23.326 10.145 21.9991L16.2504 22.8817C16.2799 23.1591 16.4011 23.4186 16.595 23.6192C16.8195 23.8681 17.1185 24.0378 17.4473 24.1028Z" fill="black"/>
<path opacity="0.1" d="M16.5044 19.9197C16.3126 20.2066 16.1962 20.5371 16.1658 20.8808L10.9974 18.8014C11.5026 17.5574 12.1846 16.3928 13.0225 15.3437L16.1417 17.7979C16.1857 18.5162 16.3073 19.2276 16.5044 19.9197Z" fill="black"/>
<path opacity="0.1" d="M20.7177 15.791C20.5775 15.6658 20.4302 15.5487 20.2765 15.4404C19.6689 15.0098 18.9615 14.7414 18.2212 14.6606H18.1124H18.0036C17.7441 14.6647 17.4884 14.7245 17.254 14.8359L17.1875 14.8782C17.1025 14.9303 17.0216 14.9889 16.9457 15.0535L15.3378 13.0224C16.3889 12.1889 17.5557 11.5129 18.8015 11.0155L20.7177 15.791Z" fill="black"/>
<path opacity="0.1" d="M26.001 37.855C24.6741 38.0484 23.3262 38.0484 21.9993 37.855L22.5252 34.228C22.9177 34.3512 23.3236 34.4263 23.7342 34.4517H23.8127H24.2117C24.6485 34.4574 25.0834 34.3921 25.4993 34.2583L26.001 37.855Z" fill="black"/>
<path opacity="0.1" d="M32.6564 34.9957C31.6068 35.8314 30.4397 36.5077 29.1926 37.0026L27.7842 33.4785C28.5288 33.1119 29.1927 32.6001 29.7367 31.9733C29.8395 31.8645 29.9301 31.7496 30.0148 31.6408L32.6564 34.9957Z" fill="black"/>
<path opacity="0.1" d="M36.9966 29.1926C36.504 30.4408 35.8276 31.6082 34.9897 32.6563L30.9094 29.4404C30.9925 28.8185 30.97 28.187 30.8429 27.5726C30.8429 27.4396 30.7643 27.095 30.6918 26.6719L36.9966 29.1926Z" fill="black"/>
<path opacity="0.1" d="M37.994 24.0001C37.9947 24.6697 37.9462 25.3384 37.8489 26.0009L31.6348 25.1123C31.6377 25.062 31.6377 25.0115 31.6348 24.9612C31.9869 24.6278 32.2024 24.1753 32.2393 23.6918C32.2741 23.403 32.2577 23.1104 32.1909 22.8274L37.8187 22.0113C37.9255 22.6691 37.9841 23.3338 37.994 24.0001Z" fill="black"/>
</svg>
