<svg xmlns="http://www.w3.org/2000/svg" xmlns:xlink="http://www.w3.org/1999/xlink" width="234" height="280" fill="none" xmlns:v="https://vecta.io/nano"><g fill="#ddd"><use xlink:href="#B"/><path d="M67.184 241.937c.715-1.549 2.917-1.549 3.632 0l4.486 9.727a2 2 0 0 0 1.581 1.148l10.636 1.261c1.695.201 2.375 2.296 1.122 3.455l-7.864 7.272a2 2 0 0 0-.604 1.858l2.087 10.506c.333 1.674-1.449 2.968-2.939 2.135l-9.346-5.232a2 2 0 0 0-1.954 0l-9.346 5.232c-1.489.833-3.271-.461-2.938-2.135l2.087-10.506a2 2 0 0 0-.604-1.858l-7.864-7.272c-1.253-1.159-.572-3.254 1.123-3.455l10.636-1.261a2 2 0 0 0 1.581-1.148l4.486-9.727zm-48 0c.715-1.549 2.917-1.549 3.632 0l4.486 9.727a2 2 0 0 0 1.581 1.148l10.637 1.261c1.695.201 2.375 2.296 1.122 3.455l-7.864 7.272a2 2 0 0 0-.604 1.858l2.087 10.506c.333 1.674-1.449 2.968-2.939 2.135l-9.346-5.232a2 2 0 0 0-1.954 0l-9.346 5.232c-1.489.833-3.271-.461-2.939-2.135l2.087-10.506a2 2 0 0 0-.604-1.858l-7.864-7.272c-1.253-1.159-.572-3.254 1.122-3.455l10.637-1.261a2 2 0 0 0 1.581-1.148l4.486-9.727z"/><use xlink:href="#C"/><use xlink:href="#D"/><use xlink:href="#C" y="-48"/><use xlink:href="#E"/><use xlink:href="#F"/><path d="M115.184 241.937c.715-1.549 2.917-1.549 3.632 0l4.486 9.727a2 2 0 0 0 1.581 1.148l10.637 1.261c1.694.201 2.375 2.296 1.122 3.455l-7.864 7.272a2 2 0 0 0-.604 1.858l2.088 10.506c.332 1.674-1.45 2.968-2.939 2.135l-9.346-5.232a2 2 0 0 0-1.954 0l-9.346 5.232c-1.49.833-3.271-.461-2.939-2.135l2.088-10.506a2 2 0 0 0-.604-1.858l-7.864-7.272c-1.253-1.159-.572-3.254 1.123-3.455l10.636-1.261a2 2 0 0 0 1.581-1.148l4.486-9.727z"/><use xlink:href="#F" y="-48"/><use xlink:href="#C" x="48"/><use xlink:href="#D" x="48"/><use xlink:href="#C" x="48" y="-48"/><use xlink:href="#E" x="48"/><use xlink:href="#G"/></g><g fill="#f7b819"><use xlink:href="#H"/><use xlink:href="#H" y="-48"/><path d="M19.184 97.937c.715-1.55 2.917-1.55 3.632 0l4.486 9.727a2 2 0 0 0 1.581 1.148l10.637 1.261c1.695.201 2.375 2.296 1.122 3.455l-7.864 7.272a2 2 0 0 0-.604 1.858l2.087 10.506c.333 1.673-1.449 2.968-2.939 2.135l-9.346-5.232a2 2 0 0 0-1.954 0l-9.346 5.232c-1.489.833-3.271-.462-2.939-2.135l2.087-10.506a2 2 0 0 0-.604-1.858l-7.864-7.272c-1.253-1.159-.572-3.254 1.122-3.455l10.637-1.261a2 2 0 0 0 1.581-1.148l4.486-9.727zm0-48c.715-1.55 2.917-1.55 3.632 0l4.486 9.726a2 2 0 0 0 1.581 1.148l10.637 1.261c1.695.201 2.375 2.296 1.122 3.454L32.778 72.8a2 2 0 0 0-.604 1.858l2.087 10.506c.333 1.674-1.449 2.968-2.939 2.135l-9.346-5.232a2 2 0 0 0-1.954 0l-9.346 5.232c-1.489.834-3.271-.461-2.939-2.135l2.087-10.506A2 2 0 0 0 9.22 72.8l-7.864-7.272c-1.251-1.159-.57-3.254 1.124-3.455l10.637-1.261a2 2 0 0 0 1.581-1.148l4.486-9.726zm0-48c.715-1.55 2.917-1.55 3.632 0l4.486 9.726a2 2 0 0 0 1.581 1.148l10.637 1.261c1.695.201 2.375 2.296 1.122 3.454L32.778 24.8a2 2 0 0 0-.604 1.858l2.087 10.506c.333 1.674-1.449 2.968-2.939 2.135l-9.346-5.232a2 2 0 0 0-1.954 0l-9.346 5.232c-1.489.834-3.271-.461-2.939-2.135l2.087-10.506A2 2 0 0 0 9.22 24.8l-7.864-7.272c-1.251-1.159-.57-3.254 1.124-3.455l10.637-1.261a2 2 0 0 0 1.581-1.148l4.486-9.726z"/><use xlink:href="#B" y="-48"/><path d="M67.184 97.937c.715-1.55 2.917-1.55 3.632 0l4.486 9.727a2 2 0 0 0 1.581 1.148l10.636 1.261c1.695.201 2.375 2.296 1.122 3.455l-7.864 7.272a2 2 0 0 0-.604 1.858l2.087 10.506c.333 1.673-1.449 2.968-2.939 2.135l-9.346-5.232a2 2 0 0 0-1.954 0l-9.346 5.232c-1.489.833-3.271-.462-2.938-2.135l2.087-10.506a2 2 0 0 0-.604-1.858l-7.864-7.272c-1.253-1.159-.572-3.254 1.123-3.455l10.636-1.261a2 2 0 0 0 1.581-1.148l4.486-9.727zm0-48c.715-1.55 2.917-1.55 3.632 0l4.486 9.726a2 2 0 0 0 1.581 1.148l10.636 1.261c1.695.201 2.375 2.296 1.122 3.454L80.778 72.8a2 2 0 0 0-.604 1.858l2.087 10.506c.333 1.674-1.449 2.968-2.939 2.135l-9.346-5.232a2 2 0 0 0-1.954 0l-9.346 5.232c-1.489.834-3.271-.461-2.938-2.135l2.087-10.506a2 2 0 0 0-.604-1.858l-7.864-7.272c-1.253-1.159-.572-3.254 1.123-3.454l10.636-1.261a2 2 0 0 0 1.581-1.148l4.486-9.726zm0-48c.715-1.55 2.917-1.55 3.632 0l4.486 9.726a2 2 0 0 0 1.581 1.148l10.636 1.261c1.695.201 2.375 2.296 1.122 3.454L80.778 24.8a2 2 0 0 0-.604 1.858l2.087 10.506c.333 1.674-1.449 2.968-2.939 2.135l-9.346-5.232a2 2 0 0 0-1.954 0l-9.346 5.232c-1.489.834-3.271-.461-2.938-2.135l2.087-10.506a2 2 0 0 0-.604-1.858l-7.864-7.272c-1.253-1.159-.572-3.254 1.123-3.454l10.636-1.261a2 2 0 0 0 1.581-1.148l4.486-9.726zm48 96c.715-1.55 2.917-1.55 3.632 0l4.486 9.727a2 2 0 0 0 1.581 1.148l10.637 1.261c1.694.201 2.375 2.296 1.122 3.455l-7.864 7.272a2 2 0 0 0-.604 1.858l2.088 10.506c.332 1.673-1.45 2.968-2.939 2.135l-9.346-5.232a2 2 0 0 0-1.954 0l-9.346 5.232c-1.49.833-3.271-.462-2.939-2.135l2.088-10.506a2 2 0 0 0-.604-1.858l-7.864-7.272c-1.253-1.159-.572-3.254 1.123-3.455l10.636-1.261a2 2 0 0 0 1.581-1.148l4.486-9.727z"/><use xlink:href="#I"/><use xlink:href="#I" y="-48"/><use xlink:href="#G" x="-48"/><use xlink:href="#G" x="-48" y="-48"/><use xlink:href="#G" y="-48"/></g><defs ><path id="B" d="M67.184 193.937c.715-1.549 2.917-1.549 3.632 0l4.486 9.727a2 2 0 0 0 1.581 1.148l10.636 1.261c1.695.201 2.375 2.296 1.122 3.455l-7.864 7.272a2 2 0 0 0-.604 1.858l2.087 10.506c.333 1.673-1.449 2.968-2.939 2.135l-9.346-5.232a2 2 0 0 0-1.954 0l-9.346 5.232c-1.489.833-3.271-.462-2.938-2.135l2.087-10.506a2 2 0 0 0-.604-1.858l-7.864-7.272c-1.253-1.159-.572-3.254 1.123-3.455l10.636-1.261a2 2 0 0 0 1.581-1.148l4.486-9.727z"/><path id="C" d="M163.184 193.937c.715-1.549 2.917-1.549 3.632 0l4.486 9.727a2 2 0 0 0 1.581 1.148l10.637 1.261c1.694.201 2.375 2.296 1.122 3.455l-7.864 7.272a2 2 0 0 0-.604 1.858l2.088 10.506c.332 1.673-1.45 2.968-2.939 2.135l-9.346-5.232a2 2 0 0 0-1.954 0l-9.346 5.232c-1.49.833-3.271-.462-2.939-2.135l2.088-10.506a2 2 0 0 0-.604-1.858l-7.864-7.272c-1.253-1.159-.572-3.254 1.122-3.455l10.637-1.261a2 2 0 0 0 1.581-1.148l4.486-9.727z"/><path id="D" d="M163.184 241.937c.715-1.549 2.917-1.549 3.632 0l4.486 9.727a2 2 0 0 0 1.581 1.148l10.637 1.261c1.694.201 2.375 2.296 1.122 3.455l-7.864 7.272a2 2 0 0 0-.604 1.858l2.088 10.506c.332 1.674-1.45 2.968-2.939 2.135l-9.346-5.232a2 2 0 0 0-1.954 0l-9.346 5.232c-1.49.833-3.271-.461-2.939-2.135l2.088-10.506a2 2 0 0 0-.604-1.858l-7.864-7.272c-1.253-1.159-.572-3.254 1.122-3.455l10.637-1.261a2 2 0 0 0 1.581-1.148l4.486-9.727z"/><path id="E" d="M163.184 97.937c.715-1.55 2.917-1.55 3.632 0l4.486 9.727a2 2 0 0 0 1.581 1.148l10.637 1.261c1.694.201 2.375 2.296 1.122 3.455l-7.864 7.272a2 2 0 0 0-.604 1.858l2.088 10.506c.332 1.673-1.45 2.968-2.939 2.135l-9.346-5.232a2 2 0 0 0-1.954 0l-9.346 5.232c-1.49.833-3.271-.462-2.939-2.135l2.088-10.506a2 2 0 0 0-.604-1.858l-7.864-7.272c-1.253-1.159-.572-3.254 1.122-3.455l10.637-1.261a2 2 0 0 0 1.581-1.148l4.486-9.727z"/><path id="F" d="M115.184 193.937c.715-1.549 2.917-1.549 3.632 0l4.486 9.727a2 2 0 0 0 1.581 1.148l10.637 1.261c1.694.201 2.375 2.296 1.122 3.455l-7.864 7.272a2 2 0 0 0-.604 1.858l2.088 10.506c.332 1.673-1.45 2.968-2.939 2.135l-9.346-5.232a2 2 0 0 0-1.954 0l-9.346 5.232c-1.49.833-3.271-.462-2.939-2.135l2.088-10.506a2 2 0 0 0-.604-1.858l-7.864-7.272c-1.253-1.159-.572-3.254 1.123-3.455l10.636-1.261a2 2 0 0 0 1.581-1.148l4.486-9.727z"/><path id="G" d="M211.184 49.937c.715-1.55 2.917-1.55 3.632 0l4.486 9.726a2 2 0 0 0 1.581 1.148l10.637 1.261c1.694.201 2.375 2.296 1.122 3.454l-7.864 7.272a2 2 0 0 0-.604 1.858l2.088 10.506c.332 1.674-1.45 2.968-2.939 2.135l-9.346-5.232a2 2 0 0 0-1.954 0l-9.346 5.232c-1.49.834-3.271-.461-2.939-2.135l2.088-10.506a2 2 0 0 0-.604-1.858l-7.864-7.272c-1.253-1.159-.572-3.254 1.122-3.454l10.637-1.261a2 2 0 0 0 1.581-1.148l4.486-9.726z"/><path id="H" d="M19.184 193.937c.715-1.549 2.917-1.549 3.632 0l4.486 9.727a2 2 0 0 0 1.581 1.148l10.637 1.261c1.695.201 2.375 2.296 1.122 3.455l-7.864 7.272a2 2 0 0 0-.604 1.858l2.087 10.506c.333 1.673-1.449 2.968-2.939 2.135l-9.346-5.232a2 2 0 0 0-1.954 0l-9.346 5.232c-1.489.833-3.271-.462-2.939-2.135l2.087-10.506a2 2 0 0 0-.604-1.858l-7.864-7.272c-1.253-1.159-.572-3.254 1.122-3.455l10.637-1.261a2 2 0 0 0 1.581-1.148l4.486-9.727z"/><path id="I" d="M115.184 49.937c.715-1.55 2.917-1.55 3.632 0l4.486 9.726a2 2 0 0 0 1.581 1.148l10.637 1.261c1.694.201 2.375 2.296 1.122 3.454l-7.864 7.272a2 2 0 0 0-.604 1.858l2.088 10.506c.332 1.674-1.45 2.968-2.939 2.135l-9.346-5.232a2 2 0 0 0-1.954 0l-9.346 5.232c-1.49.834-3.271-.461-2.939-2.135l2.088-10.506a2 2 0 0 0-.604-1.858l-7.864-7.272c-1.253-1.159-.572-3.254 1.123-3.454l10.636-1.261a2 2 0 0 0 1.581-1.148l4.486-9.726z"/></defs></svg>